**ABCDEFGHIJKLMNOPQRSTUVWXYZabcdefghijklmnopqrstuvwxyz**************************
**PARASOLID !"#$%&'()*+,-./:;<=>?@[\]^_`{|}~0123456789**************************
**PART1;
MC=unknown;
MC_MODEL=unknown;
MC_ID=unknown;
OS=unknown;
OS_RELEASE=unknown;
FRU=sdl_parasolid_customer_support;
APPL=parasolid_acceptance_tests;
SITE=unknown;
USER=unknown;
FORMAT=text;
GUISE=transmit;
KEY=/lore/hur3/Albany_430/tests/small/TDM/Additive3D/Model&Mesh/500x500x500m_single_layer_nat.x_t;
FILE=/lore/hur3/Albany_430/tests/small/TDM/Additive3D/Model&Mesh/500x500x500m_single_layer_nat.x_t;
DATE=unknown;
**PART2;
SCH=SCH_3100154_31001;
USFLD_SIZE=1;
**PART3;
**END_OF_HEADER*****************************************************************
T51 : TRANSMIT FILE created by modeller version 310015423 SCH_3100154_31001_1300
6215 1 12 34 CCCCCCI4 mesh1006 0 I8 polyline1008 0 CCCCCCCDI5 owner1040 0 CCCCCC
I13 boundary_mesh1006 0 I17 boundary_polyline1008 0 CCCA16 index_map_offset0 0 1
 dA9 index_map82 0 A17 node_id_index_map82 0 A20 schema_embedding_map82 0 A5 chi
ld12 0 A14 lowest_node_id0 0 1 dA16 mesh_offset_data206 0 Z1 307 2 3 0 0 0 0 0 0
 1e3 1e-8 0 4 0 1 0 6 1 0 5 6 7 0 0 8 9 10 0 0 0 0 0 0 0 0 81 255 1 2 182 11 1 1
2 0 0 0 0 0 70 11 CI9 list_type0 0 1 uI10 notransmit0 0 1 lCCCDCCDI12 finger_ind
ex0 0 1 dI12 finger_block1012 0 CZ3 0 4 T1 0 0 6 20 1 13 13 0 50 255 5 259 0 14
 15 0 0 +-30310008278897e-27 5e2 5e2 1 60620016557794e-30 0 -60620016557794e-30
 1 0 0 30 255 6 265 0 16 17 0 0 +-30310008278897e-27 5e2 5e2 0 0 -1 0 29 255 7 2
81 0 18 19 0 5e2 5e2 5e2 0 19 8 CCCCCCCA5 owner12 0 Z8 305 0 1 20 0 21 V0 0 16 2
55 9 73 0 ?22 0 23 24 0 0 1 0 18 255 10 15 0 25 0 26 27 ?1 0 17 255 25 0 28 29 3
0 10 31 32 0 33 +0 18 26 10 0 34 10 35 36 ?1 0 29 27 17 0 10 36 37 5e2 5e2 28.5
 0 29 36 12 0 26 38 27 5e2 0 28.5 0 29 37 70 0 39 27 40 0 5e2 0 0 18 39 60 0 41
 42 18 37 ?1 0 29 40 69 0 42 37 43 0 0 0 0 18 42 58 0 44 45 39 40 ?1 0 29 43 68
 0 45 40 46 5e2 0 0 0 18 45 56 0 47 48 42 43 ?1 0 29 46 67 0 48 43 49 5e2 5e2 0
 0 18 48 54 0 50 51 45 46 ?1 0 29 49 284 0 52 46 53 -30310008278897e-27 5e2 5e2
 0 18 52 249 0 54 55 0 49 ?1 0 29 53 283 0 55 49 19 0 0 5e2 0 18 55 247 0 56 57
 52 53 ?1 0 29 19 282 0 57 53 7 5e2 0 5e2 0 18 57 245 0 58 18 55 19 ?1 0 17 58 0
 59 60 61 57 56 62 0 63 +0 18 18 243 0 60 39 57 7 ?1 0 17 60 0 59 54 58 18 64 65
 0 29 +0 15 255 59 213 0 61 66 0 0 17 54 0 59 61 60 52 67 68 0 69 +0 17 64 0 28
 30 29 57 60 65 0 0 -0 16 65 229 0 ?60 68 62 70 0 0 1 0 17 29 0 28 64 25 18 33 7
1 0 67 -0 15 28 203 0 25 72 0 0 17 33 0 73 74 67 10 29 71 0 75 +0 16 71 223 0 ?3
3 76 16 77 0 0 1 0 17 67 0 73 33 69 18 54 68 0 0 -0 15 73 208 0 74 78 0 0 17 69
 0 73 67 74 52 79 16 0 80 -0 16 68 227 0 ?54 16 65 81 0 0 1 0 16 16 225 0 ?79 71
 68 6 0 0 1 0 30 81 273 0 68 70 77 0 +5e2 5e2 5e2 -1 -113686837721616e-30 0 0 30
 70 274 0 65 82 81 0 +5e2 0 5e2 -227373675443232e-30 1 0 0 30 77 268 0 71 81 83
 0 +5e2 5e2 5e2 0 0 -1 0 30 83 267 0 76 77 17 0 +5e2 0 5e2 0 0 -1 0 16 76 221 0
 ?30 84 71 83 0 0 1 0 30 17 266 0 84 83 6 0 +0 0 5e2 0 0 -1 0 16 84 219 0 ?85 86
 76 17 0 0 1 0 17 85 0 87 34 56 35 88 84 0 89 +0 16 86 52 90 ?91 92 84 93 0 0 1
 0 81 1 90 117 94 86 0 0 0 95 96 0 17 91 0 97 98 99 42 100 86 0 0 +0 16 92 50 10
1 ?47 102 86 103 0 0 1 0 30 93 66 0 86 104 103 0 +0 5e2 0 0 -1 0 0 30 104 22 0 1
05 106 93 0 +5e2 5e2 28.5 -1 0 0 0 30 103 65 0 92 93 107 0 +0 0 0 1 0 0 0 30 107
 64 0 102 103 108 0 +5e2 0 0 0 1 0 0 16 102 48 109 ?50 110 92 107 0 0 1 0 30 108
 63 0 110 107 111 0 +5e2 5e2 0 -1 0 0 0 16 110 46 95 ?41 112 102 108 0 0 1 0 30
 111 87 0 113 108 114 0 +5e2 5e2 28.5 0 0 -1 0 16 113 71 0 ?115 23 116 111 0 0 1
 0 30 114 88 0 23 111 24 0 +5e2 0 28.5 0 0 -1 0 16 23 72 0 ?117 9 113 114 0 0 1
 0 30 24 89 0 9 114 118 0 +0 0 28.5 0 0 -1 0 30 118 90 0 116 24 119 0 +0 5e2 28.
5 0 0 -1 0 16 116 74 0 ?99 113 105 118 0 0 1 0 30 119 276 0 120 118 82 0 +-30310
008278897e-27 5e2 5e2 60620016557794e-30 -1 0 0 16 120 233 0 ?61 62 0 119 0 0 1
 0 30 82 275 0 62 119 70 0 +0 0 5e2 1 0 0 0 16 62 231 0 ?58 65 120 82 0 0 1 0 17
 61 0 59 58 54 55 80 120 0 88 +0 17 80 0 121 79 88 52 61 120 0 0 -0 17 88 0 121
 80 122 55 85 84 0 0 -0 15 121 193 0 122 14 0 0 17 122 0 121 88 79 35 123 112 0
 85 +0 17 79 0 121 122 80 51 69 16 0 124 +0 18 35 5 0 122 26 51 38 ?1 0 17 123 0
 97 99 98 51 125 112 0 0 -0 16 112 6 0 ?122 126 110 127 0 0 1 0 16 126 11 0 ?34
 32 112 128 0 0 1 0 30 127 9 0 112 0 128 0 +0 5e2 28.5 0 -1 0 0 30 128 14 0 126
 127 106 0 +0 0 28.5 1 0 0 0 30 106 19 0 32 128 104 0 +5e2 0 28.5 0 1 0 0 16 32
 16 0 ?25 105 126 106 0 0 1 0 16 105 20 0 ?74 116 32 104 0 0 1 0 17 74 0 73 69 3
3 51 129 105 0 79 +0 18 51 2 0 74 35 48 130 ?1 0 17 129 0 131 115 124 10 132 105
 0 0 -0 15 131 75 0 41 133 0 0 17 115 0 131 41 129 48 75 113 0 134 +0 17 124 0 1
31 129 41 51 99 116 0 123 -0 17 132 0 135 125 136 51 74 105 0 0 +0 15 135 23 0 1
25 137 0 0 17 125 0 135 138 132 35 122 112 0 0 +0 17 136 0 135 132 138 10 25 32
 0 0 +0 17 138 0 135 136 125 26 34 126 0 0 +0 17 34 0 87 63 85 26 89 126 0 30 +0
 15 87 198 0 34 139 0 0 17 63 0 87 56 34 57 30 76 0 64 -0 17 89 0 140 22 141 35
 138 126 0 98 -0 17 30 0 28 25 64 26 63 76 0 141 +0 17 141 0 140 89 47 26 117 23
 0 31 -0 15 140 79 0 47 142 0 0 17 47 0 140 141 22 45 44 92 0 117 +0 17 117 0 14
3 50 31 45 141 23 0 144 +0 17 31 0 143 117 75 26 136 32 0 0 -0 15 143 77 0 50 14
5 0 0 17 75 0 143 31 50 10 115 113 0 129 -0 17 50 0 143 75 117 48 144 102 0 115
 +0 17 144 0 146 44 134 45 50 102 0 0 -0 15 146 45 0 100 147 0 0 17 44 0 146 100
 144 42 47 92 0 22 -0 17 134 0 146 144 100 48 41 110 0 0 -0 17 100 0 146 134 44
 39 91 86 0 0 -0 17 41 0 131 124 115 39 134 110 0 99 +0 17 99 0 97 91 123 39 124
 116 0 100 +0 15 97 81 0 91 148 0 0 14 255 148 82 149 ?142 0 97 150 151 -0 0 142
 66 21 0 81 1 149 133 152 148 0 0 0 153 154 0 14 142 80 153 ?145 148 140 150 155
 -0 0 145 148 21 0 13 255 150 91 0 0 0 148 0 0 20 0 0 50 151 86 0 148 155 156 0
 +0 5e2 28.5 1 0 0 0 0 -1 0 14 66 209 157 ?14 72 59 158 156 +0 0 148 78 21 0 13
 21 187 0 0 0 0 0 0 8 14 0 14 14 189 159 ?78 66 121 158 5 -0 0 139 0 21 0 81 1 1
59 192 152 14 0 0 160 161 162 0 14 78 204 163 ?0 14 73 158 164 -0 0 66 72 21 0 1
3 158 288 0 0 0 139 0 0 165 137 0 14 139 194 161 ?72 0 87 158 15 -0 0 72 14 21 0
 81 1 161 197 152 139 0 0 159 166 167 0 14 72 199 166 ?66 139 28 158 168 -0 0 78
 139 21 0 50 15 260 0 139 168 5 0 +0 0 5e2 0 1 0 0 0 1 0 50 168 261 0 72 164 15
 0 +5e2 0 5e2 -1 -227373675443232e-30 0 227373675443232e-30 -1 0 0 50 164 262 0
 78 156 168 0 +5e2 5e2 5e2 113686837721616e-30 -1 0 1 113686837721616e-30 0 0 50
 156 264 0 66 151 164 0 +0 0 5e2 0 0 1 1 0 0 0 81 1 166 202 152 72 0 0 161 163 1
69 0 80 255 1 152 0 170 8001 0 0 0 0 3 5 0 0 0 FFFFTFTFFFFFFF2 0 81 1 163 207 15
2 78 0 0 166 157 171 0 83 255 3 169 .5960784 .6666667 .6862745 0 81 1 157 212 15
2 66 0 0 163 0 172 0 83 3 171 .5960784 .6666667 .6862745 0 83 3 172 .5960784 .66
66667 .6862745 0 79 255 15 170 SDL/TYSA_COLOUR0 83 3 167 .5960784 .6666667 .6862
745 0 19 165 217 173 1 0 20 158 S0 0 14 137 24 174 ?0 147 135 150 175 +0 0 0 0 1
58 0 81 1 174 137 152 137 0 0 176 160 177 0 14 147 42 160 ?137 133 146 150 178 -
0 0 0 133 21 0 50 175 25 0 137 0 178 0 +0 0 28.5 0 0 1 1 0 0 0 50 178 62 0 147 1
75 179 0 +0 0 0 0 0 1 1 0 0 0 50 179 83 0 133 178 180 0 +5e2 5e2 28.5 0 -1 0 0 0
 -1 0 14 133 76 176 ?147 145 131 150 179 -0 0 147 145 21 0 50 180 84 0 145 179 1
55 0 +5e2 0 28.5 -1 0 0 0 0 1 0 14 145 78 181 ?133 142 143 150 180 -0 0 133 142
 21 0 50 155 85 0 142 180 151 0 +0 0 28.5 0 1 0 0 0 1 0 81 1 181 135 152 145 0 0
 153 176 182 0 81 1 153 134 152 142 0 0 149 181 183 0 81 1 176 136 152 133 0 0 1
81 174 184 0 83 3 182 .5960784 .6666667 .6862745 0 83 3 184 .5960784 .6666667 .6
862745 0 83 3 183 .5960784 .6666667 .6862745 0 81 1 160 138 152 147 185 0 174 15
9 186 0 81 1 185 128 94 147 0 160 101 0 187 0 83 3 186 .5960784 .6666667 .686274
5 0 80 1 94 188 189 9000 1 1 1 1 1 1 1 1 0 FFFFTFTFFFFFFF3 0 81 1 101 123 94 92
 0 0 109 185 190 0 84 255 32 187 189fb3eba3e84407c4faca5b4ce91dea0 81 1 109 121
 94 102 0 0 95 101 191 0 84 32 190 8be6f3480b892baaa1ec678d0e17f1370 81 1 95 119
 94 110 0 0 90 109 192 0 84 32 191 3bc068fe0c759addde752aea606e43130 84 32 192 f
c0927f75aa8c1cae0837d8b058d6c0d0 79 15 189 UGS/ObjectState0 83 3 177 .5960784 .6
666667 .6862745 0 81 1 173 307 193 165 0 0 194 0 195 0 19 20 92 194 1 165 8 150
 S0 0 81 1 194 306 193 20 0 0 0 173 196 0 80 1 193 11 197 9000 0 0 0 0 3 6 0 0 0
 TTTFTFTTFFFFTF3 0 84 6 196 Part 10 79 11 197 SimPartName0 84 6 195 Part 20 83 3
 162 .5960784 .6666667 .6862745 0 83 3 154 .5960784 .6666667 .6862745 0 17 22 0
 140 47 89 42 98 9 0 91 +0 17 98 0 97 123 91 35 22 9 0 0 -0 17 56 0 87 85 63 55
 58 62 0 61 -0 29 130 4 0 51 0 38 0 5e2 28.5 0 29 38 7 0 35 130 36 0 0 28.5 0 84
 32 96 07d4bb66f623bfd7e25d12e9f98b13170 74 4 CI16 index_map_offset0 0 1 dCCZ20
 13 6 0 0 185 198 157 12 2 173 0 0 0 0 0 0 0 0 0 0 0 0 0 0 0 81 2 198 131 199 1
 0 12 0 0 200 201 0 81 1 12 139 202 1 198 2 0 0 203 0 80 1 202 204 205 9000 0 0
 0 0 3 5 0 0 0 FFTFFFFFFFFFFF1 0 82 255 1 203 129 0 79 24 205 UG2/BODY_COLOR_ATT
RIBUTE0 80 2 199 206 207 8004 0 0 0 0 3 5 0 0 0 FFTFFFFFFFFFFF2 3 0 83 1 200 783
0.64 0 84 8 201 Kg/Cu M 0 79 16 207 SDL/TYSA_DENSITY0 80 1 11 202 208 9000 0 0 0
 0 3 6 0 0 0 FFTFTFTTFFFFTF9 0 79 23 208 Sim_NM_AssemblyModelAtt0 1 0 
