**ABCDEFGHIJKLMNOPQRSTUVWXYZabcdefghijklmnopqrstuvwxyz**************************
**PARASOLID !"#$%&'()*+,-./:;<=>?@[\]^_`{|}~0123456789**************************
**PART1;
MC=x64/Windows NT;
MC_MODEL=genuineintel family 6 model 14 stepping 9, intel(r) core(tm) i7-7600u cpu @ 2.80ghz;
MC_ID=desktop-7q9tq3v;
OS=windows nt (x64);
OS_RELEASE=6.3 windows 10 education (build 17134) ;
FRU=mdc_ugii_v7.0_djl_can_vrh;
APPL=unigraphics;
SITE=unknown;
USER=waltza;
FORMAT=text;
GUISE=transmit;
KEY=500x500x500_single_layer;
FILE=C:\Users\waltza\Documents\SLM Add. Manu. Research\Simulation\Simulation Single Layer\500x500x500_single_layer.x_t;
DATE=8-nov-2019;
**PART2;
SCH=SCH_2901158_28101;
USFLD_SIZE=0;
**PART3;
**END_OF_HEADER*****************************************************************
T51 : TRANSMIT FILE created by modeller version 290115823 SCH_2901158_28101_1300
6204 0 12 33 CCCCCCI4 mesh1006 0 I8 polyline1008 0 CCCCCCCDI5 owner1040 0 CCCCCC
I13 boundary_mesh1006 0 I17 boundary_polyline1008 0 CCCA16 index_map_offset0 0 1
 dA9 index_map82 0 A17 node_id_index_map82 0 A20 schema_embedding_map82 0 A5 chi
ld12 0 A14 lowest_node_id0 0 1 dZ1 288 2 3 0 0 0 0 0 0 1e3 1e-8 0 0 0 1 0 1 1 4
 5 6 7 0 0 8 9 10 0 0 0 0 0 0 81 255 1 2 288 11 1 12 0 0 0 13 70 11 CI9 list_typ
e0 0 1 uI10 notransmit0 0 1 lCCCDCCDI12 finger_index0 0 1 dI12 finger_block1012
 0 CZ3 0 4 T1 0 0 4 20 1 14 14 13 255 4 91 0 1 0 15 0 0 16 0 50 255 5 86 0 15 17
 0 0 +-544355502220998e-30 12.7 .7239 1 4286263797015735e-32 0 -4286263797015735
e-32 1 0 30 255 6 90 0 18 19 0 0 +-544355502220998e-30 12.7 .7239 0 0 -1 29 255
 7 67 0 10 20 0 12.7 12.7 0 19 8 CCCCCCCA5 owner12 0 Z8 1 0 1 16 0 21 V0 16 255
 9 73 22 ?23 0 24 19 0 0 1 18 255 10 54 0 25 0 26 7 ?1 17 255 25 0 27 28 29 10 3
0 31 0 32 +18 26 56 0 33 10 34 20 ?1 17 33 0 35 36 23 26 37 38 0 29 +18 34 58 0
 37 26 39 40 ?1 29 20 68 0 26 40 7 12.7 0 0 29 40 69 0 34 41 20 0 0 0 29 41 70 0
 39 42 40 -544355502220998e-30 12.7 0 18 39 60 0 43 34 44 41 ?1 29 42 243 0 44 4
5 41 12.7 12.7 12.7 18 44 194 0 28 39 46 42 ?1 29 45 244 0 46 47 42 12.7 0 12.7
 18 46 193 0 36 44 48 45 ?1 29 47 245 0 48 49 45 0 0 12.7 18 48 190 0 50 46 51 4
7 ?1 29 49 246 0 51 0 47 -544355502220998e-30 12.7 12.7 18 51 195 0 52 48 0 49 ?
1 17 52 0 53 54 43 51 55 18 0 56 -15 255 53 75 0 43 57 0 17 54 0 53 32 52 44 56
 58 0 0 -17 43 0 53 52 32 39 59 60 0 55 +17 55 0 61 62 63 39 52 18 0 64 +16 18 7
4 65 ?55 66 60 6 0 0 1 17 56 0 67 68 69 51 54 58 0 63 +15 67 216 0 68 70 0 17 68
 0 67 71 56 48 63 72 0 0 +17 69 0 67 56 71 44 73 74 0 54 +16 58 187 75 ?56 76 74
 77 0 0 1 17 63 0 61 55 50 51 68 72 0 0 -15 61 81 0 62 15 0 17 50 0 61 63 62 48
 23 9 0 78 -16 72 181 79 ?68 80 0 81 0 0 1 81 1 79 275 82 72 0 0 75 83 84 16 80
 183 85 ?71 74 72 86 0 0 1 30 81 238 0 72 0 86 0 +-544355502220998e-30 12.7 12.7
 4286263797015735e-32 -1 0 30 86 237 0 80 81 87 0 +0 0 12.7 1 0 0 30 87 236 0 74
 86 77 0 +12.7 0 12.7 1398706172756102e-31 1 0 16 74 185 83 ?69 58 80 87 0 0 1 3
0 77 235 0 58 87 88 0 +12.7 12.7 12.7 -1 -2797412345512205e-31 0 30 88 66 0 76 7
7 89 0 +-544355502220998e-30 12.7 0 4286263797015735e-32 -1 0 16 76 52 90 ?62 38
 58 88 0 0 1 30 89 65 0 38 88 91 0 +0 0 0 1 0 0 16 38 50 92 ?33 31 76 89 0 0 1 3
0 91 64 0 31 89 93 0 +12.7 0 0 1398706172756102e-31 1 0 16 31 48 94 ?25 60 38 91
 0 0 1 30 93 63 0 60 91 95 0 +12.7 12.7 0 -1 -2797412345512205e-31 0 16 60 46 96
 ?43 18 31 93 0 0 1 30 95 87 0 66 93 97 0 +12.7 12.7 .7239 0 0 -1 16 66 71 98 ?3
2 24 18 95 0 0 1 30 97 88 0 24 95 19 0 +12.7 0 .7239 0 0 -1 16 24 72 99 ?29 9 66
 97 0 0 1 30 19 89 0 9 97 6 0 +0 0 .7239 0 0 -1 81 1 99 271 82 24 0 0 98 22 100
 17 29 0 27 25 73 26 36 24 0 30 +15 27 77 0 25 101 0 17 73 0 27 29 28 46 69 74 0
 0 -17 36 0 35 78 33 46 29 24 0 71 -17 30 0 102 37 59 26 25 31 0 0 -15 102 45 0
 64 103 0 17 37 0 102 64 30 34 33 38 0 23 -17 59 0 102 30 64 10 43 60 0 0 -17 64
 0 102 59 37 39 62 76 0 0 -17 62 0 61 50 55 34 64 76 0 0 +17 23 0 35 33 78 34 50
 9 0 62 +15 35 79 0 33 104 0 17 78 0 35 23 36 48 71 80 0 68 -17 71 0 67 69 68 46
 78 80 0 73 +14 255 104 80 105 ?101 15 35 4 17 -0 0 101 15 21 81 1 105 283 106 1
04 107 0 108 109 110 14 101 78 109 ?57 104 27 4 111 -0 0 57 104 21 14 15 82 108
 ?104 0 61 4 5 -0 0 104 0 21 50 17 85 0 104 111 5 0 +0 0 .7239 0 1 0 0 0 1 13 21
 3 0 0 0 0 0 0 8 15 50 111 84 0 101 112 17 0 +12.7 0 .7239 -1 1398706172756102e-
31 0 -1398706172756102e-31 -1 0 50 112 83 0 57 113 111 0 +12.7 12.7 .7239 279741
2345512205e-31 -1 0 1 2797412345512205e-31 0 14 57 76 114 ?103 101 53 4 112 -0 0
 103 101 21 50 113 62 0 103 115 112 0 +0 0 0 0 0 1 1 0 0 14 103 42 116 ?70 57 10
2 4 113 -0 0 70 57 21 50 115 226 0 70 0 113 0 +0 0 12.7 0 0 1 1 0 0 14 70 213 11
7 ?0 103 67 4 115 +0 0 0 103 21 81 1 117 287 106 70 118 0 116 0 119 80 255 1 106
 0 120 8001 0 0 0 0 3 5 0 0 0 FFFFTFTFFFFFFF2 81 1 118 281 82 70 0 117 107 0 121
 81 1 116 286 106 103 122 0 114 117 123 83 255 3 119 .5960784 .6666667 .6862745
 81 1 122 125 82 103 0 116 90 65 124 81 1 114 285 106 57 125 0 109 116 126 83 3
 123 .5960784 .6666667 .6862745 81 1 125 278 82 57 0 114 127 128 129 81 1 109 28
4 106 101 127 0 105 114 130 83 3 126 .5960784 .6666667 .6862745 81 1 127 277 82
 101 0 109 83 125 131 83 3 130 .5960784 .6666667 .6862745 80 1 82 132 133 9000 1
 1 1 1 1 1 1 1 0 FFFFTFTFFFFFFF3 81 1 83 276 82 74 0 0 79 127 134 84 255 32 131
 ec3ae73b5e09049e77d6594ce1c02d1284 32 134 8933c3e27374b44310c8cf6d48899efc79 25
5 15 133 UGS/ObjectState81 1 128 279 82 15 0 108 125 107 135 84 32 129 ad07285b7
384e50547fb89ee6d8a856d81 1 108 282 106 15 128 0 0 105 136 81 1 107 280 82 104 0
 105 128 118 137 84 32 135 ef47029766b5bebdf5d90910a1d4f2b584 32 137 7bb699557d5
8dbc511206329501337ea83 3 136 .5960784 .6666667 .6862745 81 1 90 121 82 76 0 0 9
2 122 138 81 1 65 269 82 18 0 0 122 98 139 84 32 124 a319fbcb40dd69196cabd016d83
ac3a481 1 98 270 82 66 0 0 65 99 140 84 32 139 7ce4ed1d075fd4aafbe705d8e3c5a2be8
4 32 140 3a9f14a2d50b15daa4a495195b5da54481 1 92 118 82 38 0 0 94 90 141 84 32 1
38 54178c7e6c9a8a8a75be9e79fcd6e27081 1 94 115 82 31 0 0 96 92 142 84 32 141 c8a
1262e7eadb4148e1ccea3d31baf3381 1 96 114 82 60 0 0 0 94 143 84 32 142 6db2d2cf9c
cd39a86c74926a3809aded84 32 143 96903cc23e6b60b296ba3c49fd5710b884 32 121 a7857f
4ecd182112aa1a0031038f306379 15 120 SDL/TYSA_COLOUR83 3 110 .5960784 .6666667 .6
862745 17 28 0 27 73 25 44 32 66 0 69 -17 32 0 53 43 54 10 28 66 0 59 +81 1 22 2
72 82 9 0 0 99 85 144 84 32 100 7dc2ce745084410b1384a2d1b2fb383981 1 85 273 82 8
0 0 0 22 75 145 84 32 144 8fd386f44618f63fd5a73db663b6f67d81 1 75 274 82 58 0 0
 85 79 146 84 32 145 e930067475c7dd7d99c7bef9f278dc5584 32 146 523092031bd075741
7e7e505b9ae4d1a84 32 84 d090f1c48e2b8574a6a5d3779da1664119 16 92 0 1 0 8 4 S0 74
 4 CI16 index_map_offset0 0 1 dCCZ20 14 4 0 0 118 12 117 2 0 0 0 0 0 0 0 0 0 0 0
 0 0 0 0 0 81 2 12 268 147 1 0 2 0 0 148 149 80 2 147 150 151 8004 0 0 0 0 3 5 0
 0 0 FFTFFFFFFFFFFF2 3 83 1 148 7830.64369935348 84 8 149 Kg/Cu M 79 16 151 SDL/
TYSA_DENSITY80 1 11 152 153 9000 0 0 0 0 3 5 0 0 0 FFTFFFFFFFFFFF1 82 255 1 13 1
29 79 24 153 UG2/BODY_COLOR_ATTRIBUTE1 0 
