**ABCDEFGHIJKLMNOPQRSTUVWXYZabcdefghijklmnopqrstuvwxyz**************************
**PARASOLID !"#$%&'()*+,-./:;<=>?@[\]^_`{|}~0123456789**************************
**PART1;
MC=unknown;
MC_MODEL=unknown;
MC_ID=unknown;
OS=unknown;
OS_RELEASE=unknown;
FRU=sdl_parasolid_customer_support;
APPL=parasolid_acceptance_tests;
SITE=unknown;
USER=unknown;
FORMAT=text;
GUISE=transmit;
KEY=/fasttmp/roys28/resultsFolder/2016July27/500micronsX500micronsX200microns_nat.x_t;
FILE=/fasttmp/roys28/resultsFolder/2016July27/500micronsX500micronsX200microns_nat.x_t;
DATE=unknown;
**PART2;
SCH=SCH_2600217_25001;
USFLD_SIZE=1;
**PART3;
**END_OF_HEADER*****************************************************************
T51 : TRANSMIT FILE created by modeller version 260021723 SCH_2600217_25001_1300
6189 1 12 29 CCCCCCCCCCCCCDI5 owner1040 0 CCCCCCCCCA16 index_map_offset0 0 1 dA9
 index_map82 0 A17 node_id_index_map82 0 A20 schema_embedding_map82 0 A5 child12
 0 A14 lowest_node_id0 0 1 dZ1 255 2 3 0 0 0 0 1e3 1e-8 0 0 0 1 0 6 1 0 4 5 6 7
 8 9 0 0 0 0 0 0 0 81 255 1 2 142 10 1 11 0 0 0 0 0 70 11 CI9 list_type0 0 1 uI1
0 notransmit0 0 1 lCCCDCCDI12 finger_index0 0 1 dI12 finger_block1012 0 CZ3 0 4
 T1 0 0 5 20 1 12 12 0 50 255 4 218 0 13 14 0 0 +25e-5 0 0 0 -1 0 0 0 -1 0 30 25
5 5 227 0 15 16 0 0 +0 0 0 0 0 1 0 29 255 6 239 0 17 18 0 0 0 0 0 19 8 CCCCCCCA5
 owner12 0 Z7 255 0 1 19 0 20 V0 0 16 255 8 34 21 ?22 0 23 24 0 0 1 0 18 255 9 2
3 0 22 0 25 26 ?1 0 17 255 22 0 27 28 29 9 30 8 0 31 +0 18 25 21 0 32 9 33 34 ?1
 0 29 26 58 0 9 34 35 0 0 2e-4 0 29 34 57 0 25 36 26 0 5e-4 2e-4 0 29 35 242 0 3
7 26 38 5e-4 0 0 0 18 37 215 0 39 17 0 35 ?1 0 29 38 241 0 40 35 18 5e-4 5e-4 0
 0 18 40 209 0 41 42 43 38 ?1 0 29 18 240 0 43 38 6 0 5e-4 0 0 18 43 211 0 44 40
 17 18 ?1 0 17 44 0 45 46 47 43 48 49 0 50 -0 18 17 213 0 51 43 37 6 ?1 0 17 51
 0 52 53 54 17 55 15 0 46 -0 15 255 52 153 0 56 13 0 0 17 53 0 52 56 51 37 57 58
 0 59 +0 17 54 0 52 51 56 60 61 62 0 55 -0 17 55 0 45 47 46 60 51 15 0 28 +0 16
 15 185 0 ?55 62 49 5 0 0 1 0 17 46 0 45 55 44 17 63 64 0 57 +0 15 45 158 0 55 6
5 0 0 17 63 0 66 67 57 43 46 64 0 0 -0 16 64 197 0 ?46 68 58 69 0 0 1 0 17 57 0
 66 63 59 17 53 58 0 0 -0 15 66 168 0 59 70 0 0 17 59 0 66 57 67 37 71 72 0 0 -0
 16 58 199 0 ?53 64 0 73 0 0 1 0 30 73 234 0 58 24 74 0 +25e-5 0 0 1 0 0 0 30 24
 62 0 8 75 73 0 +25e-5 0 2e-4 -1 0 0 0 30 74 233 0 72 73 76 0 +5e-4 25e-5 0 0 1
 0 0 16 72 193 0 ?71 77 68 74 0 0 1 0 30 76 232 0 68 74 69 0 +25e-5 5e-4 0 -1 0
 0 0 16 68 195 0 ?50 72 64 76 0 0 1 0 30 69 231 0 64 76 78 0 +0 25e-5 0 0 -1 0 0
 30 78 230 0 77 69 79 0 +5e-4 0 0 0 0 1 0 16 77 191 0 ?56 80 72 78 0 0 1 0 30 79
 229 0 80 78 16 0 +5e-4 5e-4 0 0 0 1 0 16 80 189 0 ?81 49 77 79 0 0 1 0 30 16 22
8 0 49 79 5 0 +0 5e-4 0 0 0 1 0 16 49 187 0 ?48 15 80 16 0 0 1 0 17 48 0 82 83 5
0 84 44 49 0 85 +0 15 82 163 0 48 86 0 0 17 83 0 82 41 48 87 88 89 0 81 -0 17 50
 0 82 48 41 43 67 68 0 63 +0 18 84 13 0 47 87 60 90 ?1 0 17 85 0 91 92 32 84 93
 94 0 95 -0 15 91 29 0 96 97 0 0 17 92 0 91 96 85 60 47 98 0 0 +0 17 32 0 91 85
 96 25 31 23 0 99 +0 17 93 0 100 101 95 25 85 94 0 0 +0 16 94 22 0 ?93 102 103 1
04 0 0 1 0 17 95 0 100 93 105 84 83 89 0 0 +0 15 100 26 0 93 106 0 0 17 105 0 10
0 95 101 87 107 103 0 108 -0 16 89 16 0 ?95 109 98 110 0 0 1 0 16 109 6 0 ?108 1
11 89 112 0 0 1 0 16 98 14 0 ?92 89 62 113 0 0 1 0 30 110 44 0 89 112 113 0 +25e
-5 5e-4 5e-5 -1 0 0 0 30 112 43 0 109 114 110 0 +5e-4 25e-5 5e-5 0 1 0 0 30 113
 45 0 98 110 115 0 +0 25e-5 5e-5 0 -1 0 0 30 115 50 0 111 113 116 0 +5e-4 0 5e-5
 0 0 1 0 16 111 18 0 ?29 103 109 115 0 0 1 0 30 116 51 0 103 115 104 0 +5e-4 5e-
4 5e-5 0 0 1 0 16 103 20 0 ?107 94 111 116 0 0 1 0 30 104 52 0 94 116 117 0 +0 5
e-4 5e-5 0 0 1 0 30 117 53 0 102 104 118 0 +0 0 5e-5 0 0 1 0 16 102 24 0 ?96 119
 94 117 0 0 1 0 30 118 59 0 119 117 120 0 +5e-4 25e-5 2e-4 0 -1 0 0 16 119 25 12
1 ?122 123 102 118 0 0 1 0 30 120 60 0 123 118 75 0 +25e-5 5e-4 2e-4 1 0 0 0 16
 123 28 124 ?101 23 119 120 0 0 1 0 30 75 61 0 23 120 24 0 +0 25e-5 2e-4 0 1 0 0
 16 23 31 125 ?32 8 123 75 0 0 1 0 81 1 125 83 126 23 0 0 121 124 127 0 80 255 1
 126 128 129 9000 1 1 1 1 1 1 1 1 0 FFFFTFTFFFFFFF3 0 81 1 121 81 126 119 0 0 21
 125 130 0 81 1 124 88 126 123 0 0 125 131 132 0 84 255 32 127 e9445b38f184d863c
ddb94089ca921370 81 1 131 94 126 133 0 134 124 0 135 0 84 32 132 c359c133639e45c
430d96913ffdc9bd00 14 255 133 36 134 ?97 136 137 138 139 +0 0 97 136 20 0 81 1 1
34 95 140 133 131 0 0 141 142 0 84 32 135 0da7b42b790ff5d71c4279cc03d3aef80 80 1
 140 0 143 8001 0 0 0 0 3 5 0 0 0 FFFFTFTFFFFFFF2 0 81 1 141 96 140 144 0 0 134
 145 146 0 83 255 3 142 .5960784 .6666667 .6862745 0 14 144 33 141 ?136 147 27 1
38 148 +0 0 136 0 20 0 81 1 145 97 140 97 0 0 141 149 150 0 83 3 146 .5960784 .6
666667 .6862745 0 14 97 30 145 ?106 133 91 138 151 +0 0 106 133 20 0 81 1 149 98
 140 106 0 0 145 152 153 0 83 3 150 .5960784 .6666667 .6862745 0 14 106 27 149 ?
0 97 100 138 154 +0 0 13 97 20 0 81 1 152 99 140 147 0 0 149 155 156 0 83 3 153
 .5960784 .6666667 .6862745 0 14 147 9 152 ?144 0 157 138 158 +0 0 0 0 159 0 81
 1 155 100 140 136 0 0 152 160 161 0 83 3 156 .5960784 .6666667 .6862745 0 14 13
6 2 155 ?133 144 162 138 163 +0 0 133 144 20 0 81 1 160 152 140 13 0 0 155 164 1
65 0 83 3 161 .5960784 .6666667 .6862745 0 14 13 149 160 ?70 0 52 159 4 +0 0 65
 106 20 0 81 1 164 157 140 65 0 0 160 166 167 0 83 3 165 .5960784 .6666667 .6862
745 0 14 65 154 164 ?86 168 45 159 14 +0 0 86 13 20 0 81 1 166 162 140 86 0 0 16
4 169 170 0 83 3 167 .5960784 .6666667 .6862745 0 14 86 159 166 ?0 65 82 159 171
 +0 0 70 65 20 0 81 1 169 167 140 70 0 0 166 172 173 0 83 3 170 .5960784 .666666
7 .6862745 0 14 70 164 169 ?168 13 66 159 174 +0 0 168 86 20 0 81 1 172 172 140
 168 0 0 169 0 175 0 83 3 173 .5960784 .6666667 .6862745 0 14 168 169 172 ?65 70
 176 159 177 +0 0 0 70 20 0 83 3 175 .5960784 .6666667 .6862745 0 15 176 173 0 7
1 168 0 0 13 255 159 245 0 0 0 13 0 0 178 147 0 50 177 221 0 168 174 171 0 +5e-4
 25e-5 0 1 0 0 0 0 -1 0 13 20 244 0 0 0 0 0 0 7 144 0 50 174 222 0 70 139 177 0
 +25e-5 25e-5 0 0 0 -1 -1 0 0 0 50 171 220 0 86 177 14 0 +25e-5 5e-4 0 0 1 0 0 0
 1 0 50 14 219 0 65 171 4 0 +0 25e-5 0 -1 0 0 0 0 1 0 50 139 54 0 133 148 174 0
 +25e-5 25e-5 2e-4 0 0 1 1 0 0 0 50 148 49 0 144 151 139 0 +25e-5 0 5e-5 0 -1 0
 0 0 -1 0 50 151 48 0 97 154 148 0 +0 25e-5 5e-5 -1 0 0 0 0 1 0 50 154 47 0 106
 163 151 0 +25e-5 5e-4 5e-5 0 1 0 0 0 1 0 50 163 46 0 136 158 154 0 +5e-4 25e-5
 5e-5 1 0 0 0 0 -1 0 50 158 37 0 147 0 163 0 +25e-5 25e-5 5e-5 0 0 -1 -1 0 0 0 1
9 178 175 0 1 0 19 159 S0 0 19 19 5 0 1 178 7 138 S0 0 13 138 3 0 0 0 147 0 0 19
 0 0 17 71 0 176 81 39 40 59 72 0 0 +0 17 81 0 176 179 71 87 41 80 0 105 +0 17 3
9 0 176 71 179 37 56 77 0 53 -0 17 179 0 176 39 81 42 180 109 0 56 -0 17 56 0 52
 54 53 42 39 77 0 181 +0 18 42 10 0 179 60 40 182 ?1 0 17 181 0 162 108 122 42 2
9 111 0 183 -0 15 162 7 0 108 136 0 0 17 108 0 162 107 181 87 179 109 0 0 +0 17
 122 0 162 181 107 184 185 119 0 29 +0 17 29 0 27 22 183 184 181 111 0 0 +0 17 1
83 0 27 29 28 42 54 62 0 0 +0 15 27 32 0 29 144 0 0 17 28 0 27 183 22 60 96 102
 0 92 -0 16 62 12 0 ?183 98 15 114 0 0 1 0 30 114 42 0 62 0 112 0 +25e-5 0 5e-5
 1 0 0 0 18 60 11 0 54 84 42 186 ?1 0 17 96 0 91 32 92 9 28 102 0 0 +0 29 186 41
 0 60 90 187 0 0 5e-5 0 29 90 40 0 84 188 186 0 5e-4 5e-5 0 29 187 55 0 184 186
 36 5e-4 0 2e-4 0 18 184 17 0 30 33 87 187 ?1 0 29 36 56 0 33 187 34 5e-4 5e-4 2
e-4 0 18 33 19 0 101 25 184 36 ?1 0 17 101 0 100 105 93 33 99 123 0 185 +0 17 99
 0 137 31 185 25 101 123 0 93 -0 17 185 0 137 99 30 33 122 119 0 107 -0 15 137 3
5 0 30 133 0 0 17 30 0 137 185 31 184 22 8 0 122 -0 17 107 0 162 122 108 33 105
 103 0 0 +0 17 31 0 137 30 99 9 32 23 0 96 -0 18 87 15 0 83 184 84 188 ?1 0 29 1
88 39 0 87 182 90 5e-4 5e-4 5e-5 0 29 182 38 0 42 0 188 5e-4 0 5e-5 0 17 180 0 1
57 61 88 42 108 109 0 0 -0 15 157 8 0 180 147 0 0 17 61 0 157 189 180 60 183 62
 0 0 -0 17 88 0 157 180 189 87 95 89 0 0 -0 17 189 0 157 88 61 84 92 98 0 0 -0 1
7 41 0 82 50 83 40 81 80 0 67 -0 17 67 0 66 59 63 40 50 68 0 71 -0 79 255 15 143
 SDL/TYSA_COLOUR0 81 1 21 78 126 8 0 0 0 121 190 0 84 32 130 e35c4213cbbac9c52ca
1d882387b51160 84 32 190 815f7de223c311571cac540a8f2c4c8d0 79 15 129 UGS/ObjectS
tate0 17 47 0 45 44 55 84 189 98 0 48 -0 74 4 CI16 index_map_offset0 0 1 dCCZ20
 12 5 0 0 191 131 172 11 2 0 0 0 0 0 0 0 0 0 0 0 0 0 0 0 0 81 2 191 76 192 1 0 1
1 0 0 193 194 0 81 1 11 101 195 1 191 2 0 0 196 0 80 1 195 126 197 9000 0 0 0 0
 3 5 0 0 0 FFTFFFFFFFFFFF1 0 82 255 1 196 129 0 79 24 197 UG2/BODY_COLOR_ATTRIBU
TE0 80 2 192 198 199 8004 0 0 0 0 3 5 0 0 0 FFTFFFFFFFFFFF2 3 0 83 1 193 7830.64
 0 84 8 194 Kg/Cu M 0 79 16 199 SDL/TYSA_DENSITY0 80 1 10 195 200 9000 0 0 0 0 3
 6 0 0 0 FFTFTFTTFFFFTF9 0 79 23 200 Sim_NM_AssemblyModelAtt0 1 0 
