**ABCDEFGHIJKLMNOPQRSTUVWXYZabcdefghijklmnopqrstuvwxyz**************************
**PARASOLID !"#$%&'()*+,-./:;<=>?@[\]^_`{|}~0123456789**************************
**PART1;
MC=x64/Windows NT;
MC_MODEL=genuineintel family 6 model 14 stepping 9, intel(r) core(tm) i7-7700hq cpu @ 2.80ghz;
MC_ID=windows-ks1idss;
OS=windows nt (x64);
OS_RELEASE=6.3 windows 10 home (build 17134) ;
FRU=mdc_ugii_v7.0_djl_can_vrh;
APPL=unigraphics;
SITE=unknown;
USER=hurui;
FORMAT=text;
GUISE=transmit;
KEY=40x20x5umSi;
FILE=D:\DOC\PHD_Admission\IBM\ThirdT10_7\40x20x5umSi.x_t;
DATE=30-oct-2018;
**PART2;
SCH=SCH_3000280_30000;
USFLD_SIZE=0;
**PART3;
**END_OF_HEADER*****************************************************************
T51 : TRANSMIT FILE created by modeller version 300028023 SCH_3000280_30000_1300
6205 0 12 33 CCCCCCI4 mesh1006 0 I8 polyline1008 0 CCCCCCCDI5 owner1040 0 CCCCCC
I13 boundary_mesh1006 0 I17 boundary_polyline1008 0 CCCA16 index_map_offset0 0 1
 dA9 index_map82 0 A17 node_id_index_map82 0 A20 schema_embedding_map82 0 A5 chi
ld12 0 A14 lowest_node_id0 0 1 dZ1 137 2 3 0 0 0 0 0 0 1e3 1e-8 0 0 0 1 0 1 1 4
 5 6 7 0 0 8 9 10 0 0 0 0 0 0 81 255 1 2 137 11 1 12 0 0 0 13 70 11 CI9 list_typ
e0 0 1 uI10 notransmit0 0 1 lCCCDCCDI12 finger_index0 0 1 dI12 finger_block1012
 0 CZ3 0 4 T1 0 0 5 20 1 14 14 13 255 4 91 0 1 0 15 0 0 16 0 50 255 5 86 0 15 17
 0 0 +0 20 5 1 0 0 0 0 -1 30 255 6 90 0 18 19 0 0 +0 20 5 0 0 -1 29 255 7 67 0 2
0 21 0 40 20 0 19 8 CCCCCCCA5 owner12 0 Z8 1 0 1 16 0 22 V0 16 255 9 73 23 ?24 0
 25 19 0 0 1 18 255 10 15 0 26 0 27 28 ?1 17 255 26 0 29 30 31 10 32 33 0 34 +18
 27 10 0 31 10 35 36 ?1 29 28 17 0 10 36 37 40 20 5 29 36 12 0 27 38 28 40 0 5 2
9 37 70 0 39 28 40 0 20 0 18 39 60 0 41 42 0 37 ?1 29 40 69 0 42 37 21 0 0 0 18
 42 58 0 43 44 39 40 ?1 29 21 68 0 44 40 7 40 0 0 18 44 56 0 45 20 42 21 ?1 17 4
5 0 46 47 24 44 43 48 0 49 +18 20 54 0 50 51 44 7 ?1 17 50 0 52 34 49 20 53 54 0
 55 +18 51 2 0 30 35 20 56 ?1 17 30 0 29 57 26 51 58 59 0 60 +18 35 5 0 61 27 51
 38 ?1 29 56 4 0 51 0 38 0 20 5 29 38 7 0 35 56 36 0 0 5 17 61 0 46 24 47 35 31
 62 0 57 -15 255 46 79 0 45 63 0 17 24 0 46 45 61 42 64 9 0 65 +17 47 0 46 61 45
 27 49 25 0 32 -17 31 0 29 26 57 27 61 62 0 47 +16 62 11 66 ?31 33 67 68 0 0 1 1
7 57 0 29 31 30 35 69 67 0 64 +15 29 23 0 57 70 0 17 69 0 71 72 64 51 57 67 0 0
 -16 67 6 73 ?57 62 74 75 0 0 1 17 64 0 71 69 65 35 24 9 0 0 -15 71 81 0 65 15 0
 17 65 0 71 64 72 42 76 77 0 0 +17 72 0 71 65 69 39 60 18 0 76 +17 76 0 78 79 43
 39 65 77 0 0 -16 77 52 80 ?65 48 0 81 0 0 1 81 1 80 117 82 77 0 0 83 84 85 16 4
8 50 86 ?45 54 77 87 0 0 1 30 81 66 0 77 88 87 0 +0 20 0 0 -1 0 30 88 22 0 59 89
 81 0 +40 20 5 -1 0 0 30 87 65 0 48 81 90 0 +0 0 0 1 0 0 30 90 64 0 54 87 91 0 +
40 0 0 0 1 0 16 54 48 92 ?50 74 48 90 0 0 1 30 91 63 0 74 90 93 0 +40 20 0 -1 0
 0 16 74 46 94 ?41 67 54 91 0 0 1 30 93 87 0 95 91 96 0 +40 20 5 0 0 -1 16 95 71
 97 ?55 25 18 93 0 0 1 30 96 88 0 25 93 19 0 +40 0 5 0 0 -1 16 25 72 83 ?49 9 95
 96 0 0 1 30 19 89 0 9 96 6 0 +0 0 5 0 0 -1 81 1 83 116 82 25 0 0 66 80 98 17 49
 0 52 50 32 44 47 25 0 53 +15 52 77 0 50 99 0 17 32 0 52 49 34 27 26 33 0 0 -17
 53 0 78 43 79 44 50 54 0 0 -15 78 45 0 76 100 0 17 43 0 78 76 53 42 45 48 0 24
 -17 79 0 78 53 76 20 41 74 0 0 -17 41 0 101 60 55 39 79 74 0 72 +15 101 75 0 41
 102 0 17 60 0 101 58 41 51 72 18 0 69 -17 55 0 101 41 58 20 34 95 0 79 +17 58 0
 101 55 60 10 30 59 0 0 -17 34 0 52 32 50 10 55 95 0 58 -16 59 20 103 ?30 18 33
 88 0 0 1 81 1 103 113 82 59 0 0 94 86 104 16 18 74 84 ?72 95 59 6 0 0 1 16 33 1
6 105 ?26 59 62 89 0 0 1 81 1 105 120 82 33 0 0 92 23 106 30 89 19 0 33 68 88 0
 +40 0 5 0 1 0 30 68 14 0 62 75 89 0 +0 0 5 1 0 0 30 75 9 0 67 0 68 0 +0 20 5 0
 -1 0 80 255 1 82 107 108 9000 1 1 1 1 1 1 1 1 0 FFFFTFTFFFFFFF3 81 1 92 119 82
 54 0 0 84 105 109 81 1 23 121 82 9 0 0 105 73 110 84 255 32 106 c5b086a20ca9f4b
478b6852cf45e9c4a81 1 73 122 82 67 0 0 23 97 111 84 32 110 2e27cf9c92454b2746c51
ae351822ff881 1 97 123 82 95 0 0 73 112 113 84 32 111 986d31e50abdeb085402808897
a48e8281 1 112 124 82 102 0 114 97 115 116 84 32 113 80923a4f228e7e31ed4aa7fb191
bcc5514 255 102 76 114 ?70 99 101 4 117 -0 0 70 99 22 81 1 114 134 118 102 112 0
 119 120 121 81 1 115 125 82 100 0 122 112 123 124 84 32 116 6f1f2eac718eb7d9c6f
acaec0fe2a96614 100 42 122 ?0 70 78 4 125 -0 0 0 70 22 81 1 122 136 118 100 115
 0 120 0 126 81 1 123 126 82 99 0 119 115 127 128 84 32 124 e5df37343180a6dfb217
3efb63f02f6814 99 78 119 ?102 63 52 4 129 -0 0 102 63 22 81 1 119 133 118 99 123
 0 130 114 131 81 1 127 127 82 63 0 130 123 132 133 84 32 128 ad5a451e9177fa5e9d
5e165ea6049cc514 63 80 130 ?99 15 46 4 17 -0 0 99 15 22 81 1 130 132 118 63 127
 0 134 119 135 81 1 132 128 82 70 0 120 127 136 137 84 32 133 15503592256eb26f9c
296343863979d414 70 24 120 ?100 102 29 4 138 +0 0 100 102 22 81 1 120 135 118 70
 132 0 114 122 139 81 1 136 129 82 15 0 134 132 0 140 84 32 137 9348405d0bdc483a
13f3d296a1f8c3ac14 15 82 134 ?63 0 71 4 5 -0 0 63 0 22 81 1 134 131 118 15 136 0
 0 130 141 84 32 140 b477fa0a8bdb23a537ac15e55680427280 1 118 0 142 8001 0 0 0 0
 3 5 0 0 0 FFFFTFTFFFFFFF2 83 255 3 141 .596063172350652 .666666666666667 .68625
9250782025 79 255 15 142 SDL/TYSA_COLOUR13 22 3 0 0 0 0 0 0 8 15 83 3 139 .59606
3172350652 .666666666666667 .686259250782025 50 138 25 0 70 0 125 0 +0 0 5 0 0 1
 1 0 0 50 125 62 0 100 138 117 0 +0 0 0 0 0 1 1 0 0 50 117 83 0 102 125 129 0 +4
0 20 5 0 -1 0 0 0 -1 50 129 84 0 99 117 17 0 +40 0 5 -1 0 0 0 0 1 50 17 85 0 63
 129 5 0 +0 0 5 0 1 0 0 0 1 83 3 135 .596063172350652 .666666666666667 .68625925
0782025 83 3 131 .596063172350652 .666666666666667 .686259250782025 83 3 126 .59
6063172350652 .666666666666667 .686259250782025 83 3 121 .596063172350652 .66666
6666666667 .686259250782025 81 1 84 118 82 18 0 0 80 92 143 84 32 109 3739072ab9
2fee4416e64e53b031dbb684 32 143 949d3ae5abc35a4b4ddd25beb9569fcb79 15 108 UGS/Ob
jectState81 1 94 112 82 74 0 0 0 103 144 81 1 86 114 82 48 0 0 103 66 145 84 32
 104 39dfe8738aa18a9ad826d90e9c95559481 1 66 115 82 62 0 0 86 83 146 84 32 145 6
8c0c9f7cec1683cea7b9bc2ee726da384 32 146 b7fcbfc122c79845e3d70d31ac33a28284 32 1
44 62e423daadec818ba1bb9675f7d9717684 32 98 812d1427a4bdc090f95ea55255cac05384 3
2 85 9e61cd6f1bf2d7304f93eafbb232440819 16 92 0 1 0 8 4 S0 74 4 CI16 index_map_o
ffset0 0 1 dCCZ20 14 5 0 0 147 136 12 122 2 0 0 0 0 0 0 0 0 0 0 0 0 0 0 0 81 2 1
47 111 148 1 0 12 0 0 149 150 81 1 12 130 151 1 147 2 0 0 152 80 1 151 153 154 9
000 0 0 0 0 3 5 0 0 0 FFTFFFFFFFFFFF1 82 255 1 152 9 79 7 154 body_id80 2 148 15
5 156 8004 0 0 0 0 3 5 0 0 0 FFTFFFFFFFFFFF2 3 83 1 149 7830.64 84 8 150 Kg/Cu M
 79 16 156 SDL/TYSA_DENSITY80 1 11 157 158 9000 0 0 0 0 3 5 0 0 0 FFTFFFFFFFFFFF
1 82 1 13 129 79 24 158 UG2/BODY_COLOR_ATTRIBUTE1 0 
