**ABCDEFGHIJKLMNOPQRSTUVWXYZabcdefghijklmnopqrstuvwxyz**************************
**PARASOLID !"#$%&'()*+,-./:;<=>?@[\]^_`{|}~0123456789**************************
**PART1;
MC=unknown;
MC_MODEL=unknown;
MC_ID=unknown;
OS=unknown;
OS_RELEASE=unknown;
FRU=sdl_parasolid_customer_support;
APPL=parasolid_acceptance_tests;
SITE=unknown;
USER=unknown;
FORMAT=text;
GUISE=transmit;
KEY=/lore/hur3/Albany_430/tests/small/TDM/Subtractive3D/Model&Mesh/40x20x5umSi_nat.x_t;
FILE=/lore/hur3/Albany_430/tests/small/TDM/Subtractive3D/Model&Mesh/40x20x5umSi_nat.x_t;
DATE=unknown;
**PART2;
SCH=SCH_3100154_31001;
USFLD_SIZE=1;
**PART3;
**END_OF_HEADER*****************************************************************
T51 : TRANSMIT FILE created by modeller version 310015423 SCH_3100154_31001_1300
6215 1 12 34 CCCCCCI4 mesh1006 0 I8 polyline1008 0 CCCCCCCDI5 owner1040 0 CCCCCC
I13 boundary_mesh1006 0 I17 boundary_polyline1008 0 CCCA16 index_map_offset0 0 1
 dA9 index_map82 0 A17 node_id_index_map82 0 A20 schema_embedding_map82 0 A5 chi
ld12 0 A14 lowest_node_id0 0 1 dA16 mesh_offset_data206 0 Z1 137 2 3 0 0 0 0 0 0
 1e3 1e-8 0 4 0 1 0 1 1 5 6 7 8 0 0 9 10 11 0 0 0 0 0 0 0 0 81 255 1 2 137 12 1
 13 0 0 0 14 0 70 11 CI9 list_type0 0 1 uI10 notransmit0 0 1 lCCCDCCDI12 finger_
index0 0 1 dI12 finger_block1012 0 CZ3 0 4 T1 0 0 5 20 1 15 15 0 13 255 5 91 0 1
 0 16 0 0 17 0 0 50 255 6 86 0 16 18 0 0 +0 20 5 1 0 0 0 0 -1 0 30 255 7 90 0 19
 20 0 0 +0 20 5 0 0 -1 0 29 255 8 67 0 21 22 0 40 20 0 0 19 8 CCCCCCCA5 owner12
 0 Z9 1 0 1 17 0 23 V0 0 16 255 10 73 24 ?25 0 26 20 0 0 1 0 18 255 11 15 0 27 0
 28 29 ?1 0 17 255 27 0 30 31 32 11 33 34 0 35 +0 18 28 10 0 32 11 36 37 ?1 0 29
 29 17 0 11 37 38 40 20 5 0 29 37 12 0 28 39 29 40 0 5 0 29 38 70 0 40 29 41 0 2
0 0 0 18 40 60 0 42 43 0 38 ?1 0 29 41 69 0 43 38 22 0 0 0 0 18 43 58 0 44 45 40
 41 ?1 0 29 22 68 0 45 41 8 40 0 0 0 18 45 56 0 46 21 43 22 ?1 0 17 46 0 47 48 2
5 45 44 49 0 50 +0 18 21 54 0 51 52 45 8 ?1 0 17 51 0 53 35 50 21 54 55 0 56 +0
 18 52 2 0 31 36 21 57 ?1 0 17 31 0 30 58 27 52 59 60 0 61 +0 18 36 5 0 62 28 52
 39 ?1 0 29 57 4 0 52 0 39 0 20 5 0 29 39 7 0 36 57 37 0 0 5 0 17 62 0 47 25 48
 36 32 63 0 58 -0 15 255 47 79 0 46 64 0 0 17 25 0 47 46 62 43 65 10 0 66 +0 17
 48 0 47 62 46 28 50 26 0 33 -0 17 32 0 30 27 58 28 62 63 0 48 +0 16 63 11 67 ?3
2 34 68 69 0 0 1 0 17 58 0 30 32 31 36 70 68 0 65 +0 15 30 23 0 58 71 0 0 17 70
 0 72 73 65 52 58 68 0 0 -0 16 68 6 74 ?58 63 75 76 0 0 1 0 17 65 0 72 70 66 36
 25 10 0 0 -0 15 72 81 0 66 16 0 0 17 66 0 72 65 73 43 77 78 0 0 +0 17 73 0 72 6
6 70 40 61 19 0 77 +0 17 77 0 79 80 44 40 66 78 0 0 -0 16 78 52 81 ?66 49 0 82 0
 0 1 0 81 1 81 117 83 78 0 0 84 85 86 0 16 49 50 87 ?46 55 78 88 0 0 1 0 30 82 6
6 0 78 89 88 0 +0 20 0 0 -1 0 0 30 89 22 0 60 90 82 0 +40 20 5 -1 0 0 0 30 88 65
 0 49 82 91 0 +0 0 0 1 0 0 0 30 91 64 0 55 88 92 0 +40 0 0 0 1 0 0 16 55 48 93 ?
51 75 49 91 0 0 1 0 30 92 63 0 75 91 94 0 +40 20 0 -1 0 0 0 16 75 46 95 ?42 68 5
5 92 0 0 1 0 30 94 87 0 96 92 97 0 +40 20 5 0 0 -1 0 16 96 71 98 ?56 26 19 94 0
 0 1 0 30 97 88 0 26 94 20 0 +40 0 5 0 0 -1 0 16 26 72 84 ?50 10 96 97 0 0 1 0 3
0 20 89 0 10 97 7 0 +0 0 5 0 0 -1 0 81 1 84 116 83 26 0 0 67 81 99 0 17 50 0 53
 51 33 45 48 26 0 54 +0 15 53 77 0 51 100 0 0 17 33 0 53 50 35 28 27 34 0 0 -0 1
7 54 0 79 44 80 45 51 55 0 0 -0 15 79 45 0 77 101 0 0 17 44 0 79 77 54 43 46 49
 0 25 -0 17 80 0 79 54 77 21 42 75 0 0 -0 17 42 0 102 61 56 40 80 75 0 73 +0 15
 102 75 0 42 103 0 0 17 61 0 102 59 42 52 73 19 0 70 -0 17 56 0 102 42 59 21 35
 96 0 80 +0 17 59 0 102 56 61 11 31 60 0 0 -0 17 35 0 53 33 51 11 56 96 0 59 -0
 16 60 20 104 ?31 19 34 89 0 0 1 0 81 1 104 113 83 60 0 0 95 87 105 0 16 19 74 8
5 ?73 96 60 7 0 0 1 0 16 34 16 106 ?27 60 63 90 0 0 1 0 81 1 106 120 83 34 0 0 9
3 24 107 0 30 90 19 0 34 69 89 0 +40 0 5 0 1 0 0 30 69 14 0 63 76 90 0 +0 0 5 1
 0 0 0 30 76 9 0 68 0 69 0 +0 20 5 0 -1 0 0 80 255 1 83 108 109 9000 1 1 1 1 1 1
 1 1 0 FFFFTFTFFFFFFF3 0 81 1 93 119 83 55 0 0 85 106 110 0 81 1 24 121 83 10 0
 0 106 74 111 0 84 255 32 107 c5b086a20ca9f4b478b6852cf45e9c4a0 81 1 74 122 83 6
8 0 0 24 98 112 0 84 32 111 2e27cf9c92454b2746c51ae351822ff80 81 1 98 123 83 96
 0 0 74 113 114 0 84 32 112 986d31e50abdeb085402808897a48e820 81 1 113 124 83 10
3 0 115 98 116 117 0 84 32 114 80923a4f228e7e31ed4aa7fb191bcc550 14 255 103 76 1
15 ?71 100 102 5 118 -0 0 71 100 23 0 81 1 115 134 119 103 113 0 120 121 122 0 8
1 1 116 125 83 101 0 123 113 124 125 0 84 32 117 6f1f2eac718eb7d9c6facaec0fe2a96
60 14 101 42 123 ?0 71 79 5 126 -0 0 0 71 23 0 81 1 123 136 119 101 116 0 121 0
 127 0 81 1 124 126 83 100 0 120 116 128 129 0 84 32 125 e5df37343180a6dfb2173ef
b63f02f680 14 100 78 120 ?103 64 53 5 130 -0 0 103 64 23 0 81 1 120 133 119 100
 124 0 131 115 132 0 81 1 128 127 83 64 0 131 124 133 134 0 84 32 129 ad5a451e91
77fa5e9d5e165ea6049cc50 14 64 80 131 ?100 16 47 5 18 -0 0 100 16 23 0 81 1 131 1
32 119 64 128 0 135 120 136 0 81 1 133 128 83 71 0 121 128 137 138 0 84 32 134 1
5503592256eb26f9c296343863979d40 14 71 24 121 ?101 103 30 5 139 +0 0 101 103 23
 0 81 1 121 135 119 71 133 0 115 123 140 0 81 1 137 129 83 16 0 135 133 0 141 0
 84 32 138 9348405d0bdc483a13f3d296a1f8c3ac0 14 16 82 135 ?64 0 72 5 6 -0 0 64 0
 23 0 81 1 135 131 119 16 137 0 0 131 142 0 84 32 141 b477fa0a8bdb23a537ac15e556
8042720 80 1 119 0 143 8001 0 0 0 0 3 5 0 0 0 FFFFTFTFFFFFFF2 0 83 255 3 142 .59
6063172350652 .666666666666667 .686259250782025 0 79 255 15 143 SDL/TYSA_COLOUR0
 13 23 3 0 0 0 0 0 0 9 16 0 83 3 140 .596063172350652 .666666666666667 .68625925
0782025 0 50 139 25 0 71 0 126 0 +0 0 5 0 0 1 1 0 0 0 50 126 62 0 101 139 118 0
 +0 0 0 0 0 1 1 0 0 0 50 118 83 0 103 126 130 0 +40 20 5 0 -1 0 0 0 -1 0 50 130
 84 0 100 118 18 0 +40 0 5 -1 0 0 0 0 1 0 50 18 85 0 64 130 6 0 +0 0 5 0 1 0 0 0
 1 0 83 3 136 .596063172350652 .666666666666667 .686259250782025 0 83 3 132 .596
063172350652 .666666666666667 .686259250782025 0 83 3 127 .596063172350652 .6666
66666666667 .686259250782025 0 83 3 122 .596063172350652 .666666666666667 .68625
9250782025 0 81 1 85 118 83 19 0 0 81 93 144 0 84 32 110 3739072ab92fee4416e64e5
3b031dbb60 84 32 144 949d3ae5abc35a4b4ddd25beb9569fcb0 79 15 109 UGS/ObjectState
0 81 1 95 112 83 75 0 0 0 104 145 0 81 1 87 114 83 49 0 0 104 67 146 0 84 32 105
 39dfe8738aa18a9ad826d90e9c9555940 81 1 67 115 83 63 0 0 87 84 147 0 84 32 146 6
8c0c9f7cec1683cea7b9bc2ee726da30 84 32 147 b7fcbfc122c79845e3d70d31ac33a2820 84
 32 145 62e423daadec818ba1bb9675f7d971760 84 32 99 812d1427a4bdc090f95ea55255cac
0530 84 32 86 9e61cd6f1bf2d7304f93eafbb23244080 19 17 92 0 1 0 9 5 S0 0 74 4 CI1
6 index_map_offset0 0 1 dCCZ20 15 5 0 0 148 137 13 123 2 0 0 0 0 0 0 0 0 0 0 0 0
 0 0 0 0 81 2 148 111 149 1 0 13 0 0 150 151 0 81 1 13 130 152 1 148 2 0 0 153 0
 80 1 152 83 154 9000 0 0 0 0 3 5 0 0 0 FFTFFFFFFFFFFF1 0 82 255 1 153 9 0 79 7
 154 body_id0 80 2 149 155 156 8004 0 0 0 0 3 5 0 0 0 FFTFFFFFFFFFFF2 3 0 83 1 1
50 7830.64 0 84 8 151 Kg/Cu M 0 79 16 156 SDL/TYSA_DENSITY0 80 1 12 152 157 9000
 0 0 0 0 3 5 0 0 0 FFTFFFFFFFFFFF1 0 82 1 14 129 0 79 24 157 UG2/BODY_COLOR_ATTR
IBUTE0 1 0 
