**ABCDEFGHIJKLMNOPQRSTUVWXYZabcdefghijklmnopqrstuvwxyz**************************
**PARASOLID !"#$%&'()*+,-./:;<=>?@[\]^_`{|}~0123456789**************************
**PART1;
MC=unknown;
MC_MODEL=unknown;
MC_ID=unknown;
OS=unknown;
OS_RELEASE=unknown;
FRU=sdl_parasolid_customer_support;
APPL=parasolid_acceptance_tests;
SITE=unknown;
USER=unknown;
FORMAT=text;
GUISE=transmit;
KEY=/lore/granzb/albany/examples/LCM/SCOREC/Sim/annular_nat.x_t;
FILE=/lore/granzb/albany/examples/LCM/SCOREC/Sim/annular_nat.x_t;
DATE=unknown;
**PART2;
SCH=SCH_2700142_26105;
USFLD_SIZE=1;
**PART3;
**END_OF_HEADER*****************************************************************
T51 : TRANSMIT FILE created by modeller version 270014223 SCH_2700142_26105_1300
6196 1 12 30 CCCCCCCCCCCCCDI5 owner1040 0 CCCCCCCCCA13 boundary_mesh1006 0 A16 i
ndex_map_offset0 0 1 dA9 index_map82 0 A17 node_id_index_map82 0 A20 schema_embe
dding_map82 0 A5 child12 0 A14 lowest_node_id0 0 1 dZ1 486 2 3 0 0 0 0 1e3 1e-8
 0 0 0 1 0 1 1 4 5 6 7 8 9 10 0 0 0 0 0 0 0 0 81 255 1 2 486 11 1 12 0 0 0 13 0
 70 11 CI9 list_type0 0 1 uI10 notransmit0 0 1 lCCCDCCDI12 finger_index0 0 1 dI1
2 finger_block1012 0 CZ3 0 4 T1 0 0 6 20 1 14 14 0 13 255 4 188 0 1 0 15 0 0 16
 0 0 51 255 5 18 0 17 18 0 0 +0 0 0 0 0 1 3 1 0 0 0 30 255 6 347 0 9 19 0 0 --1
 0 0 0 0 1 0 29 255 7 344 0 10 20 0 -1 0 0 0 19 8 CCCCCCCA5 owner12 0 Z8 253 0 1
 16 0 21 V0 0 16 255 9 345 22 ?23 0 24 6 0 0 1 0 18 255 10 340 0 25 0 26 7 ?1 0
 17 255 25 0 27 28 29 10 30 31 0 23 +0 18 26 148 0 32 10 33 20 ?1 0 17 32 0 34 3
5 36 26 37 38 0 39 +0 18 33 144 0 36 26 40 41 ?1 0 29 20 149 0 26 41 7 0 3 0 0 2
9 41 147 0 33 42 20 0 3 .2 0 29 42 124 0 40 43 41 0 1 .2 0 18 40 120 0 44 33 45
 42 ?1 0 29 43 266 0 45 46 42 0 1 0 0 18 45 231 0 47 40 48 43 ?1 0 29 46 438 0 4
8 49 43 -3 0 .2 0 18 48 415 0 50 45 51 46 ?1 0 29 49 439 0 51 52 46 -3 0 0 0 18
 51 412 0 29 48 53 49 ?1 0 29 52 441 0 53 0 49 -1 0 .2 0 18 53 416 0 28 51 0 52
 ?1 0 17 28 0 27 50 25 53 23 9 0 54 -0 15 255 27 427 0 29 55 0 0 17 50 0 27 29 2
8 48 54 56 0 57 +0 17 23 0 58 47 59 10 28 9 0 60 +0 17 54 0 61 44 62 53 50 56 0
 59 -0 15 61 372 0 54 63 0 0 17 44 0 61 64 54 40 59 65 0 66 +0 17 62 0 61 54 64
 48 36 67 0 0 -0 16 56 385 68 ?50 69 31 70 0 0 1 0 17 59 0 58 23 66 53 44 65 0 0
 -0 15 58 135 0 59 71 0 0 17 66 0 58 59 47 40 72 24 0 73 -0 16 65 61 74 ?44 75 7
6 77 0 0 1 0 81 1 74 462 78 65 0 0 79 80 81 0 16 75 6 79 ?35 67 65 82 0 0 1 0 16
 76 65 80 ?60 65 38 83 0 0 1 0 31 255 77 87 0 65 83 82 0 +0 0 .2 0 0 -1 1 0 0 1
 0 31 83 88 0 76 84 77 0 +0 0 0 0 0 1 1 0 0 1 0 31 82 10 0 75 77 85 0 +0 0 0 0 0
 1 1 0 0 3 0 31 85 16 0 67 82 19 0 +0 0 .2 0 0 -1 1 0 0 3 0 16 67 12 86 ?36 24 7
5 85 0 0 1 0 30 19 136 0 24 85 6 0 -0 1 0 0 0 1 0 16 24 134 87 ?72 9 67 19 0 0 1
 0 81 1 87 313 78 24 0 0 0 88 89 0 17 72 0 90 91 73 45 66 24 0 0 +0 15 90 246 0
 37 15 0 0 17 91 0 90 37 72 26 92 93 0 0 -0 17 73 0 90 72 37 40 64 94 0 0 -0 17
 37 0 90 73 91 33 32 38 0 0 -0 17 64 0 61 62 44 33 73 94 0 37 +0 16 94 198 88 ?6
4 38 93 95 0 0 1 0 81 1 88 314 78 94 0 0 87 96 97 0 16 38 201 96 ?32 76 94 84 0
 0 1 0 16 93 204 98 ?92 94 69 99 0 0 1 0 30 95 258 0 94 99 84 0 +0 0 .2 0 1 0 0
 30 99 259 0 93 100 95 0 +0 0 0 0 -1 0 0 30 84 256 0 38 95 83 0 -0 3 0 0 0 1 0 3
0 100 431 0 69 70 99 0 --3 0 0 0 0 1 0 16 69 388 101 ?29 93 56 100 0 0 1 0 30 70
 432 0 56 102 100 0 +0 0 .2 -1 0 0 0 30 102 433 0 31 0 70 0 +0 0 0 1 0 0 0 16 31
 391 103 ?25 56 0 102 0 0 1 0 81 1 103 465 78 31 0 0 101 68 104 0 80 255 1 78 10
5 106 9000 1 1 1 1 1 1 1 1 0 FFFFTFTFFFFFFF3 0 81 1 101 464 78 69 0 0 80 103 107
 0 81 1 68 466 78 56 0 0 103 22 108 0 84 255 32 104 a3c53e873957242eba57a218cb29
4aac0 81 1 22 467 78 9 0 0 68 109 110 0 84 32 108 7e39a3187e5211a10533d5d9904dc6
610 81 1 109 468 78 111 0 112 22 113 114 0 84 32 110 65adfbc9e385f77a96a99281433
8b3c80 14 255 111 9 115 ?17 63 116 4 117 +0 0 17 63 21 0 81 1 112 478 118 111 10
9 115 119 120 121 0 81 1 113 469 78 17 0 120 109 122 123 0 84 32 114 c2fafe6dafd
630e07cf2762c3cb47f340 14 17 2 124 ?71 111 34 4 5 +0 0 71 111 21 0 81 1 120 480
 118 17 113 124 112 125 126 0 81 1 122 470 78 63 0 119 113 127 128 0 84 32 123 7
6e9a37da4c5d2b005601927ea15613d0 14 63 15 129 ?111 15 61 4 18 +0 0 111 15 21 0 8
1 1 119 476 118 63 122 129 130 112 131 0 81 1 127 471 78 71 0 125 122 132 133 0
 84 32 128 79f9ef8febe1e5201bdf69c74dc21bfd0 14 71 77 134 ?55 17 58 4 135 -0 0 5
5 17 21 0 81 1 125 482 118 71 127 134 120 136 137 0 81 1 132 472 78 55 0 136 127
 0 138 0 84 32 133 91e39db03a6d0f8e2b8a26f808407bd10 14 55 424 139 ?0 71 27 4 14
0 -0 0 0 71 21 0 81 1 136 484 118 55 132 139 125 0 141 0 84 32 138 9251f314ce874
62f2ae6a55a815f63290 80 1 118 142 143 8015 0 0 0 0 3 5 0 0 0 FFFFTFFFFFFFFF2 0 8
1 1 139 485 144 55 136 0 134 0 145 0 83 255 1 141 0 0 80 1 144 0 146 8001 0 0 0
 0 3 5 0 0 0 FFFFTFTFFFFFFF2 0 81 1 134 483 144 71 125 0 124 139 147 0 83 3 145
 .5960784 .6666667 .6862745 0 81 1 124 481 144 17 120 0 115 134 148 0 83 3 147 .
5960784 .6666667 .6862745 0 81 1 115 479 144 111 112 0 129 124 149 0 83 3 148 .5
960784 .6666667 .6862745 0 81 1 129 477 144 63 119 0 150 115 151 0 83 3 149 .596
0784 .6666667 .6862745 0 81 1 150 475 144 15 130 0 0 129 152 0 83 3 151 .5960784
 .6666667 .6862745 0 14 15 243 150 ?63 0 90 4 153 +0 0 63 0 21 0 81 1 130 474 11
8 15 154 150 0 119 155 0 83 3 152 .5960784 .6666667 .6862745 0 81 1 154 325 78 1
5 0 130 98 86 156 0 83 1 155 0 0 81 1 98 319 78 93 0 0 96 154 157 0 81 1 86 460
 78 67 0 0 154 79 158 0 84 32 156 b6da896f71b141170377a0db2dacd2320 81 1 79 461
 78 75 0 0 86 74 159 0 84 32 158 84332bd0967396d21e3d433db553ca360 84 32 159 baa
3249dbda7a47c81efbbe59b50f3120 81 1 96 316 78 38 0 0 88 98 160 0 84 32 157 54b9e
2aca7fcadfcadf7cd5e0e4de59e0 84 32 160 15361b465c4047928129c8c0aef3dd860 50 255
 153 255 0 15 140 135 0 +0 0 0 1 0 0 0 0 -1 0 13 21 254 0 0 0 0 0 0 8 15 0 50 14
0 430 0 55 0 153 0 +0 0 0 0 1 0 0 0 1 0 51 135 84 0 71 153 117 0 +0 0 0 0 0 1 1
 1 0 0 0 50 117 11 0 111 135 18 0 +0 0 0 0 0 -1 -1 0 0 0 50 18 17 0 63 117 5 0 +
0 0 .2 0 0 1 1 0 0 0 79 255 15 146 SDL/TYSA_COLOUR0 79 21 143 SDL/TYSA_TRANSLUCE
NCY0 83 1 137 0 0 83 1 131 0 0 83 1 126 0 0 15 34 362 0 57 17 0 0 17 57 0 34 36
 35 48 29 69 0 62 -0 17 36 0 34 32 57 33 62 67 0 64 +0 17 35 0 34 57 32 51 39 75
 0 0 +0 17 29 0 27 25 50 51 57 69 0 30 +0 17 30 0 116 39 60 51 25 31 0 35 -0 15
 116 367 0 30 111 0 0 17 39 0 116 92 30 26 35 75 0 91 -0 17 60 0 116 30 92 10 47
 76 0 0 +0 17 92 0 116 60 39 45 91 93 0 72 +0 17 47 0 58 66 23 45 60 76 0 92 -0
 83 1 121 0 0 81 1 80 463 78 76 0 0 74 101 161 0 84 32 107 6b9870abbe5ff6aca63fa
c90cf62c3130 84 32 161 d9cb40a2682673bfe74b5df74509bf1d0 79 15 106 UGS/ObjectSta
te0 84 32 97 3c779312d4e42b82a7304c36a4e3a7b20 84 32 89 b6b07392d7081b794e3d34f6
358699c00 84 32 81 42648296878b3cebae5355ab9289366e0 19 16 5 0 1 0 8 4 S0 0 74 4
 CI16 index_map_offset0 0 1 dCCZ20 14 6 0 0 132 162 12 136 139 2 0 0 0 0 0 0 0 0
 0 0 0 0 0 0 0 81 2 162 459 163 1 0 12 0 0 164 165 0 81 1 12 473 166 1 162 2 0 0
 167 0 80 1 166 78 168 9000 0 0 0 0 3 5 0 0 0 FFTFFFFFFFFFFF1 0 82 255 1 167 9 0
 79 7 168 body_id0 80 2 163 169 170 8004 0 0 0 0 3 5 0 0 0 FFTFFFFFFFFFFF2 3 0 8
3 1 164 7830.64 0 84 8 165 Kg/Cu M 0 79 16 170 SDL/TYSA_DENSITY0 80 1 11 166 171
 9000 0 0 0 0 3 5 0 0 0 FFTFFFFFFFFFFF1 0 82 1 13 129 0 79 24 171 UG2/BODY_COLOR
_ATTRIBUTE0 1 0 
