2100 0 1 0           
10 Cubit 13.2 17 ACIS 21.0.1 Linux 24 Thu Dec 19 14:04:47 2013 
1 9.9999999999999995e-07 1e-10 
body $1 -1 -1 $-1 $2 $-1 $-1 T -15 -4 -4 15 4 4 #
integer_attrib-name_attrib-gen-attrib $-1 -1 $-1 $-1 $0 2 1 1 1 1 1 1 1 1 1 1 1 1 1 0 1 1 1 @8 CUBIT_ID 1 #
lump $3 -1 -1 $-1 $-1 $4 $0 T -15 -4 -4 15 4 4 #
integer_attrib-name_attrib-gen-attrib $-1 -1 $-1 $-1 $2 2 1 1 1 1 1 1 1 1 1 1 1 1 1 0 1 1 1 @8 CUBIT_ID 1 #
shell $-1 -1 -1 $-1 $-1 $-1 $5 $-1 $2 T -15 -4 -4 15 4 4 #
face $6 -1 -1 $-1 $7 $8 $4 $-1 $9 reversed single T -9.6500000000000004 -0.55000000000000004 -4 -9.1500000000000004 -0.049999999999999989 4 F #
integer_attrib-name_attrib-gen-attrib $-1 -1 $-1 $-1 $5 2 1 1 1 1 1 1 1 1 1 1 1 1 1 0 1 1 1 @8 CUBIT_ID 43 #
face $10 -1 -1 $-1 $11 $12 $4 $-1 $13 reversed single T -9.6500000000000004 0.049999999999999989 -4 -9.1500000000000004 0.55000000000000004 4 F #
loop $-1 -1 -1 $-1 $14 $15 $5 T -9.6500000000000004 -0.55000000000000004 -4 -9.1500000000000004 -0.049999999999999989 -4 unknown #
cone-surface $-1 -1 -1 $-1 -9.4000000000000004 -0.29999999999999999 -0.5 0 0 1 0.25 0 0 1 I I 0 1 0.25 forward I I I I #
integer_attrib-name_attrib-gen-attrib $-1 -1 $-1 $-1 $7 2 1 1 1 1 1 1 1 1 1 1 1 1 1 0 1 1 1 @8 CUBIT_ID 37 #
face $16 -1 -1 $-1 $17 $18 $4 $-1 $19 reversed single T -10.85 -0.55000000000000004 -4 -10.35 -0.049999999999999989 4 F #
loop $-1 -1 -1 $-1 $20 $21 $7 T -9.6500000000000004 0.049999999999999989 -4 -9.1500000000000004 0.55000000000000004 -4 unknown #
cone-surface $-1 -1 -1 $-1 -9.4000000000000004 0.29999999999999999 -0.5 0 0 1 0.25 0 0 1 I I 0 1 0.25 forward I I I I #
loop $-1 -1 -1 $-1 $-1 $22 $5 T -9.6500000000000004 -0.55000000000000004 4 -9.1500000000000004 -0.049999999999999989 4 unknown #
coedge $-1 -1 -1 $-1 $15 $15 $23 $24 reversed $8 $-1 #
integer_attrib-name_attrib-gen-attrib $-1 -1 $-1 $-1 $11 2 1 1 1 1 1 1 1 1 1 1 1 1 1 0 1 1 1 @8 CUBIT_ID 31 #
face $25 -1 -1 $-1 $26 $27 $4 $-1 $28 reversed single T -10.85 0.049999999999999989 -4 -10.35 0.55000000000000004 4 F #
loop $-1 -1 -1 $-1 $29 $30 $11 T -10.85 -0.55000000000000004 -4 -10.35 -0.049999999999999989 -4 unknown #
cone-surface $-1 -1 -1 $-1 -10.6 -0.29999999999999999 -0.5 0 0 1 0.25 0 0 1 I I 0 1 0.25 forward I I I I #
loop $-1 -1 -1 $-1 $-1 $31 $7 T -9.6500000000000004 0.049999999999999989 4 -9.1500000000000004 0.55000000000000004 4 unknown #
coedge $-1 -1 -1 $-1 $21 $21 $32 $33 reversed $12 $-1 #
coedge $-1 -1 -1 $-1 $22 $22 $34 $35 reversed $14 $-1 #
coedge $-1 -1 -1 $-1 $23 $23 $15 $24 forward $36 $-1 #
edge $37 -1 -1 $-1 $38 -3.1415926535897931 $38 3.1415926535897931 $23 $39 forward @7 unknown T -9.6500000000000004 -0.55000000000000004 -4 -9.1500000000000004 -0.049999999999999989 -4 #
integer_attrib-name_attrib-gen-attrib $-1 -1 $-1 $-1 $17 2 1 1 1 1 1 1 1 1 1 1 1 1 1 0 1 1 1 @8 CUBIT_ID 25 #
face $40 -1 -1 $-1 $41 $42 $4 $-1 $43 reversed single T -10.25 -0.84999999999999998 -4 -9.75 -0.34999999999999998 4 F #
loop $-1 -1 -1 $-1 $44 $45 $17 T -10.85 0.049999999999999989 -4 -10.35 0.55000000000000004 -4 unknown #
cone-surface $-1 -1 -1 $-1 -10.6 0.29999999999999999 -0.5 0 0 1 0.25 0 0 1 I I 0 1 0.25 forward I I I I #
loop $-1 -1 -1 $-1 $-1 $46 $11 T -10.85 -0.55000000000000004 4 -10.35 -0.049999999999999989 4 unknown #
coedge $-1 -1 -1 $-1 $30 $30 $47 $48 reversed $18 $-1 #
coedge $-1 -1 -1 $-1 $31 $31 $49 $50 reversed $20 $-1 #
coedge $-1 -1 -1 $-1 $32 $32 $21 $33 forward $51 $-1 #
edge $52 -1 -1 $-1 $53 -3.1415926535897931 $53 3.1415926535897931 $32 $54 forward @7 unknown T -9.6500000000000004 0.049999999999999989 -4 -9.1500000000000004 0.55000000000000004 -4 #
coedge $-1 -1 -1 $-1 $34 $34 $22 $35 forward $55 $-1 #
edge $56 -1 -1 $-1 $57 -3.1415926535897931 $57 3.1415926535897931 $34 $58 forward @7 unknown T -9.6500000000000004 -0.55000000000000004 4 -9.1500000000000004 -0.049999999999999989 4 #
loop $-1 -1 -1 $-1 $51 $23 $59 T -9.6500000000000004 -0.55000000000000004 -4 -9.1500000000000004 -0.049999999999999989 -4 unknown #
integer_attrib-name_attrib-gen-attrib $-1 -1 $-1 $-1 $24 2 1 1 1 1 1 1 1 1 1 1 1 1 1 0 1 1 1 @8 CUBIT_ID 37 #
vertex $60 -1 -1 $-1 $24 $61 #
ellipse-curve $-1 -1 -1 $-1 -9.4000000000000004 -0.29999999999999999 -4 0 0 1 0.25 0 0 1 I I #
integer_attrib-name_attrib-gen-attrib $-1 -1 $-1 $-1 $26 2 1 1 1 1 1 1 1 1 1 1 1 1 1 0 1 1 1 @8 CUBIT_ID 19 #
face $62 -1 -1 $-1 $63 $64 $4 $-1 $65 reversed single T -10.25 0.34999999999999998 -4 -9.75 0.84999999999999998 4 F #
loop $-1 -1 -1 $-1 $66 $67 $26 T -10.25 -0.84999999999999998 -4 -9.75 -0.34999999999999998 -4 unknown #
cone-surface $-1 -1 -1 $-1 -10 -0.59999999999999998 -0.5 0 0 1 0.25 0 0 1 I I 0 1 0.25 forward I I I I #
loop $-1 -1 -1 $-1 $-1 $68 $17 T -10.85 0.049999999999999989 4 -10.35 0.55000000000000004 4 unknown #
coedge $-1 -1 -1 $-1 $45 $45 $69 $70 reversed $27 $-1 #
coedge $-1 -1 -1 $-1 $46 $46 $71 $72 reversed $29 $-1 #
coedge $-1 -1 -1 $-1 $47 $47 $30 $48 forward $73 $-1 #
edge $74 -1 -1 $-1 $75 -3.1415926535897931 $75 3.1415926535897931 $47 $76 forward @7 unknown T -10.85 -0.55000000000000004 -4 -10.35 -0.049999999999999989 -4 #
coedge $-1 -1 -1 $-1 $49 $49 $31 $50 forward $77 $-1 #
edge $78 -1 -1 $-1 $79 -3.1415926535897931 $79 3.1415926535897931 $49 $80 forward @7 unknown T -9.6500000000000004 0.049999999999999989 4 -9.1500000000000004 0.55000000000000004 4 #
loop $-1 -1 -1 $-1 $73 $32 $59 T -9.6500000000000004 0.049999999999999989 -4 -9.1500000000000004 0.55000000000000004 -4 unknown #
integer_attrib-name_attrib-gen-attrib $-1 -1 $-1 $-1 $33 2 1 1 1 1 1 1 1 1 1 1 1 1 1 0 1 1 1 @8 CUBIT_ID 33 #
vertex $81 -1 -1 $-1 $33 $82 #
ellipse-curve $-1 -1 -1 $-1 -9.4000000000000004 0.29999999999999999 -4 0 0 1 0.25 0 0 1 I I #
loop $-1 -1 -1 $-1 $77 $34 $83 T -9.6500000000000004 -0.55000000000000004 4 -9.1500000000000004 -0.049999999999999989 4 unknown #
integer_attrib-name_attrib-gen-attrib $-1 -1 $-1 $-1 $35 2 1 1 1 1 1 1 1 1 1 1 1 1 1 0 1 1 1 @8 CUBIT_ID 38 #
vertex $84 -1 -1 $-1 $35 $85 #
ellipse-curve $-1 -1 -1 $-1 -9.4000000000000004 -0.29999999999999999 4 -0 -0 -1 0.25 0 0 1 I I #
face $86 -1 -1 $-1 $87 $36 $4 $-1 $88 reversed single T -15 -4 -4 15 4 -4 F #
integer_attrib-name_attrib-gen-attrib $-1 -1 $-1 $-1 $38 2 1 1 1 1 1 1 1 1 1 1 1 1 1 0 1 1 1 @8 CUBIT_ID 33 #
point $-1 -1 -1 $-1 -9.6500000000000004 -0.30000000000000004 -4 #
integer_attrib-name_attrib-gen-attrib $-1 -1 $-1 $-1 $41 2 1 1 1 1 1 1 1 1 1 1 1 1 1 0 1 1 1 @8 CUBIT_ID 13 #
face $89 -1 -1 $-1 $83 $90 $4 $-1 $91 reversed single T -10.25 -0.25 -4 -9.75 0.25 4 F #
loop $-1 -1 -1 $-1 $92 $93 $41 T -10.25 0.34999999999999998 -4 -9.75 0.84999999999999998 -4 unknown #
cone-surface $-1 -1 -1 $-1 -10 0.59999999999999998 -0.5 0 0 1 0.25 0 0 1 I I 0 1 0.25 forward I I I I #
loop $-1 -1 -1 $-1 $-1 $94 $26 T -10.25 -0.84999999999999998 4 -9.75 -0.34999999999999998 4 unknown #
coedge $-1 -1 -1 $-1 $67 $67 $95 $96 reversed $42 $-1 #
coedge $-1 -1 -1 $-1 $68 $68 $97 $98 reversed $44 $-1 #
coedge $-1 -1 -1 $-1 $69 $69 $45 $70 forward $99 $-1 #
edge $100 -1 -1 $-1 $101 -3.1415926535897931 $101 3.1415926535897931 $69 $102 forward @7 unknown T -10.85 0.049999999999999989 -4 -10.35 0.55000000000000004 -4 #
coedge $-1 -1 -1 $-1 $71 $71 $46 $72 forward $103 $-1 #
edge $104 -1 -1 $-1 $105 -3.1415926535897931 $105 3.1415926535897931 $71 $106 forward @7 unknown T -10.85 -0.55000000000000004 4 -10.35 -0.049999999999999989 4 #
loop $-1 -1 -1 $-1 $99 $47 $59 T -10.85 -0.55000000000000004 -4 -10.35 -0.049999999999999989 -4 unknown #
integer_attrib-name_attrib-gen-attrib $-1 -1 $-1 $-1 $48 2 1 1 1 1 1 1 1 1 1 1 1 1 1 0 1 1 1 @8 CUBIT_ID 29 #
vertex $107 -1 -1 $-1 $48 $108 #
ellipse-curve $-1 -1 -1 $-1 -10.6 -0.29999999999999999 -4 0 0 1 0.25 0 0 1 I I #
loop $-1 -1 -1 $-1 $103 $49 $83 T -9.6500000000000004 0.049999999999999989 4 -9.1500000000000004 0.55000000000000004 4 unknown #
integer_attrib-name_attrib-gen-attrib $-1 -1 $-1 $-1 $50 2 1 1 1 1 1 1 1 1 1 1 1 1 1 0 1 1 1 @8 CUBIT_ID 34 #
vertex $109 -1 -1 $-1 $50 $110 #
ellipse-curve $-1 -1 -1 $-1 -9.4000000000000004 0.29999999999999999 4 -0 -0 -1 0.25 0 0 1 I I #
integer_attrib-name_attrib-gen-attrib $-1 -1 $-1 $-1 $53 2 1 1 1 1 1 1 1 1 1 1 1 1 1 0 1 1 1 @8 CUBIT_ID 29 #
point $-1 -1 -1 $-1 -9.6500000000000004 0.29999999999999993 -4 #
face $111 -1 -1 $-1 $59 $55 $4 $-1 $112 forward single T -15 -4 4 15 4 4 F #
integer_attrib-name_attrib-gen-attrib $-1 -1 $-1 $-1 $57 2 1 1 1 1 1 1 1 1 1 1 1 1 1 0 1 1 1 @8 CUBIT_ID 34 #
point $-1 -1 -1 $-1 -9.6500000000000004 -0.29999999999999993 4 #
integer_attrib-name_attrib-gen-attrib $-1 -1 $-1 $-1 $59 2 1 1 1 1 1 1 1 1 1 1 1 1 1 0 1 1 1 @8 CUBIT_ID 45 #
face $113 -1 -1 $-1 $114 $115 $4 $-1 $116 reversed single T -15 -4 -4 15 -4 4 F #
plane-surface $-1 -1 -1 $-1 0 0 -4 0 0 1 1 0 0 forward_v I I I I #
integer_attrib-name_attrib-gen-attrib $-1 -1 $-1 $-1 $63 2 1 1 1 1 1 1 1 1 1 1 1 1 1 0 1 1 1 @8 CUBIT_ID 7 #
loop $-1 -1 -1 $-1 $117 $118 $63 T -10.25 -0.25 -4 -9.75 0.25 -4 unknown #
cone-surface $-1 -1 -1 $-1 -10 0 -0.5 0 0 1 0.25 0 0 1 I I 0 1 0.25 forward I I I I #
loop $-1 -1 -1 $-1 $-1 $119 $41 T -10.25 0.34999999999999998 4 -9.75 0.84999999999999998 4 unknown #
coedge $-1 -1 -1 $-1 $93 $93 $120 $121 reversed $64 $-1 #
coedge $-1 -1 -1 $-1 $94 $94 $122 $123 reversed $66 $-1 #
coedge $-1 -1 -1 $-1 $95 $95 $67 $96 forward $124 $-1 #
edge $125 -1 -1 $-1 $126 -3.1415926535897931 $126 3.1415926535897931 $95 $127 forward @7 unknown T -10.25 -0.84999999999999998 -4 -9.75 -0.34999999999999998 -4 #
coedge $-1 -1 -1 $-1 $97 $97 $68 $98 forward $128 $-1 #
edge $129 -1 -1 $-1 $130 -3.1415926535897931 $130 3.1415926535897931 $97 $131 forward @7 unknown T -10.85 0.049999999999999989 4 -10.35 0.55000000000000004 4 #
loop $-1 -1 -1 $-1 $124 $69 $59 T -10.85 0.049999999999999989 -4 -10.35 0.55000000000000004 -4 unknown #
integer_attrib-name_attrib-gen-attrib $-1 -1 $-1 $-1 $70 2 1 1 1 1 1 1 1 1 1 1 1 1 1 0 1 1 1 @8 CUBIT_ID 25 #
vertex $132 -1 -1 $-1 $70 $133 #
ellipse-curve $-1 -1 -1 $-1 -10.6 0.29999999999999999 -4 0 0 1 0.25 0 0 1 I I #
loop $-1 -1 -1 $-1 $128 $71 $83 T -10.85 -0.55000000000000004 4 -10.35 -0.049999999999999989 4 unknown #
integer_attrib-name_attrib-gen-attrib $-1 -1 $-1 $-1 $72 2 1 1 1 1 1 1 1 1 1 1 1 1 1 0 1 1 1 @8 CUBIT_ID 30 #
vertex $134 -1 -1 $-1 $72 $135 #
ellipse-curve $-1 -1 -1 $-1 -10.6 -0.29999999999999999 4 -0 -0 -1 0.25 0 0 1 I I #
integer_attrib-name_attrib-gen-attrib $-1 -1 $-1 $-1 $75 2 1 1 1 1 1 1 1 1 1 1 1 1 1 0 1 1 1 @8 CUBIT_ID 25 #
point $-1 -1 -1 $-1 -10.85 -0.30000000000000004 -4 #
integer_attrib-name_attrib-gen-attrib $-1 -1 $-1 $-1 $79 2 1 1 1 1 1 1 1 1 1 1 1 1 1 0 1 1 1 @8 CUBIT_ID 30 #
point $-1 -1 -1 $-1 -9.6500000000000004 0.30000000000000004 4 #
integer_attrib-name_attrib-gen-attrib $-1 -1 $-1 $-1 $83 2 1 1 1 1 1 1 1 1 1 1 1 1 1 0 1 1 1 @8 CUBIT_ID 44 #
plane-surface $-1 -1 -1 $-1 0 0 4 0 0 1 1 0 0 forward_v I I I I #
integer_attrib-name_attrib-gen-attrib $-1 -1 $-1 $-1 $87 2 1 1 1 1 1 1 1 1 1 1 1 1 1 0 1 1 1 @8 CUBIT_ID 3 #
face $136 -1 -1 $-1 $137 $138 $4 $-1 $139 reversed single T -15 -4 -4 -15 4 4 F #
loop $-1 -1 -1 $-1 $-1 $140 $87 T -15 -4 -4 15 -4 4 unknown #
plane-surface $-1 -1 -1 $-1 0 -4 0 0 1 -0 -0 0 1 forward_v I I I I #
loop $-1 -1 -1 $-1 $-1 $141 $63 T -10.25 -0.25 4 -9.75 0.25 4 unknown #
coedge $-1 -1 -1 $-1 $118 $118 $142 $143 reversed $90 $-1 #
coedge $-1 -1 -1 $-1 $119 $119 $144 $145 reversed $92 $-1 #
coedge $-1 -1 -1 $-1 $120 $120 $93 $121 forward $146 $-1 #
edge $147 -1 -1 $-1 $148 -3.1415926535897931 $148 3.1415926535897931 $120 $149 forward @7 unknown T -10.25 0.34999999999999998 -4 -9.75 0.84999999999999998 -4 #
coedge $-1 -1 -1 $-1 $122 $122 $94 $123 forward $150 $-1 #
edge $151 -1 -1 $-1 $152 -3.1415926535897931 $152 3.1415926535897931 $122 $153 forward @7 unknown T -10.25 -0.84999999999999998 4 -9.75 -0.34999999999999998 4 #
loop $-1 -1 -1 $-1 $146 $95 $59 T -10.25 -0.84999999999999998 -4 -9.75 -0.34999999999999998 -4 unknown #
integer_attrib-name_attrib-gen-attrib $-1 -1 $-1 $-1 $96 2 1 1 1 1 1 1 1 1 1 1 1 1 1 0 1 1 1 @8 CUBIT_ID 21 #
vertex $154 -1 -1 $-1 $96 $155 #
ellipse-curve $-1 -1 -1 $-1 -10 -0.59999999999999998 -4 0 0 1 0.25 0 0 1 I I #
loop $-1 -1 -1 $-1 $150 $97 $83 T -10.85 0.049999999999999989 4 -10.35 0.55000000000000004 4 unknown #
integer_attrib-name_attrib-gen-attrib $-1 -1 $-1 $-1 $98 2 1 1 1 1 1 1 1 1 1 1 1 1 1 0 1 1 1 @8 CUBIT_ID 26 #
vertex $156 -1 -1 $-1 $98 $157 #
ellipse-curve $-1 -1 -1 $-1 -10.6 0.29999999999999999 4 -0 -0 -1 0.25 0 0 1 I I #
integer_attrib-name_attrib-gen-attrib $-1 -1 $-1 $-1 $101 2 1 1 1 1 1 1 1 1 1 1 1 1 1 0 1 1 1 @8 CUBIT_ID 21 #
point $-1 -1 -1 $-1 -10.85 0.29999999999999993 -4 #
integer_attrib-name_attrib-gen-attrib $-1 -1 $-1 $-1 $105 2 1 1 1 1 1 1 1 1 1 1 1 1 1 0 1 1 1 @8 CUBIT_ID 26 #
point $-1 -1 -1 $-1 -10.85 -0.29999999999999993 4 #
integer_attrib-name_attrib-gen-attrib $-1 -1 $-1 $-1 $114 2 1 1 1 1 1 1 1 1 1 1 1 1 1 0 1 1 1 @8 CUBIT_ID 4 #
face $158 -1 -1 $-1 $159 $160 $4 $-1 $161 reversed single T -15 4 -4 15 4 4 F #
loop $-1 -1 -1 $-1 $-1 $162 $114 T -15 -4 -4 -15 4 4 unknown #
plane-surface $-1 -1 -1 $-1 -15 0 0 1 0 0 0 0 -1 forward_v I I I I #
coedge $-1 -1 -1 $-1 $163 $164 $165 $166 forward $115 $-1 #
coedge $-1 -1 -1 $-1 $141 $141 $167 $168 reversed $117 $-1 #
coedge $-1 -1 -1 $-1 $142 $142 $118 $143 forward $169 $-1 #
edge $170 -1 -1 $-1 $171 -3.1415926535897931 $171 3.1415926535897931 $142 $172 forward @7 unknown T -10.25 -0.25 -4 -9.75 0.25 -4 #
coedge $-1 -1 -1 $-1 $144 $144 $119 $145 forward $173 $-1 #
edge $174 -1 -1 $-1 $175 -3.1415926535897931 $175 3.1415926535897931 $144 $176 forward @7 unknown T -10.25 0.34999999999999998 4 -9.75 0.84999999999999998 4 #
loop $-1 -1 -1 $-1 $169 $120 $59 T -10.25 0.34999999999999998 -4 -9.75 0.84999999999999998 -4 unknown #
integer_attrib-name_attrib-gen-attrib $-1 -1 $-1 $-1 $121 2 1 1 1 1 1 1 1 1 1 1 1 1 1 0 1 1 1 @8 CUBIT_ID 17 #
vertex $177 -1 -1 $-1 $121 $178 #
ellipse-curve $-1 -1 -1 $-1 -10 0.59999999999999998 -4 0 0 1 0.25 0 0 1 I I #
loop $-1 -1 -1 $-1 $173 $122 $83 T -10.25 -0.84999999999999998 4 -9.75 -0.34999999999999998 4 unknown #
integer_attrib-name_attrib-gen-attrib $-1 -1 $-1 $-1 $123 2 1 1 1 1 1 1 1 1 1 1 1 1 1 0 1 1 1 @8 CUBIT_ID 22 #
vertex $179 -1 -1 $-1 $123 $180 #
ellipse-curve $-1 -1 -1 $-1 -10 -0.59999999999999998 4 -0 -0 -1 0.25 0 0 1 I I #
integer_attrib-name_attrib-gen-attrib $-1 -1 $-1 $-1 $126 2 1 1 1 1 1 1 1 1 1 1 1 1 1 0 1 1 1 @8 CUBIT_ID 17 #
point $-1 -1 -1 $-1 -10.25 -0.59999999999999998 -4 #
integer_attrib-name_attrib-gen-attrib $-1 -1 $-1 $-1 $130 2 1 1 1 1 1 1 1 1 1 1 1 1 1 0 1 1 1 @8 CUBIT_ID 22 #
point $-1 -1 -1 $-1 -10.85 0.30000000000000004 4 #
integer_attrib-name_attrib-gen-attrib $-1 -1 $-1 $-1 $137 2 1 1 1 1 1 1 1 1 1 1 1 1 1 0 1 1 1 @8 CUBIT_ID 5 #
face $181 -1 -1 $-1 $-1 $182 $4 $-1 $183 reversed single T 15 -4 -4 15 4 4 F #
loop $-1 -1 -1 $-1 $-1 $184 $137 T -15 4 -4 15 4 4 unknown #
plane-surface $-1 -1 -1 $-1 0 4 0 0 -1 0 0 0 -1 forward_v I I I I #
coedge $-1 -1 -1 $-1 $185 $186 $187 $188 forward $138 $-1 #
coedge $-1 -1 -1 $-1 $189 $140 $190 $191 reversed $115 $-1 #
coedge $-1 -1 -1 $-1 $140 $189 $192 $193 reversed $115 $-1 #
coedge $-1 -1 -1 $-1 $186 $185 $140 $166 reversed $138 $-1 #
edge $194 -1 -1 $-1 $195 -4 $196 4 $165 $197 forward @7 unknown T -15 -4 -4 -15 -4 4 #
coedge $-1 -1 -1 $-1 $167 $167 $141 $168 forward $198 $-1 #
edge $199 -1 -1 $-1 $200 -3.1415926535897931 $200 3.1415926535897931 $167 $201 forward @7 unknown T -10.25 -0.25 4 -9.75 0.25 4 #
loop $-1 -1 -1 $-1 $202 $142 $59 T -10.25 -0.25 -4 -9.75 0.25 -4 unknown #
integer_attrib-name_attrib-gen-attrib $-1 -1 $-1 $-1 $143 2 1 1 1 1 1 1 1 1 1 1 1 1 1 0 1 1 1 @8 CUBIT_ID 13 #
vertex $203 -1 -1 $-1 $143 $204 #
ellipse-curve $-1 -1 -1 $-1 -10 0 -4 0 0 1 0.25 0 0 1 I I #
loop $-1 -1 -1 $-1 $198 $144 $83 T -10.25 0.34999999999999998 4 -9.75 0.84999999999999998 4 unknown #
integer_attrib-name_attrib-gen-attrib $-1 -1 $-1 $-1 $145 2 1 1 1 1 1 1 1 1 1 1 1 1 1 0 1 1 1 @8 CUBIT_ID 18 #
vertex $205 -1 -1 $-1 $145 $206 #
ellipse-curve $-1 -1 -1 $-1 -10 0.59999999999999998 4 -0 -0 -1 0.25 0 0 1 I I #
integer_attrib-name_attrib-gen-attrib $-1 -1 $-1 $-1 $148 2 1 1 1 1 1 1 1 1 1 1 1 1 1 0 1 1 1 @8 CUBIT_ID 13 #
point $-1 -1 -1 $-1 -10.25 0.59999999999999998 -4 #
integer_attrib-name_attrib-gen-attrib $-1 -1 $-1 $-1 $152 2 1 1 1 1 1 1 1 1 1 1 1 1 1 0 1 1 1 @8 CUBIT_ID 18 #
point $-1 -1 -1 $-1 -10.25 -0.59999999999999998 4 #
integer_attrib-name_attrib-gen-attrib $-1 -1 $-1 $-1 $159 2 1 1 1 1 1 1 1 1 1 1 1 1 1 0 1 1 1 @8 CUBIT_ID 6 #
loop $-1 -1 -1 $-1 $-1 $207 $159 T 15 -4 -4 15 4 4 unknown #
plane-surface $-1 -1 -1 $-1 15 0 0 -1 0 0 0 -0 1 forward_v I I I I #
coedge $-1 -1 -1 $-1 $208 $209 $210 $211 forward $160 $-1 #
coedge $-1 -1 -1 $-1 $165 $162 $212 $213 reversed $138 $-1 #
coedge $-1 -1 -1 $-1 $162 $165 $214 $215 reversed $138 $-1 #
coedge $-1 -1 -1 $-1 $209 $208 $162 $188 reversed $160 $-1 #
edge $216 -1 -1 $-1 $217 -4 $218 4 $187 $219 forward @7 unknown T -15 4 -4 -15 4 4 #
coedge $-1 -1 -1 $-1 $164 $163 $207 $220 reversed $115 $-1 #
coedge $-1 -1 -1 $-1 $212 $221 $163 $191 forward $202 $-1 #
edge $222 -1 -1 $-1 $223 -15 $196 15 $163 $224 forward @7 unknown T -15 -4 -4 15 -4 -4 #
coedge $-1 -1 -1 $-1 $225 $214 $164 $193 forward $226 $-1 #
edge $227 -1 -1 $-1 $195 -15 $228 15 $164 $229 forward @7 unknown T -15 -4 4 15 -4 4 #
integer_attrib-name_attrib-gen-attrib $-1 -1 $-1 $-1 $166 2 1 1 1 1 1 1 1 1 1 1 1 1 1 0 1 1 1 @8 CUBIT_ID 9 #
vertex $230 -1 -1 $-1 $215 $231 #
vertex $232 -1 -1 $-1 $213 $233 #
straight-curve $-1 -1 -1 $-1 -15 -4 0 0 0 -1 I I #
loop $-1 -1 -1 $-1 $226 $167 $83 T -10.25 -0.25 4 -9.75 0.25 4 unknown #
integer_attrib-name_attrib-gen-attrib $-1 -1 $-1 $-1 $168 2 1 1 1 1 1 1 1 1 1 1 1 1 1 0 1 1 1 @8 CUBIT_ID 14 #
vertex $234 -1 -1 $-1 $168 $235 #
ellipse-curve $-1 -1 -1 $-1 -10 0 4 -0 -0 -1 0.25 0 0 1 I I #
loop $-1 -1 -1 $-1 $-1 $221 $59 T -15 -4 -4 15 4 -4 unknown #
integer_attrib-name_attrib-gen-attrib $-1 -1 $-1 $-1 $171 2 1 1 1 1 1 1 1 1 1 1 1 1 1 0 1 1 1 @8 CUBIT_ID 9 #
point $-1 -1 -1 $-1 -10.25 -3.0616169978683824e-17 -4 #
integer_attrib-name_attrib-gen-attrib $-1 -1 $-1 $-1 $175 2 1 1 1 1 1 1 1 1 1 1 1 1 1 0 1 1 1 @8 CUBIT_ID 14 #
point $-1 -1 -1 $-1 -10.25 0.59999999999999998 4 #
coedge $-1 -1 -1 $-1 $236 $237 $189 $220 forward $182 $-1 #
coedge $-1 -1 -1 $-1 $187 $184 $238 $239 reversed $160 $-1 #
coedge $-1 -1 -1 $-1 $184 $187 $240 $241 reversed $160 $-1 #
coedge $-1 -1 -1 $-1 $237 $236 $184 $211 reversed $182 $-1 #
edge $242 -1 -1 $-1 $243 -4 $244 4 $210 $245 forward @7 unknown T 15 4 -4 15 4 4 #
coedge $-1 -1 -1 $-1 $238 $190 $185 $213 forward $202 $-1 #
edge $246 -1 -1 $-1 $196 -4 $218 4 $185 $247 forward @7 unknown T -15 -4 -4 -15 4 -4 #
coedge $-1 -1 -1 $-1 $192 $240 $186 $215 forward $226 $-1 #
edge $248 -1 -1 $-1 $217 -4 $195 4 $186 $249 forward @7 unknown T -15 -4 4 -15 4 4 #
integer_attrib-name_attrib-gen-attrib $-1 -1 $-1 $-1 $188 2 1 1 1 1 1 1 1 1 1 1 1 1 1 0 1 1 1 @8 CUBIT_ID 11 #
vertex $250 -1 -1 $-1 $241 $251 #
vertex $252 -1 -1 $-1 $239 $253 #
straight-curve $-1 -1 -1 $-1 -15 4 0 0 0 -1 I I #
edge $254 -1 -1 $-1 $228 -4 $223 4 $207 $255 forward @7 unknown T 15 -4 -4 15 -4 4 #
coedge $-1 -1 -1 $-1 $190 $238 $236 $256 forward $202 $-1 #
integer_attrib-name_attrib-gen-attrib $-1 -1 $-1 $-1 $191 2 1 1 1 1 1 1 1 1 1 1 1 1 1 0 1 1 1 @8 CUBIT_ID 6 #
vertex $257 -1 -1 $-1 $220 $258 #
straight-curve $-1 -1 -1 $-1 0 -4 -4 -1 0 0 I I #
coedge $-1 -1 -1 $-1 $240 $192 $237 $259 forward $226 $-1 #
loop $-1 -1 -1 $-1 $-1 $225 $83 T -15 -4 4 15 4 4 unknown #
integer_attrib-name_attrib-gen-attrib $-1 -1 $-1 $-1 $193 2 1 1 1 1 1 1 1 1 1 1 1 1 1 0 1 1 1 @8 CUBIT_ID 4 #
vertex $260 -1 -1 $-1 $259 $261 #
straight-curve $-1 -1 -1 $-1 0 -4 4 1 0 0 I I #
integer_attrib-name_attrib-gen-attrib $-1 -1 $-1 $-1 $195 2 1 1 1 1 1 1 1 1 1 1 1 1 1 0 1 1 1 @8 CUBIT_ID 4 #
point $-1 -1 -1 $-1 -15 -4 4 #
integer_attrib-name_attrib-gen-attrib $-1 -1 $-1 $-1 $196 2 1 1 1 1 1 1 1 1 1 1 1 1 1 0 1 1 1 @8 CUBIT_ID 7 #
point $-1 -1 -1 $-1 -15 -4 -4 #
integer_attrib-name_attrib-gen-attrib $-1 -1 $-1 $-1 $200 2 1 1 1 1 1 1 1 1 1 1 1 1 1 0 1 1 1 @8 CUBIT_ID 10 #
point $-1 -1 -1 $-1 -10.25 3.0616169978683824e-17 4 #
coedge $-1 -1 -1 $-1 $210 $207 $221 $256 reversed $182 $-1 #
coedge $-1 -1 -1 $-1 $207 $210 $225 $259 reversed $182 $-1 #
coedge $-1 -1 -1 $-1 $221 $212 $208 $239 forward $202 $-1 #
edge $262 -1 -1 $-1 $218 -15 $244 15 $208 $263 forward @7 unknown T -15 4 -4 15 4 -4 #
coedge $-1 -1 -1 $-1 $214 $225 $209 $241 forward $226 $-1 #
edge $264 -1 -1 $-1 $243 -15 $217 15 $209 $265 forward @7 unknown T -15 4 4 15 4 4 #
integer_attrib-name_attrib-gen-attrib $-1 -1 $-1 $-1 $211 2 1 1 1 1 1 1 1 1 1 1 1 1 1 0 1 1 1 @8 CUBIT_ID 12 #
vertex $266 -1 -1 $-1 $259 $267 #
vertex $268 -1 -1 $-1 $256 $269 #
straight-curve $-1 -1 -1 $-1 15 4 0 0 0 -1 I I #
integer_attrib-name_attrib-gen-attrib $-1 -1 $-1 $-1 $213 2 1 1 1 1 1 1 1 1 1 1 1 1 1 0 1 1 1 @8 CUBIT_ID 7 #
straight-curve $-1 -1 -1 $-1 -15 0 -4 0 1 0 I I #
integer_attrib-name_attrib-gen-attrib $-1 -1 $-1 $-1 $215 2 1 1 1 1 1 1 1 1 1 1 1 1 1 0 1 1 1 @8 CUBIT_ID 3 #
straight-curve $-1 -1 -1 $-1 -15 0 4 0 -1 0 I I #
integer_attrib-name_attrib-gen-attrib $-1 -1 $-1 $-1 $217 2 1 1 1 1 1 1 1 1 1 1 1 1 1 0 1 1 1 @8 CUBIT_ID 3 #
point $-1 -1 -1 $-1 -15 4 4 #
integer_attrib-name_attrib-gen-attrib $-1 -1 $-1 $-1 $218 2 1 1 1 1 1 1 1 1 1 1 1 1 1 0 1 1 1 @8 CUBIT_ID 8 #
point $-1 -1 -1 $-1 -15 4 -4 #
integer_attrib-name_attrib-gen-attrib $-1 -1 $-1 $-1 $220 2 1 1 1 1 1 1 1 1 1 1 1 1 1 0 1 1 1 @8 CUBIT_ID 10 #
straight-curve $-1 -1 -1 $-1 15 -4 0 0 0 -1 I I #
edge $270 -1 -1 $-1 $244 -4 $223 4 $236 $271 forward @7 unknown T 15 -4 -4 15 4 -4 #
integer_attrib-name_attrib-gen-attrib $-1 -1 $-1 $-1 $223 2 1 1 1 1 1 1 1 1 1 1 1 1 1 0 1 1 1 @8 CUBIT_ID 6 #
point $-1 -1 -1 $-1 15 -4 -4 #
edge $272 -1 -1 $-1 $228 -4 $243 4 $237 $273 forward @7 unknown T 15 -4 4 15 4 4 #
integer_attrib-name_attrib-gen-attrib $-1 -1 $-1 $-1 $228 2 1 1 1 1 1 1 1 1 1 1 1 1 1 0 1 1 1 @8 CUBIT_ID 1 #
point $-1 -1 -1 $-1 15 -4 4 #
integer_attrib-name_attrib-gen-attrib $-1 -1 $-1 $-1 $239 2 1 1 1 1 1 1 1 1 1 1 1 1 1 0 1 1 1 @8 CUBIT_ID 8 #
straight-curve $-1 -1 -1 $-1 0 4 -4 1 0 0 I I #
integer_attrib-name_attrib-gen-attrib $-1 -1 $-1 $-1 $241 2 1 1 1 1 1 1 1 1 1 1 1 1 1 0 1 1 1 @8 CUBIT_ID 2 #
straight-curve $-1 -1 -1 $-1 0 4 4 -1 0 0 I I #
integer_attrib-name_attrib-gen-attrib $-1 -1 $-1 $-1 $243 2 1 1 1 1 1 1 1 1 1 1 1 1 1 0 1 1 1 @8 CUBIT_ID 2 #
point $-1 -1 -1 $-1 15 4 4 #
integer_attrib-name_attrib-gen-attrib $-1 -1 $-1 $-1 $244 2 1 1 1 1 1 1 1 1 1 1 1 1 1 0 1 1 1 @8 CUBIT_ID 5 #
point $-1 -1 -1 $-1 15 4 -4 #
integer_attrib-name_attrib-gen-attrib $-1 -1 $-1 $-1 $256 2 1 1 1 1 1 1 1 1 1 1 1 1 1 0 1 1 1 @8 CUBIT_ID 5 #
straight-curve $-1 -1 -1 $-1 15 0 -4 0 -1 0 I I #
integer_attrib-name_attrib-gen-attrib $-1 -1 $-1 $-1 $259 2 1 1 1 1 1 1 1 1 1 1 1 1 1 0 1 1 1 @8 CUBIT_ID 1 #
straight-curve $-1 -1 -1 $-1 15 0 4 0 1 0 I I #
End-of-ACIS-data 