**ABCDEFGHIJKLMNOPQRSTUVWXYZabcdefghijklmnopqrstuvwxyz**************************
**PARASOLID !"#$%&'()*+,-./:;<=>?@[\]^_`{|}~0123456789**************************
**PART1;
MC=unknown;
MC_MODEL=unknown;
MC_ID=unknown;
OS=unknown;
OS_RELEASE=unknown;
FRU=sdl_parasolid_customer_support;
APPL=parasolid_acceptance_tests;
SITE=unknown;
USER=unknown;
FORMAT=text;
GUISE=transmit;
KEY=coarse_bar_with_hole_nat.x_t;
FILE=coarse_bar_with_hole_nat.x_t;
DATE=unknown;
**PART2;
SCH=SCH_2500146_25001;
USFLD_SIZE=1;
**PART3;
**END_OF_HEADER*****************************************************************
T51 : TRANSMIT FILE created by modeller version 250014623 SCH_2500146_25001_1300
6189 1 12 29 CCCCCCCCCCCCCDI5 owner1040 0 CCCCCCCCCA16 index_map_offset0 0 1 dA9
 index_map82 0 A17 node_id_index_map82 0 A20 schema_embedding_map82 0 A5 child12
 0 A14 lowest_node_id0 0 1 dZ1 206 0 2 0 0 0 0 1e3 1e-8 0 0 0 1 0 1 1 3 4 5 6 7
 8 9 0 0 0 0 0 0 0 70 11 CI9 list_type0 0 1 uI10 notransmit0 0 1 lCCCDCCDI12 fin
ger_index0 0 1 dI12 finger_block1012 0 CZ2 0 4 T1 0 0 2 20 1 10 10 0 13 255 3 94
 0 1 0 11 0 0 12 0 0 50 255 4 93 0 11 13 0 0 +0 .0508 0 1 0 0 0 0 -1 0 30 255 5
 89 0 8 14 0 0 +0 .0508 0 0 -1 0 0 29 255 6 70 0 15 16 0 0 0 -.0522412554552828
 0 19 8 CCCCCCCA5 owner12 0 Z7 28 0 1 12 0 17 V0 0 16 255 8 77 0 ?18 0 19 5 0 0
 1 0 18 255 9 25 0 20 0 21 22 ?1 0 17 255 20 0 23 24 25 9 26 27 0 28 +0 18 21 22
 0 25 9 29 30 ?1 0 29 22 27 0 9 30 31 0 .0508 -.0522412554552828 0 29 30 24 0 21
 32 22 .0989834313889568 .0508 -.0522412554552828 0 29 31 73 0 33 22 34 0 0 0 0
 18 33 64 0 35 36 0 31 ?1 0 29 34 72 0 36 31 16 .0989834313889568 0 0 0 18 36 63
 0 37 38 33 34 ?1 0 29 16 71 0 38 34 6 .0989834313889568 0 -.0522412554552828 0
 18 38 62 0 39 15 36 16 ?1 0 17 39 0 40 41 42 38 43 44 0 45 +0 18 15 61 0 46 47
 38 6 ?1 0 17 46 0 48 28 45 15 49 50 0 51 +0 18 47 16 0 52 29 15 53 ?1 0 17 52 0
 54 18 55 47 56 57 0 24 -0 18 29 19 0 56 21 47 32 ?1 0 29 53 18 0 47 0 32 0 .050
8 0 0 29 32 21 0 29 53 30 .0989834313889568 .0508 0 0 17 56 0 23 25 24 29 52 57
 0 55 +0 15 255 23 3 0 24 58 0 0 17 25 0 23 20 56 21 59 60 0 41 +0 17 24 0 23 56
 20 47 61 62 0 63 +0 16 57 7 0 ?56 60 62 64 0 0 1 0 17 55 0 54 52 37 29 42 19 0
 59 -0 15 54 82 0 37 65 0 0 17 37 0 54 55 18 36 35 66 0 42 +0 17 42 0 40 39 59 3
6 55 19 0 43 +0 16 19 76 0 ?42 8 67 14 0 0 1 0 17 59 0 40 42 41 29 25 60 0 0 -0
 15 40 80 0 39 68 0 0 17 41 0 40 59 39 21 45 67 0 26 -0 16 60 10 0 ?25 27 57 69
 0 0 1 0 16 27 13 0 ?20 70 60 71 0 0 1 0 30 69 11 0 60 64 71 0 +.098983431388956
8 .0508 0 0 0 -1 0 30 64 8 0 57 72 69 0 +0 .0508 0 1 0 0 0 30 71 14 0 27 69 73 0
 +0 .0508 -.0522412554552828 -1 0 0 0 30 73 69 0 74 71 75 0 +0 0 0 0 0 1 0 16 74
 57 0 ?76 66 77 73 0 0 1 0 30 75 68 0 66 73 78 0 +0 0 0 1 0 0 0 16 66 53 0 ?37 4
4 74 75 0 0 1 0 30 78 67 0 44 75 79 0 +.0989834313889568 0 0 0 0 -1 0 16 44 49 0
 ?39 50 66 78 0 0 1 0 30 79 66 0 50 78 80 0 +0 0 -.0522412554552828 -1 0 0 0 16
 50 45 0 ?46 62 44 79 0 0 1 0 30 80 86 0 70 79 81 0 +0 .0508 -.0522412554552828
 0 -1 0 0 16 70 74 0 ?51 67 27 80 0 0 1 0 30 81 87 0 67 80 14 0 +.09898343138895
68 .0508 -.0522412554552828 0 -1 0 0 16 67 75 0 ?45 19 70 81 0 0 1 0 30 14 88 0
 19 81 5 0 +.0989834313889568 .0508 0 0 -1 0 0 17 45 0 48 46 26 38 41 67 0 49 +0
 15 48 78 0 46 82 0 0 17 26 0 48 45 28 21 20 27 0 0 -0 17 49 0 83 43 84 38 46 50
 0 0 -0 15 83 44 0 84 85 0 0 17 43 0 83 35 49 36 39 44 0 0 -0 17 84 0 83 49 35 1
5 76 74 0 0 -0 17 35 0 83 84 43 33 37 66 0 18 -0 17 76 0 86 63 51 33 84 74 0 0 +
0 15 86 84 0 76 11 0 0 17 63 0 86 61 76 47 18 8 0 0 -0 17 51 0 86 76 61 15 28 70
 0 84 +0 17 61 0 86 51 63 9 24 62 0 0 -0 17 28 0 48 26 46 9 51 70 0 61 -0 16 62
 4 0 ?24 57 50 72 0 0 1 0 30 72 5 0 62 87 64 0 +0 .0508 0 0 0 1 0 31 255 87 167
 0 88 89 72 0 +.0494917156944784 .0508 -.0261206277276414 0 1 0 0 0 1 .0127 0 16
 88 148 0 ?90 77 0 87 0 0 1 0 31 89 168 0 77 0 87 0 +.0494917156944784 0 -.02612
06277276414 0 1 0 0 0 1 .0127 0 16 77 145 0 ?91 74 88 89 0 0 1 0 17 91 0 92 91 9
1 0 93 77 0 0 +0 15 92 134 0 91 85 83 0 17 93 0 94 93 93 0 91 77 0 0 -0 15 94 15
4 0 93 95 96 0 14 255 95 151 97 ?0 85 94 3 98 -0 0 0 85 17 0 15 96 155 0 90 95 0
 0 17 90 0 96 90 90 0 99 88 0 0 +0 17 99 0 100 99 99 0 90 88 0 0 -0 15 100 139 0
 99 58 23 0 14 58 1 101 ?85 82 100 3 102 -0 0 85 82 17 0 81 255 1 101 201 103 58
 104 0 97 105 106 0 14 85 43 105 ?95 58 92 3 107 +0 0 95 58 17 0 14 82 79 108 ?5
8 68 48 3 109 -0 0 58 68 17 0 50 102 2 0 58 98 107 0 +0 .0508 0 0 -1 0 0 0 -1 0
 13 17 29 0 0 0 0 0 0 7 11 0 14 11 85 110 ?65 0 86 3 4 -0 0 65 0 17 0 81 1 110 2
04 103 11 111 0 108 112 113 0 14 65 83 112 ?68 11 54 3 13 -0 0 68 11 17 0 81 1 1
12 205 103 65 114 0 110 115 116 0 14 68 81 115 ?82 65 40 3 117 -0 0 82 65 17 0 5
0 13 92 0 65 117 4 0 +0 .0508 0 0 0 -1 -1 0 0 0 50 117 91 0 68 109 13 0 +.098983
4313889568 .0508 0 -1 0 0 0 0 1 0 50 109 90 0 82 107 117 0 +0 .0508 -.0522412554
552828 0 0 1 1 0 0 0 50 107 65 0 85 102 109 0 +0 0 0 0 -1 0 0 0 -1 0 81 1 115 20
6 103 68 118 0 112 0 119 0 80 255 1 103 120 121 9000 1 1 1 1 1 1 1 1 0 FFFFTFTFF
FFFFF1 0 81 1 118 179 122 68 0 115 114 123 124 0 82 255 1 119 193790056 0 80 1 1
22 0 125 8001 0 0 0 0 3 5 0 0 0 FFFFTFTFFFFFFF2 0 81 1 114 178 122 65 0 112 111
 118 126 0 81 1 123 180 122 82 0 108 118 104 127 0 83 255 3 124 .792156862745098
 .819607843137255 .933333333333333 0 81 1 108 203 103 82 123 0 105 110 128 0 81
 1 104 181 122 58 0 101 123 129 130 0 83 3 127 .792156862745098 .819607843137255
 .933333333333333 0 81 1 129 182 122 85 0 105 104 131 132 0 83 3 130 .7921568627
45098 .819607843137255 .933333333333333 0 81 1 105 202 103 85 129 0 101 108 133
 0 81 1 131 183 122 95 0 97 129 0 134 0 83 3 132 .792156862745098 .8196078431372
55 .933333333333333 0 81 1 97 200 103 95 131 0 0 101 135 0 83 3 134 .79215686274
5098 .819607843137255 .933333333333333 0 82 1 135 2077884524 0 82 1 133 19044772
4 0 82 1 128 193527912 0 81 1 111 177 122 11 0 110 0 114 136 0 83 3 126 .7921568
62745098 .819607843137255 .933333333333333 0 83 3 136 .792156862745098 .81960784
3137255 .933333333333333 0 79 255 15 125 SDL/TYSA_COLOUR0 79 14 121 SWEntUnchang
ed0 82 1 116 194052200 0 82 1 113 194314344 0 51 255 98 164 0 95 0 102 0 +.04949
17156944784 0 -.0261206277276414 0 1 0 .0127 0 0 1 0 82 1 106 186974316 0 17 18
 0 54 37 52 33 63 8 0 76 +0 19 12 95 0 1 0 7 3 S0 0 74 4 CI16 index_map_offset0
 0 1 dCCZ20 10 2 0 0 115 131 0 0 0 0 0 0 0 0 0 0 0 0 0 0 0 0 0 0 0 1 0 
