**ABCDEFGHIJKLMNOPQRSTUVWXYZabcdefghijklmnopqrstuvwxyz**************************
**PARASOLID !"#$%&'()*+,-./:;<=>?@[\]^_`{|}~0123456789**************************
**PART1;
MC=unknown;
MC_MODEL=unknown;
MC_ID=unknown;
OS=unknown;
OS_RELEASE=unknown;
FRU=sdl_parasolid_customer_support;
APPL=parasolid_acceptance_tests;
SITE=unknown;
USER=unknown;
FORMAT=text;
GUISE=transmit;
KEY=/fasttmp/roys28/mesh files/may14/movinglaser_nat.x_t;
FILE=/fasttmp/roys28/mesh files/may14/movinglaser_nat.x_t;
DATE=unknown;
**PART2;
SCH=SCH_2600217_25001;
USFLD_SIZE=1;
**PART3;
**END_OF_HEADER*****************************************************************
T51 : TRANSMIT FILE created by modeller version 260021723 SCH_2600217_25001_1300
6189 1 12 29 CCCCCCCCCCCCCDI5 owner1040 0 CCCCCCCCCA16 index_map_offset0 0 1 dA9
 index_map82 0 A17 node_id_index_map82 0 A20 schema_embedding_map82 0 A5 child12
 0 A14 lowest_node_id0 0 1 dZ1 3696 2 3 0 0 0 0 1e3 1e-8 0 0 0 1 0 6 1 0 4 5 6 7
 8 9 0 0 0 0 0 0 0 81 255 1 2 3583 10 1 11 0 0 0 0 0 70 11 CI9 list_type0 0 1 uI
10 notransmit0 0 1 lCCCDCCDI12 finger_index0 0 1 dI12 finger_block1012 0 CZ3 0 4
 T1 0 0 4 20 1 12 12 0 50 255 4 3658 0 13 14 0 0 +0 25e-5 0 1 0 0 0 0 -1 0 30 25
5 5 3664 0 15 16 0 0 +0 25e-5 0 0 -1 0 0 29 255 6 3676 0 17 18 0 0 0 -6e-4 0 19
 8 CCCCCCCA5 owner12 0 Z7 3696 0 1 19 0 20 V0 0 16 255 8 77 0 ?21 0 22 23 0 0 1
 0 18 255 9 25 0 24 0 25 26 ?1 0 17 255 24 0 27 28 29 9 30 31 0 32 +0 18 25 22 0
 29 9 33 34 ?1 0 29 26 27 0 9 34 35 0 3e-4 -6e-4 0 29 34 24 0 25 36 26 6e-4 3e-4
 -6e-4 0 29 35 73 0 37 26 38 0 25e-5 0 0 18 37 64 0 39 40 17 35 ?1 0 29 38 72 0
 40 35 41 6e-4 25e-5 0 0 18 40 63 0 42 43 37 38 ?1 0 29 41 71 0 43 38 44 6e-4 25
e-5 -6e-4 0 18 43 62 0 45 46 40 41 ?1 0 29 44 70 0 46 41 47 0 25e-5 -6e-4 0 18 4
6 61 0 48 49 43 44 ?1 0 29 47 3679 0 50 44 51 0 0 0 0 18 50 3656 0 52 53 0 47 ?1
 0 29 51 3678 0 53 47 18 6e-4 0 0 0 18 53 3654 0 54 55 50 51 ?1 0 29 18 3677 0 5
5 51 6 6e-4 0 -6e-4 0 18 55 3652 0 56 17 53 18 ?1 0 17 56 0 57 58 59 55 60 61 0
 62 +0 18 17 3650 0 63 37 55 6 ?1 0 17 63 0 64 65 62 17 66 67 0 68 +0 15 255 64
 3607 0 63 69 0 0 17 65 0 64 45 63 46 68 70 0 71 -0 17 62 0 64 63 45 55 58 72 0
 66 +0 17 66 0 73 60 74 55 63 67 0 0 -0 16 67 3634 0 ?63 70 61 75 0 0 1 0 17 68
 0 76 77 48 17 65 70 0 74 +0 15 76 3592 0 77 13 0 0 17 77 0 76 78 68 50 74 79 0
 0 +0 17 48 0 76 68 78 46 80 81 0 65 -0 16 70 3624 0 ?68 72 67 82 0 0 1 0 17 74
 0 73 66 52 17 77 79 0 0 -0 15 73 3614 0 74 83 0 0 17 52 0 73 74 60 50 54 84 0 8
5 -0 16 79 3640 0 ?77 84 0 86 0 0 1 0 16 84 3638 0 ?54 61 79 87 0 0 1 0 30 86 36
71 0 79 23 87 0 +0 0 0 0 0 1 0 30 23 89 0 8 88 86 0 +0 3e-4 0 0 -1 0 0 30 87 367
0 0 84 86 89 0 +0 0 0 1 0 0 0 30 89 3669 0 61 87 75 0 +6e-4 0 0 0 0 -1 0 16 61 3
636 0 ?56 67 84 89 0 0 1 0 30 75 3668 0 67 89 82 0 +0 0 -6e-4 -1 0 0 0 30 82 366
7 0 70 75 90 0 +0 25e-5 -6e-4 0 -1 0 0 30 90 3666 0 72 82 16 0 +6e-4 25e-5 -6e-4
 0 -1 0 0 16 72 3622 0 ?62 91 70 90 0 0 1 0 30 16 3665 0 91 90 5 0 +6e-4 25e-5 0
 0 -1 0 0 16 91 3620 0 ?59 15 72 16 0 0 1 0 17 59 0 57 56 42 53 92 91 0 60 +0 16
 15 3618 0 ?85 81 91 5 0 0 1 0 17 85 0 93 54 39 50 78 15 0 77 +0 16 81 57 0 ?94
 95 15 96 0 0 1 0 17 94 0 97 98 99 37 48 81 0 0 +0 16 95 53 0 ?100 101 81 102 0
 0 1 0 30 96 69 0 81 103 102 0 +0 25e-5 0 0 0 1 0 30 103 14 0 31 104 96 0 +0 3e-
4 -6e-4 -1 0 0 0 30 102 68 0 95 96 105 0 +0 25e-5 0 1 0 0 0 30 105 67 0 101 102
 106 0 +6e-4 25e-5 0 0 0 -1 0 16 101 49 0 ?107 108 95 105 0 0 1 0 30 106 66 0 10
8 105 109 0 +0 25e-5 -6e-4 -1 0 0 0 16 108 45 0 ?71 110 101 106 0 0 1 0 30 109 8
6 0 111 106 112 0 +0 3e-4 -6e-4 0 -1 0 0 16 111 74 0 ?99 113 31 109 0 0 1 0 30 1
12 87 0 113 109 88 0 +6e-4 3e-4 -6e-4 0 -1 0 0 16 113 75 0 ?114 22 111 112 0 0 1
 0 30 88 88 0 22 112 23 0 +6e-4 3e-4 0 0 -1 0 0 16 22 76 0 ?115 8 113 88 0 0 1 0
 17 115 0 116 107 117 40 118 22 0 0 +0 15 116 80 0 107 119 0 0 17 107 0 116 120
 115 43 42 101 0 114 +0 17 117 0 116 115 120 33 29 121 0 0 -0 17 118 0 122 123 1
00 33 115 22 0 117 -0 15 122 82 0 100 124 0 0 17 123 0 122 21 118 49 125 126 0 2
8 -0 17 100 0 122 118 21 40 39 95 0 115 +0 18 33 19 0 125 25 49 36 ?1 0 17 125 0
 27 29 28 33 123 126 0 118 +0 18 49 16 0 123 33 46 127 ?1 0 29 36 21 0 33 127 34
 6e-4 3e-4 0 0 29 127 18 0 49 0 36 0 3e-4 0 0 15 27 3 0 28 128 0 0 17 29 0 27 24
 125 25 117 121 0 120 +0 17 28 0 27 125 24 49 129 110 0 98 +0 16 126 7 0 ?125 12
1 110 130 0 0 1 0 16 121 10 0 ?29 31 126 104 0 0 1 0 16 110 4 0 ?28 126 108 131
 0 0 1 0 30 130 8 0 126 131 104 0 +0 3e-4 0 1 0 0 0 30 131 5 0 110 0 130 0 +0 3e
-4 0 0 0 1 0 30 104 11 0 121 130 103 0 +6e-4 3e-4 0 0 0 -1 0 16 31 13 0 ?24 111
 121 103 0 0 1 0 17 129 0 97 99 98 9 28 110 0 0 -0 17 98 0 97 129 94 49 21 8 0 0
 -0 15 97 84 0 94 132 0 0 17 21 0 122 100 123 37 98 8 0 94 +0 14 255 132 85 133
 ?128 134 97 135 136 -0 0 128 134 20 0 81 1 133 3489 137 132 0 0 0 138 139 0 14
 128 1 140 ?119 132 27 135 141 -0 0 119 132 20 0 14 134 79 142 ?132 143 144 135
 145 -0 0 132 0 20 0 13 255 135 94 0 0 0 143 0 0 19 0 0 50 136 93 0 132 146 147
 0 +0 3e-4 0 1 0 0 0 0 -1 0 13 20 3685 0 0 0 0 0 0 7 134 0 50 146 92 0 124 148 1
36 0 +0 3e-4 0 0 0 -1 -1 0 0 0 50 147 3662 0 83 136 149 0 +0 0 -6e-4 0 -1 0 0 0
 -1 0 14 83 3610 150 ?151 152 73 153 147 +0 0 0 69 20 0 50 149 3661 0 69 147 154
 0 +0 25e-5 -6e-4 0 0 1 1 0 0 0 14 69 3603 155 ?13 0 64 153 149 -0 0 83 152 20 0
 50 154 3660 0 152 149 14 0 +6e-4 25e-5 0 -1 0 0 0 0 1 0 14 152 3598 156 ?83 13
 57 153 154 -0 0 69 151 20 0 50 14 3659 0 151 154 4 0 +0 25e-5 0 0 0 -1 -1 0 0 0
 14 151 3593 157 ?0 83 93 153 14 -0 0 152 13 20 0 81 1 157 3596 137 151 0 0 158
 156 159 0 15 93 3597 0 54 151 0 0 13 153 3686 0 0 0 69 0 0 160 143 0 14 13 3588
 158 ?152 69 76 153 4 -0 0 151 124 20 0 81 1 158 3591 137 13 0 0 161 157 162 0 1
4 124 83 138 ?0 119 122 135 146 -0 0 13 119 20 0 81 1 138 3490 137 124 0 0 133 1
63 164 0 14 119 81 163 ?124 128 116 135 148 -0 0 124 128 20 0 81 1 163 3491 137
 119 0 0 138 142 165 0 50 148 91 0 119 145 146 0 +6e-4 3e-4 0 -1 0 0 0 0 1 0 50
 145 90 0 134 166 148 0 +0 3e-4 -6e-4 0 0 1 1 0 0 0 50 166 65 0 143 141 145 0 +0
 25e-5 -6e-4 0 -1 0 0 0 -1 0 14 143 43 161 ?134 0 167 135 166 +0 0 0 0 153 0 50
 141 2 0 128 0 166 0 +0 3e-4 -6e-4 0 -1 0 0 0 -1 0 81 1 161 3494 137 143 0 0 168
 158 169 0 15 167 44 0 80 143 0 0 17 80 0 167 170 171 46 94 81 0 0 -0 17 170 0 1
67 172 80 43 71 108 0 0 -0 17 171 0 167 80 172 37 100 95 0 0 -0 17 172 0 167 171
 170 40 107 101 0 0 -0 17 71 0 144 32 114 46 45 108 0 99 +0 15 144 78 0 71 134 0
 0 17 32 0 144 30 71 9 99 111 0 129 -0 17 114 0 144 71 30 43 120 113 0 0 +0 17 4
5 0 64 62 65 43 170 108 0 58 -0 17 99 0 97 94 129 46 32 111 0 0 +0 17 58 0 57 42
 56 43 62 72 0 107 -0 15 57 3602 0 56 152 0 0 17 42 0 57 59 58 40 172 101 0 92 -
0 17 92 0 93 39 54 40 59 91 0 100 -0 17 39 0 93 85 92 37 171 95 0 78 -0 17 54 0
 93 92 85 53 52 84 0 59 +0 17 78 0 76 48 77 37 85 15 0 21 -0 17 30 0 144 114 32
 25 24 31 0 0 -0 17 120 0 116 117 107 25 114 113 0 30 -0 80 255 1 137 0 173 8001
 0 0 0 0 3 5 0 0 0 FFFFTFTFFFFFFF2 0 81 1 168 3493 137 128 0 140 142 161 174 0 8
3 255 3 169 .792156862745098 .819607843137255 .933333333333333 0 81 1 140 3514 1
75 128 168 0 0 0 176 0 81 1 142 3492 137 134 0 0 163 168 177 0 83 3 174 .7921568
62745098 .819607843137255 .933333333333333 0 83 3 177 .792156862745098 .81960784
3137255 .933333333333333 0 80 1 175 178 179 9000 1 1 1 1 1 1 1 1 0 FFFFTFTFFFFFF
F1 0 82 255 1 176 -1624571784 0 79 255 14 179 SWEntUnchanged0 79 15 173 SDL/TYSA
_COLOUR0 83 3 165 .792156862745098 .819607843137255 .933333333333333 0 83 3 164
 .792156862745098 .819607843137255 .933333333333333 0 83 3 162 .792156862745098
 .819607843137255 .933333333333333 0 19 160 3616 0 1 0 19 153 S0 0 19 19 95 0 1
 160 7 135 S0 0 81 1 156 3601 137 152 0 0 157 155 180 0 83 3 159 .79215686274509
8 .819607843137255 .933333333333333 0 81 1 155 3606 137 69 0 0 156 150 181 0 83
 3 180 .792156862745098 .819607843137255 .933333333333333 0 81 1 150 3613 137 83
 0 0 155 0 182 0 83 3 181 .792156862745098 .819607843137255 .933333333333333 0 8
3 3 182 .792156862745098 .819607843137255 .933333333333333 0 83 3 139 .792156862
745098 .819607843137255 .933333333333333 0 17 60 0 73 52 66 53 56 61 0 0 -0 74 4
 CI16 index_map_offset0 0 1 dCCZ20 12 4 0 0 140 150 11 2 0 0 0 0 0 0 0 0 0 0 0 0
 0 0 0 0 0 81 1 11 3515 183 1 0 2 0 0 0 0 80 1 183 184 185 8017 0 0 0 0 0 0 0 0
 0 TTTTTTTTTTTTTF3 0 79 13 185 SDL/TYSA_NAME0 80 1 10 175 186 9000 0 0 0 0 3 6 0
 0 0 FFTFTFTTFFFFTF9 0 79 23 186 Sim_NM_AssemblyModelAtt0 1 0 
