**ABCDEFGHIJKLMNOPQRSTUVWXYZabcdefghijklmnopqrstuvwxyz**************************
**PARASOLID !"#$%&'()*+,-./:;<=>?@[\]^_`{|}~0123456789**************************
**PART1;
MC=unknown;
MC_MODEL=unknown;
MC_ID=unknown;
OS=unknown;
OS_RELEASE=unknown;
FRU=sdl_parasolid_customer_support;
APPL=parasolid_acceptance_tests;
SITE=unknown;
USER=unknown;
FORMAT=text;
GUISE=transmit;
KEY=/lore/juham/tests/AMP/meshes/cube2_nat.x_t;
FILE=/lore/juham/tests/AMP/meshes/cube2_nat.x_t;
DATE=unknown;
**PART2;
SCH=SCH_2700142_26105;
USFLD_SIZE=1;
**PART3;
**END_OF_HEADER*****************************************************************
T51 : TRANSMIT FILE created by modeller version 270014223 SCH_2700142_26105_1300
6196 1 12 30 CCCCCCCCCCCCCDI5 owner1040 0 CCCCCCCCCA13 boundary_mesh1006 0 A16 i
ndex_map_offset0 0 1 dA9 index_map82 0 A17 node_id_index_map82 0 A20 schema_embe
dding_map82 0 A5 child12 0 A14 lowest_node_id0 0 1 dZ1 164 0 2 0 0 0 0 1e3 1e-8
 0 0 0 1 0 1 1 3 4 5 6 7 8 9 0 0 0 0 0 0 0 0 70 11 CI9 list_type0 0 1 uI10 notra
nsmit0 0 1 lCCCDCCDI12 finger_index0 0 1 dI12 finger_block1012 0 CZ2 0 4 T1 0 0
 2 20 1 10 10 0 13 255 3 94 0 1 0 11 0 0 12 0 0 50 255 4 93 0 11 13 0 0 +0 0 1 1
 0 0 0 0 -1 0 30 255 5 89 0 8 14 0 0 +0 0 1 0 0 -1 0 29 255 6 70 0 15 16 0 0 1 0
 0 19 8 CCCCCCCA5 owner12 0 Z7 28 0 1 12 0 17 V0 0 16 255 8 77 0 ?18 0 19 5 0 0
 1 0 18 255 9 25 0 20 0 21 22 ?1 0 17 255 20 0 23 24 25 9 26 27 0 28 +0 18 21 22
 0 25 9 29 30 ?1 0 29 22 27 0 9 30 31 0 1 1 0 29 30 24 0 21 32 22 1 1 1 0 29 31
 73 0 33 22 34 0 0 0 0 18 33 64 0 35 36 0 31 ?1 0 29 34 72 0 36 31 16 1 0 0 0 18
 36 63 0 37 38 33 34 ?1 0 29 16 71 0 38 34 6 1 1 0 0 18 38 62 0 39 15 36 16 ?1 0
 17 39 0 40 41 42 38 43 44 0 45 +0 18 15 61 0 46 47 38 6 ?1 0 17 46 0 48 28 45 1
5 49 50 0 51 +0 18 47 16 0 52 29 15 53 ?1 0 17 52 0 54 18 55 47 56 57 0 24 -0 18
 29 19 0 56 21 47 32 ?1 0 29 53 18 0 47 0 32 0 0 1 0 29 32 21 0 29 53 30 1 0 1 0
 17 56 0 23 25 24 29 52 57 0 55 +0 15 255 23 3 0 24 58 0 0 17 25 0 23 20 56 21 5
9 60 0 41 +0 17 24 0 23 56 20 47 61 62 0 63 +0 16 57 7 0 ?56 60 62 64 0 0 1 0 17
 55 0 54 52 37 29 42 19 0 59 -0 15 54 82 0 37 65 0 0 17 37 0 54 55 18 36 35 66 0
 42 +0 17 42 0 40 39 59 36 55 19 0 43 +0 16 19 76 0 ?42 8 67 14 0 0 1 0 17 59 0
 40 42 41 29 25 60 0 0 -0 15 40 80 0 39 68 0 0 17 41 0 40 59 39 21 45 67 0 26 -0
 16 60 10 0 ?25 27 57 69 0 0 1 0 16 27 13 0 ?20 70 60 71 0 0 1 0 30 69 11 0 60 6
4 71 0 +1 0 1 0 1 0 0 30 64 8 0 57 72 69 0 +0 0 1 1 0 0 0 30 71 14 0 27 69 73 0
 +0 1 1 -1 0 0 0 30 73 69 0 74 71 75 0 +0 0 0 0 -1 0 0 16 74 57 0 ?76 66 0 73 0
 0 1 0 30 75 68 0 66 73 77 0 +0 0 0 1 0 0 0 16 66 53 0 ?37 44 74 75 0 0 1 0 30 7
7 67 0 44 75 78 0 +1 0 0 0 1 0 0 16 44 49 0 ?39 50 66 77 0 0 1 0 30 78 66 0 50 7
7 79 0 +0 1 0 -1 0 0 0 16 50 45 0 ?46 62 44 78 0 0 1 0 30 79 86 0 70 78 80 0 +0
 1 1 0 0 -1 0 16 70 74 0 ?51 67 27 79 0 0 1 0 30 80 87 0 67 79 14 0 +1 1 1 0 0 -
1 0 16 67 75 0 ?45 19 70 80 0 0 1 0 30 14 88 0 19 80 5 0 +1 0 1 0 0 -1 0 17 45 0
 48 46 26 38 41 67 0 49 +0 15 48 78 0 46 81 0 0 17 26 0 48 45 28 21 20 27 0 0 -0
 17 49 0 82 43 83 38 46 50 0 0 -0 15 82 44 0 83 84 0 0 17 43 0 82 35 49 36 39 44
 0 0 -0 17 83 0 82 49 35 15 76 74 0 0 -0 17 35 0 82 83 43 33 37 66 0 18 -0 17 76
 0 85 63 51 33 83 74 0 0 +0 15 85 84 0 76 11 0 0 17 63 0 85 61 76 47 18 8 0 0 -0
 17 51 0 85 76 61 15 28 70 0 83 +0 17 61 0 85 51 63 9 24 62 0 0 -0 17 28 0 48 26
 46 9 51 70 0 61 -0 16 62 4 0 ?24 57 50 72 0 0 1 0 30 72 5 0 62 0 64 0 +0 0 1 0
 -1 0 0 17 18 0 54 37 52 33 63 8 0 76 +0 14 255 11 85 86 ?65 0 85 3 4 -0 0 65 0
 17 0 81 255 1 86 159 87 11 88 0 0 89 90 0 14 65 83 89 ?68 11 54 3 13 -0 0 68 11
 17 0 13 17 29 0 0 0 0 0 0 7 11 0 81 1 89 160 87 65 91 0 86 92 93 0 14 68 81 92
 ?81 65 40 3 94 -0 0 81 65 17 0 50 13 92 0 65 94 4 0 +0 0 1 0 1 0 0 0 1 0 50 94
 91 0 68 95 13 0 +1 0 1 -1 0 0 0 0 1 0 50 95 90 0 81 96 94 0 +0 1 1 0 -1 0 0 0 -
1 0 14 81 79 97 ?58 68 48 3 95 -0 0 58 68 17 0 50 96 65 0 84 98 95 0 +0 1 0 0 0
 -1 -1 0 0 0 14 84 43 99 ?0 58 82 3 96 +0 0 0 58 17 0 50 98 2 0 58 0 96 0 +0 1 1
 0 0 -1 -1 0 0 0 14 58 1 100 ?84 81 23 3 98 -0 0 84 81 17 0 81 1 100 164 87 58 1
01 0 99 0 102 0 80 255 1 87 103 104 9000 1 1 1 1 1 1 1 1 0 FFFFTFTFFFFFFF1 0 81
 1 101 143 105 58 0 100 106 107 108 0 81 1 99 163 87 84 107 0 97 100 109 0 82 25
5 1 102 115736680 0 81 1 107 144 105 84 0 99 101 0 110 0 81 1 97 162 87 81 106 0
 92 99 111 0 82 1 109 119210088 0 81 1 106 142 105 81 0 97 112 101 113 0 81 1 92
 161 87 68 112 0 89 97 114 0 82 1 111 122290280 0 81 1 112 141 105 68 0 92 91 10
6 115 0 82 1 114 122552424 0 80 1 105 0 116 8001 0 0 0 0 3 5 0 0 0 FFFFTFTFFFFFF
F2 0 81 1 91 140 105 65 0 89 88 112 117 0 83 255 3 115 .792156862745098 .8196078
43137255 .933333333333333 0 81 1 88 139 105 11 0 86 0 91 118 0 83 3 117 .7921568
62745098 .819607843137255 .933333333333333 0 83 3 118 .792156862745098 .81960784
3137255 .933333333333333 0 79 255 15 116 SDL/TYSA_COLOUR0 83 3 113 .792156862745
098 .819607843137255 .933333333333333 0 83 3 110 .792156862745098 .8196078431372
55 .933333333333333 0 83 3 108 .792156862745098 .819607843137255 .93333333333333
3 0 79 14 104 SWEntUnchanged0 82 1 93 122814568 0 82 1 90 123076712 0 19 12 95 0
 1 0 7 3 S0 0 74 4 CI16 index_map_offset0 0 1 dCCZ20 10 2 0 0 100 107 0 0 0 0 0
 0 0 0 0 0 0 0 0 0 0 0 0 0 0 1 0 
