**ABCDEFGHIJKLMNOPQRSTUVWXYZabcdefghijklmnopqrstuvwxyz**************************
**PARASOLID !"#$%&'()*+,-./:;<=>?@[\]^_`{|}~0123456789**************************
**PART1;
MC=unknown;
MC_MODEL=unknown;
MC_ID=unknown;
OS=unknown;
OS_RELEASE=unknown;
FRU=sdl_parasolid_customer_support;
APPL=parasolid_acceptance_tests;
SITE=unknown;
USER=unknown;
FORMAT=text;
GUISE=transmit;
KEY=geom_onepart.x_t;
FILE=geom_onepart.x_t;
DATE=unknown;
**PART2;
SCH=SCH_2400133_20000;
USFLD_SIZE=1;
**PART3;
**END_OF_HEADER*****************************************************************
T51 : TRANSMIT FILE created by modeller version 240013323 SCH_2400133_20000_1300
6186 1 12 27 CCCCCCCCCCCCCCCCCCCCCCCA16 index_map_offset0 0 1 dA9 index_map82 0
 A17 node_id_index_map82 0 A20 schema_embedding_map82 0 Z1 407 2 3 0 0 0 0 1e3 1
e-8 0 0 0 1 0 6 1 0 4 5 6 7 8 9 0 0 0 0 0 81 255 1 2 317 10 1 11 0 0 0 0 0 70 11
 CI9 list_type0 0 1 uI10 notransmit0 0 1 lCCCDCCDI12 finger_index0 0 1 dI12 fing
er_block1012 0 CZ3 0 4 T1 0 0 3 20 1 12 12 0 51 255 4 378 0 13 14 0 0 +0 .0254 0
 0 -1 0 .00637159 0 0 -1 0 30 255 5 382 0 15 16 0 0 +.00637159 .0254 0 0 -1 0 0
 29 255 6 393 0 17 18 0 .00637159 0 0 0 19 255 7 407 0 1 19 0 20 V0 16 255 8 219
 0 ?21 0 22 23 0 0 1 0 18 255 9 186 0 21 0 24 25 ?1 0 17 255 21 0 26 27 28 9 29
 8 0 30 +0 18 24 183 0 31 9 32 33 ?1 0 29 25 244 0 9 34 33 .00637159 .0127 0 0 2
9 34 235 0 32 35 25 -896174534353842e-33 .0127 -.00637159 0 29 33 252 0 24 25 36
 0 .0127 0 0 29 36 395 0 37 33 18 -896174534353842e-33 0 -.00637159 0 18 37 367
 0 38 39 17 36 ?1 0 29 18 394 0 39 36 6 0 0 0 0 18 39 365 0 40 41 37 18 ?1 0 17
 40 0 42 43 31 39 44 45 0 46 +0 18 41 2 0 47 48 39 49 ?1 0 17 47 0 50 51 52 41 5
3 54 0 55 -0 18 48 5 0 56 57 41 58 ?1 0 29 49 4 0 41 0 58 .00637159 .0254 0 0 29
 58 7 0 48 49 35 0 .0254 0 0 29 35 12 0 57 58 34 -896174534353842e-33 .0254 -.00
637159 0 18 57 10 0 59 32 48 35 ?1 0 17 59 0 60 55 29 57 61 62 0 63 -0 18 32 232
 0 64 24 57 34 ?1 0 17 64 0 65 38 44 32 66 67 0 28 +0 15 255 65 338 0 44 68 0 0
 17 38 0 65 46 64 37 28 69 0 70 +0 17 44 0 65 64 46 24 40 45 0 66 -0 17 66 0 71
 56 61 24 72 67 0 73 -0 16 67 132 0 ?64 22 74 75 0 0 1 0 17 28 0 26 21 70 32 38
 69 0 61 -0 15 26 333 0 28 13 0 0 17 70 0 26 28 27 37 76 77 0 78 -0 16 69 351 0
 ?38 45 15 16 0 0 1 0 17 61 0 71 66 63 32 59 62 0 29 +0 15 71 133 0 66 79 0 0 17
 63 0 71 61 56 57 80 81 0 82 +0 16 62 58 0 ?61 74 54 83 0 0 1 0 17 29 0 60 59 53
 32 84 8 0 0 -0 15 60 122 0 29 85 0 0 17 53 0 60 29 55 9 47 54 0 0 +0 17 84 0 86
 87 72 9 21 8 0 0 +0 15 86 199 0 87 88 0 0 17 87 0 86 72 84 24 31 22 0 0 +0 17 7
2 0 86 84 87 32 64 67 0 0 +0 17 31 0 42 40 30 24 52 22 0 44 +0 16 22 138 0 ?31 8
 67 89 0 0 1 0 30 89 203 0 22 75 90 0 +.00637159 .0127 0 -1 0 0 0 30 75 204 0 67
 0 89 0 +0 .0127 0 -140651632379648e-30 0 -1 0 30 90 9 0 91 89 92 0 +.00637159 .
0254 0 -1 0 0 0 16 91 6 0 ?51 81 45 90 0 0 1 0 30 92 14 0 81 90 93 0 +0 .0254 0
 -140651632379648e-30 0 -1 0 16 81 11 0 ?63 94 91 92 0 0 1 0 31 255 93 17 0 94 9
2 83 0 +0 .0254 0 0 -1 0 1 0 -612323399573677e-31 .00637159 0 16 94 15 0 ?55 54
 81 93 0 0 1 0 30 83 67 0 62 93 95 0 +-896174534353842e-33 .0254 -.00637159 0 -1
 0 0 30 95 68 0 74 83 96 0 +0 .0254 0 0 -1 0 0 16 74 59 0 ?73 67 62 95 0 0 1 0 3
0 96 69 0 54 95 23 0 +.00637159 .0254 0 0 -1 0 0 16 54 60 0 ?53 62 94 96 0 0 1 0
 31 23 123 0 8 96 97 0 -0 .0127 0 0 1 0 0 0 1 .00637159 0 31 97 390 0 77 23 98 0
 +0 0 0 0 -1 0 1 0 -612323399573677e-31 .00637159 0 16 77 359 0 ?76 15 99 97 0 0
 1 0 30 98 389 0 99 97 100 0 +0 0 0 -140651632379648e-30 0 -1 0 16 99 361 0 ?78
 77 101 98 0 0 1 0 30 100 388 0 101 98 102 0 +.00637159 0 0 -1 0 0 0 16 101 363
 0 ?103 99 0 100 0 0 1 0 30 102 384 0 45 100 16 0 +0 .0254 0 0 -1 0 0 16 45 347
 0 ?40 91 69 102 0 0 1 0 30 16 383 0 69 102 5 0 +-896174534353842e-33 .0254 -.00
637159 0 -1 0 0 17 103 0 104 78 76 39 43 101 0 0 +0 15 104 328 0 103 105 0 0 17
 78 0 104 76 103 37 46 99 0 0 +0 17 76 0 104 103 78 17 70 77 0 43 +0 17 43 0 42
 30 40 17 103 101 0 0 -0 15 42 343 0 30 106 0 0 17 30 0 42 31 43 9 27 15 0 52 -0
 18 17 369 0 27 37 0 6 ?1 0 17 27 0 26 70 21 17 30 15 0 76 +0 16 15 355 0 ?27 69
 77 5 0 0 1 0 17 52 0 50 47 73 9 87 22 0 53 -0 15 50 139 0 52 107 0 0 17 73 0 50
 52 51 24 56 74 0 0 +0 17 51 0 50 73 47 48 108 91 0 0 +0 17 56 0 71 63 66 48 73
 74 0 80 -0 17 80 0 109 108 82 48 63 81 0 51 -0 15 109 18 0 108 110 0 0 17 108 0
 109 82 80 41 51 91 0 0 -0 17 82 0 109 80 108 57 55 94 0 0 -0 17 55 0 60 53 59 4
1 82 94 0 108 +0 14 255 110 19 111 ?88 85 109 112 113 -0 0 0 85 20 0 81 1 111 28
2 114 110 0 0 115 116 117 0 14 88 195 116 ?0 110 86 112 118 -0 0 0 0 119 0 14 85
 62 115 ?110 79 60 112 120 +0 0 110 79 20 0 13 255 112 3 0 0 0 107 0 0 19 0 0 50
 255 113 20 0 110 118 120 0 +0 .0254 0 0 -1 0 0 0 -1 0 13 20 321 0 0 0 0 0 0 7 1
05 0 14 105 324 121 ?106 0 104 119 122 +0 0 13 0 20 0 81 1 121 327 114 105 0 0 1
16 123 124 0 14 106 339 125 ?68 105 42 119 126 +0 0 107 68 20 0 13 119 398 0 0 0
 105 0 0 127 88 0 50 122 381 0 105 128 126 0 +0 0 0 0 -1 0 0 0 -1 0 14 13 329 12
3 ?0 68 26 119 4 +0 0 68 105 20 0 81 1 123 332 114 13 0 0 121 129 130 0 14 68 33
4 129 ?13 106 65 119 14 +0 0 106 13 20 0 81 1 129 337 114 68 0 0 123 125 131 0 5
0 14 379 0 68 126 4 0 +0 .0254 0 -1 0 140651632379648e-30 140651632379648e-30 0
 1 0 50 126 380 0 106 122 14 0 +.00637159 .0254 0 0 0 1 1 0 0 0 80 255 1 114 0 1
32 8001 0 0 0 0 3 5 0 0 0 FFFFTFTFFFFFFF2 0 81 1 125 342 114 106 0 0 129 0 133 0
 83 255 3 131 .5960784 .6666667 .6862745 0 83 3 133 .5960784 .6666667 .6862745 0
 79 255 15 132 SDL/TYSA_COLOUR0 83 3 130 .5960784 .6666667 .6862745 0 50 128 72
 0 107 134 122 0 +.00637159 .0254 0 0 0 1 1 0 0 0 14 107 66 135 ?79 0 50 112 128
 +0 0 79 106 20 0 50 134 71 0 79 120 128 0 +0 .0254 0 -1 0 140651632379648e-30 1
40651632379648e-30 0 1 0 14 79 64 136 ?85 107 71 112 134 +0 0 85 107 20 0 51 120
 70 0 85 113 134 0 +0 .0254 0 0 -1 0 .00637159 0 0 -1 0 81 1 136 280 114 79 0 0
 135 115 137 0 81 1 135 279 114 107 0 0 0 136 138 0 81 1 115 281 114 85 0 0 136
 111 139 0 83 3 137 .5960784 .6666667 .6862745 0 83 3 139 .5960784 .6666667 .686
2745 0 83 3 138 .5960784 .6666667 .6862745 0 19 127 345 0 1 0 19 119 S0 19 19 74
 0 1 127 7 112 S0 81 1 116 283 114 88 0 0 111 121 140 0 83 3 124 .5960784 .66666
67 .6862745 0 83 3 140 .5960784 .6666667 .6862745 0 50 118 202 0 88 0 113 0 +0 .
0127 0 0 1 0 0 0 1 0 83 3 117 .5960784 .6666667 .6862745 0 17 46 0 65 44 38 39 7
8 99 0 103 -0 74 4 CI16 index_map_offset0 0 1 dCCZ20 12 3 0 0 11 125 2 0 0 0 0 0
 0 0 0 0 0 0 0 0 0 0 0 0 0 81 2 11 277 141 1 0 2 0 0 142 143 0 80 2 141 144 145
 8004 0 0 0 0 3 5 0 0 0 FFTFFFFFFFFFFF2 3 0 83 1 142 7830.64369935348 0 84 255 8
 143 Kg/Cu M 0 79 16 145 SDL/TYSA_DENSITY0 80 1 10 146 147 9000 0 0 0 0 3 6 0 0
 0 FFTFTFTTFFFFTF9 0 79 23 147 Sim_NM_AssemblyModelAtt0 1 0 
