**ABCDEFGHIJKLMNOPQRSTUVWXYZabcdefghijklmnopqrstuvwxyz**************************
**PARASOLID !"#$%&'()*+,-./:;<=>?@[\]^_`{|}~0123456789**************************
**PART1;
MC=unknown;
MC_MODEL=unknown;
MC_ID=unknown;
OS=unknown;
OS_RELEASE=unknown;
FRU=sdl_parasolid_customer_support;
APPL=parasolid_acceptance_tests;
SITE=unknown;
USER=unknown;
FORMAT=text;
GUISE=transmit;
KEY=/fasttmp/juham/test/VM33/wedge_nat.x_t;
FILE=/fasttmp/juham/test/VM33/wedge_nat.x_t;
DATE=unknown;
**PART2;
SCH=SCH_2700142_26105;
USFLD_SIZE=1;
**PART3;
**END_OF_HEADER*****************************************************************
T51 : TRANSMIT FILE created by modeller version 270014223 SCH_2700142_26105_1300
6196 1 12 30 CCCCCCCCCCCCCDI5 owner1040 0 CCCCCCCCCA13 boundary_mesh1006 0 A16 i
ndex_map_offset0 0 1 dA9 index_map82 0 A17 node_id_index_map82 0 A20 schema_embe
dding_map82 0 A5 child12 0 A14 lowest_node_id0 0 1 dZ1 486 2 3 0 0 0 0 1e3 1e-8
 0 4 0 1 0 1 1 5 6 7 8 9 10 11 0 0 0 0 0 0 0 0 81 255 1 2 486 12 1 13 0 0 0 14 0
 70 11 CI9 list_type0 0 1 uI10 notransmit0 0 1 lCCCDCCDI12 finger_index0 0 1 dI1
2 finger_block1012 0 CZ3 0 4 T1 0 0 6 20 1 15 15 0 13 255 5 188 0 1 0 16 0 0 17
 0 0 51 255 6 18 0 18 19 0 0 +0 0 0 0 0 1 3 1 0 0 0 30 255 7 347 0 10 20 0 0 --1
 0 0 0 0 1 0 29 255 8 344 0 11 21 0 -1 0 0 0 19 8 CCCCCCCA5 owner12 0 Z9 253 0 1
 17 0 22 V0 0 16 255 10 345 23 ?24 0 25 7 0 0 1 0 18 255 11 340 0 26 0 27 8 ?1 0
 17 255 26 0 28 29 30 11 31 32 0 24 +0 18 27 148 0 33 11 34 21 ?1 0 17 33 0 35 3
6 37 27 38 39 0 40 +0 18 34 144 0 37 27 41 42 ?1 0 29 21 149 0 27 42 8 0 3 0 0 2
9 42 147 0 34 43 21 0 3 .2 0 29 43 124 0 41 44 42 0 1 .2 0 18 41 120 0 45 34 46
 43 ?1 0 29 44 266 0 46 47 43 0 1 0 0 18 46 231 0 48 41 49 44 ?1 0 29 47 438 0 4
9 50 44 -3 0 .2 0 18 49 415 0 51 46 52 47 ?1 0 29 50 439 0 52 53 47 -3 0 0 0 18
 52 412 0 30 49 54 50 ?1 0 29 53 441 0 54 0 50 -1 0 .2 0 18 54 416 0 29 52 0 53
 ?1 0 17 29 0 28 51 26 54 24 10 0 55 -0 15 255 28 427 0 30 56 0 0 17 51 0 28 30
 29 49 55 57 0 58 +0 17 24 0 59 48 60 11 29 10 0 61 +0 17 55 0 62 45 63 54 51 57
 0 60 -0 15 62 372 0 55 64 0 0 17 45 0 62 65 55 41 60 66 0 67 +0 17 63 0 62 55 6
5 49 37 68 0 0 -0 16 57 385 69 ?51 70 32 71 0 0 1 0 17 60 0 59 24 67 54 45 66 0
 0 -0 15 59 135 0 60 72 0 0 17 67 0 59 60 48 41 73 25 0 74 -0 16 66 61 75 ?45 76
 77 78 0 0 1 0 81 1 75 462 79 66 0 0 80 81 82 0 16 76 6 80 ?36 68 66 83 0 0 1 0
 16 77 65 81 ?61 66 39 84 0 0 1 0 31 255 78 87 0 66 84 83 0 +0 0 .2 0 0 -1 1 0 0
 1 0 31 84 88 0 77 85 78 0 +0 0 0 0 0 1 1 0 0 1 0 31 83 10 0 76 78 86 0 +0 0 0 0
 0 1 1 0 0 3 0 31 86 16 0 68 83 20 0 +0 0 .2 0 0 -1 1 0 0 3 0 16 68 12 87 ?37 25
 76 86 0 0 1 0 30 20 136 0 25 86 7 0 -0 1 0 0 0 1 0 16 25 134 88 ?73 10 68 20 0
 0 1 0 81 1 88 313 79 25 0 0 0 89 90 0 17 73 0 91 92 74 46 67 25 0 0 +0 15 91 24
6 0 38 16 0 0 17 92 0 91 38 73 27 93 94 0 0 -0 17 74 0 91 73 38 41 65 95 0 0 -0
 17 38 0 91 74 92 34 33 39 0 0 -0 17 65 0 62 63 45 34 74 95 0 38 +0 16 95 198 89
 ?65 39 94 96 0 0 1 0 81 1 89 314 79 95 0 0 88 97 98 0 16 39 201 97 ?33 77 95 85
 0 0 1 0 16 94 204 99 ?93 95 70 100 0 0 1 0 30 96 258 0 95 100 85 0 +0 0 .2 0 1
 0 0 30 100 259 0 94 101 96 0 +0 0 0 0 -1 0 0 30 85 256 0 39 96 84 0 -0 3 0 0 0
 1 0 30 101 431 0 70 71 100 0 --3 0 0 0 0 1 0 16 70 388 102 ?30 94 57 101 0 0 1
 0 30 71 432 0 57 103 101 0 +0 0 .2 -1 0 0 0 30 103 433 0 32 0 71 0 +0 0 0 1 0 0
 0 16 32 391 104 ?26 57 0 103 0 0 1 0 81 1 104 465 79 32 0 0 102 69 105 0 80 255
 1 79 106 107 9000 1 1 1 1 1 1 1 1 0 FFFFTFTFFFFFFF3 0 81 1 102 464 79 70 0 0 81
 104 108 0 81 1 69 466 79 57 0 0 104 23 109 0 84 255 32 105 a3c53e873957242eba57
a218cb294aac0 81 1 23 467 79 10 0 0 69 110 111 0 84 32 109 7e39a3187e5211a10533d
5d9904dc6610 81 1 110 468 79 112 0 113 23 114 115 0 84 32 111 65adfbc9e385f77a96
a992814338b3c80 14 255 112 9 116 ?18 64 117 5 118 +0 0 18 64 22 0 81 1 113 478 1
19 112 110 116 120 121 122 0 81 1 114 469 79 18 0 121 110 123 124 0 84 32 115 c2
fafe6dafd630e07cf2762c3cb47f340 14 18 2 125 ?72 112 35 5 6 +0 0 72 112 22 0 81 1
 121 480 119 18 114 125 113 126 127 0 81 1 123 470 79 64 0 120 114 128 129 0 84
 32 124 76e9a37da4c5d2b005601927ea15613d0 14 64 15 130 ?112 16 62 5 19 +0 0 112
 16 22 0 81 1 120 476 119 64 123 130 131 113 132 0 81 1 128 471 79 72 0 126 123
 133 134 0 84 32 129 79f9ef8febe1e5201bdf69c74dc21bfd0 14 72 77 135 ?56 18 59 5
 136 -0 0 56 18 22 0 81 1 126 482 119 72 128 135 121 137 138 0 81 1 133 472 79 5
6 0 137 128 0 139 0 84 32 134 91e39db03a6d0f8e2b8a26f808407bd10 14 56 424 140 ?0
 72 28 5 141 -0 0 0 72 22 0 81 1 137 484 119 56 133 140 126 0 142 0 84 32 139 92
51f314ce87462f2ae6a55a815f63290 80 1 119 143 144 8015 0 0 0 0 3 5 0 0 0 FFFFTFFF
FFFFFF2 0 81 1 140 485 145 56 137 0 135 0 146 0 83 255 1 142 0 0 80 1 145 0 147
 8001 0 0 0 0 3 5 0 0 0 FFFFTFTFFFFFFF2 0 81 1 135 483 145 72 126 0 125 140 148
 0 83 3 146 .5960784 .6666667 .6862745 0 81 1 125 481 145 18 121 0 116 135 149 0
 83 3 148 .5960784 .6666667 .6862745 0 81 1 116 479 145 112 113 0 130 125 150 0
 83 3 149 .5960784 .6666667 .6862745 0 81 1 130 477 145 64 120 0 151 116 152 0 8
3 3 150 .5960784 .6666667 .6862745 0 81 1 151 475 145 16 131 0 0 130 153 0 83 3
 152 .5960784 .6666667 .6862745 0 14 16 243 151 ?64 0 91 5 154 +0 0 64 0 22 0 81
 1 131 474 119 16 155 151 0 120 156 0 83 3 153 .5960784 .6666667 .6862745 0 81 1
 155 325 79 16 0 131 99 87 157 0 83 1 156 0 0 81 1 99 319 79 94 0 0 97 155 158 0
 81 1 87 460 79 68 0 0 155 80 159 0 84 32 157 b6da896f71b141170377a0db2dacd2320
 81 1 80 461 79 76 0 0 87 75 160 0 84 32 159 84332bd0967396d21e3d433db553ca360 8
4 32 160 baa3249dbda7a47c81efbbe59b50f3120 81 1 97 316 79 39 0 0 89 99 161 0 84
 32 158 54b9e2aca7fcadfcadf7cd5e0e4de59e0 84 32 161 15361b465c4047928129c8c0aef3
dd860 50 255 154 255 0 16 141 136 0 +0 0 0 1 0 0 0 0 -1 0 13 22 254 0 0 0 0 0 0
 9 16 0 50 141 430 0 56 0 154 0 +0 0 0 0 1 0 0 0 1 0 51 136 84 0 72 154 118 0 +0
 0 0 0 0 1 1 1 0 0 0 50 118 11 0 112 136 19 0 +0 0 0 0 0 -1 -1 0 0 0 50 19 17 0
 64 118 6 0 +0 0 .2 0 0 1 1 0 0 0 79 255 15 147 SDL/TYSA_COLOUR0 79 21 144 SDL/T
YSA_TRANSLUCENCY0 83 1 138 0 0 83 1 132 0 0 83 1 127 0 0 15 35 362 0 58 18 0 0 1
7 58 0 35 37 36 49 30 70 0 63 -0 17 37 0 35 33 58 34 63 68 0 65 +0 17 36 0 35 58
 33 52 40 76 0 0 +0 17 30 0 28 26 51 52 58 70 0 31 +0 17 31 0 117 40 61 52 26 32
 0 36 -0 15 117 367 0 31 112 0 0 17 40 0 117 93 31 27 36 76 0 92 -0 17 61 0 117
 31 93 11 48 77 0 0 +0 17 93 0 117 61 40 46 92 94 0 73 +0 17 48 0 59 67 24 46 61
 77 0 93 -0 83 1 122 0 0 81 1 81 463 79 77 0 0 75 102 162 0 84 32 108 6b9870abbe
5ff6aca63fac90cf62c3130 84 32 162 d9cb40a2682673bfe74b5df74509bf1d0 79 15 107 UG
S/ObjectState0 84 32 98 3c779312d4e42b82a7304c36a4e3a7b20 84 32 90 b6b07392d7081
b794e3d34f6358699c00 84 32 82 42648296878b3cebae5355ab9289366e0 19 17 5 0 1 0 9
 5 S0 0 74 4 CI16 index_map_offset0 0 1 dCCZ20 15 6 0 0 133 163 13 137 140 2 0 0
 0 0 0 0 0 0 0 0 0 0 0 0 0 81 2 163 459 164 1 0 13 0 0 165 166 0 81 1 13 473 167
 1 163 2 0 0 168 0 80 1 167 79 169 9000 0 0 0 0 3 5 0 0 0 FFTFFFFFFFFFFF1 0 82 2
55 1 168 9 0 79 7 169 body_id0 80 2 164 170 171 8004 0 0 0 0 3 5 0 0 0 FFTFFFFFF
FFFFF2 3 0 83 1 165 7830.64 0 84 8 166 Kg/Cu M 0 79 16 171 SDL/TYSA_DENSITY0 80
 1 12 167 172 9000 0 0 0 0 3 5 0 0 0 FFTFFFFFFFFFFF1 0 82 1 14 129 0 79 24 172 U
G2/BODY_COLOR_ATTRIBUTE0 1 0 
