**ABCDEFGHIJKLMNOPQRSTUVWXYZabcdefghijklmnopqrstuvwxyz**************************
**PARASOLID !"#$%&'()*+,-./:;<=>?@[\]^_`{|}~0123456789**************************
**PART1;
MC=SUSE Linux-64;
MC_MODEL=authenticamd family 15 model 10 stepping 0, amd phenom(tm) ii x6 1100t processor;
MC_ID=scrabble;
OS=linux;
OS_RELEASE=2.6.32-5-amd64 #1 smp mon feb 29 00:33:51 utc 2016;
FRU=mdc_ugii_v7.0_djl_can_vrh;
APPL=unigraphics;
SITE=unknown;
USER=juham;
FORMAT=text;
GUISE=transmit;
KEY=wedge;
FILE=/fasttmp/juham/test/VM33/wedge.x_t;
DATE=17-aug-2016;
**PART2;
SCH=SCH_2600169_25001;
USFLD_SIZE=0;
**PART3;
**END_OF_HEADER*****************************************************************
T51 : TRANSMIT FILE created by modeller version 260016923 SCH_2600169_25001_1300
6189 0 12 29 CCCCCCCCCCCCCDI5 owner1040 0 CCCCCCCCCA16 index_map_offset0 0 1 dA9
 index_map82 0 A17 node_id_index_map82 0 A20 schema_embedding_map82 0 A5 child12
 0 A14 lowest_node_id0 0 1 dZ1 486 2 3 0 0 0 0 1e3 1e-8 0 0 0 1 0 1 1 4 5 6 7 8
 9 10 0 0 0 0 0 0 81 255 1 2 486 11 1 12 0 0 0 13 70 11 CI9 list_type0 0 1 uI10
 notransmit0 0 1 lCCCDCCDI12 finger_index0 0 1 dI12 finger_block1012 0 CZ3 0 4 T
1 0 0 6 20 1 14 14 13 255 4 188 0 1 0 15 0 0 16 0 51 255 5 18 0 17 18 0 0 +0 0 0
 0 0 1 3 1 0 0 30 255 6 347 0 9 19 0 0 --1 0 0 0 0 1 29 255 7 344 0 10 20 0 -1 0
 0 19 8 CCCCCCCA5 owner12 0 Z8 253 0 1 16 0 21 V0 16 255 9 345 22 ?23 0 24 6 0 0
 1 18 255 10 340 0 25 0 26 7 ?1 17 255 25 0 27 28 29 10 30 31 0 23 +18 26 148 0
 32 10 33 20 ?1 17 32 0 34 35 36 26 37 38 0 39 +18 33 144 0 36 26 40 41 ?1 29 20
 149 0 26 41 7 0 3 0 29 41 147 0 33 42 20 0 3 .2 29 42 124 0 40 43 41 0 1 .2 18
 40 120 0 44 33 45 42 ?1 29 43 266 0 45 46 42 0 1 0 18 45 231 0 47 40 48 43 ?1 2
9 46 438 0 48 49 43 -3 0 .2 18 48 415 0 50 45 51 46 ?1 29 49 439 0 51 52 46 -3 0
 0 18 51 412 0 29 48 53 49 ?1 29 52 441 0 53 0 49 -1 0 .2 18 53 416 0 28 51 0 52
 ?1 17 28 0 27 50 25 53 23 9 0 54 -15 255 27 427 0 29 55 0 17 50 0 27 29 28 48 5
4 56 0 57 +17 23 0 58 47 59 10 28 9 0 60 +17 54 0 61 44 62 53 50 56 0 59 -15 61
 372 0 54 63 0 17 44 0 61 64 54 40 59 65 0 66 +17 62 0 61 54 64 48 36 67 0 0 -16
 56 385 68 ?50 69 31 70 0 0 1 17 59 0 58 23 66 53 44 65 0 0 -15 58 135 0 59 71 0
 17 66 0 58 59 47 40 72 24 0 73 -16 65 61 74 ?44 75 76 77 0 0 1 81 1 74 462 78 6
5 0 0 79 80 81 16 75 6 79 ?35 67 65 82 0 0 1 16 76 65 80 ?60 65 38 83 0 0 1 31 2
55 77 87 0 65 83 82 0 +0 0 .2 0 0 -1 1 0 0 1 31 83 88 0 76 84 77 0 +0 0 0 0 0 1
 1 0 0 1 31 82 10 0 75 77 85 0 +0 0 0 0 0 1 1 0 0 3 31 85 16 0 67 82 19 0 +0 0 .
2 0 0 -1 1 0 0 3 16 67 12 86 ?36 24 75 85 0 0 1 30 19 136 0 24 85 6 0 -0 1 0 0 0
 1 16 24 134 87 ?72 9 67 19 0 0 1 81 1 87 313 78 24 0 0 0 88 89 17 72 0 90 91 73
 45 66 24 0 0 +15 90 246 0 37 15 0 17 91 0 90 37 72 26 92 93 0 0 -17 73 0 90 72
 37 40 64 94 0 0 -17 37 0 90 73 91 33 32 38 0 0 -17 64 0 61 62 44 33 73 94 0 37
 +16 94 198 88 ?64 38 93 95 0 0 1 81 1 88 314 78 94 0 0 87 96 97 16 38 201 96 ?3
2 76 94 84 0 0 1 16 93 204 98 ?92 94 69 99 0 0 1 30 95 258 0 94 99 84 0 +0 0 .2
 0 1 0 30 99 259 0 93 100 95 0 +0 0 0 0 -1 0 30 84 256 0 38 95 83 0 -0 3 0 0 0 1
 30 100 431 0 69 70 99 0 --3 0 0 0 0 1 16 69 388 101 ?29 93 56 100 0 0 1 30 70 4
32 0 56 102 100 0 +0 0 .2 -1 0 0 30 102 433 0 31 0 70 0 +0 0 0 1 0 0 16 31 391 1
03 ?25 56 0 102 0 0 1 81 1 103 465 78 31 0 0 101 68 104 80 255 1 78 105 106 9000
 1 1 1 1 1 1 1 1 0 FFFFTFTFFFFFFF3 81 1 101 464 78 69 0 0 80 103 107 81 1 68 466
 78 56 0 0 103 22 108 84 255 32 104 a3c53e873957242eba57a218cb294aac81 1 22 467
 78 9 0 0 68 109 110 84 32 108 7e39a3187e5211a10533d5d9904dc66181 1 109 468 78 1
11 0 112 22 113 114 84 32 110 65adfbc9e385f77a96a992814338b3c814 255 111 9 115 ?
17 63 116 4 117 +0 0 17 63 21 81 1 112 478 118 111 109 115 119 120 121 81 1 113
 469 78 17 0 120 109 122 123 84 32 114 c2fafe6dafd630e07cf2762c3cb47f3414 17 2 1
24 ?71 111 34 4 5 +0 0 71 111 21 81 1 120 480 118 17 113 124 112 125 126 81 1 12
2 470 78 63 0 119 113 127 128 84 32 123 76e9a37da4c5d2b005601927ea15613d14 63 15
 129 ?111 15 61 4 18 +0 0 111 15 21 81 1 119 476 118 63 122 129 130 112 131 81 1
 127 471 78 71 0 125 122 132 133 84 32 128 79f9ef8febe1e5201bdf69c74dc21bfd14 71
 77 134 ?55 17 58 4 135 -0 0 55 17 21 81 1 125 482 118 71 127 134 120 136 137 81
 1 132 472 78 55 0 136 127 0 138 84 32 133 91e39db03a6d0f8e2b8a26f808407bd114 55
 424 139 ?0 71 27 4 140 -0 0 0 71 21 81 1 136 484 118 55 132 139 125 0 141 84 32
 138 9251f314ce87462f2ae6a55a815f632980 1 118 142 143 8015 0 0 0 0 3 5 0 0 0 FFF
FTFFFFFFFFF2 81 1 139 485 144 55 136 0 134 0 145 83 255 1 141 0 80 1 144 0 146 8
001 0 0 0 0 3 5 0 0 0 FFFFTFTFFFFFFF2 81 1 134 483 144 71 125 0 124 139 147 83 3
 145 .5960784 .6666667 .6862745 81 1 124 481 144 17 120 0 115 134 148 83 3 147 .
5960784 .6666667 .6862745 81 1 115 479 144 111 112 0 129 124 149 83 3 148 .59607
84 .6666667 .6862745 81 1 129 477 144 63 119 0 150 115 151 83 3 149 .5960784 .66
66667 .6862745 81 1 150 475 144 15 130 0 0 129 152 83 3 151 .5960784 .6666667 .6
862745 14 15 243 150 ?63 0 90 4 153 +0 0 63 0 21 81 1 130 474 118 15 154 150 0 1
19 155 83 3 152 .5960784 .6666667 .6862745 81 1 154 325 78 15 0 130 98 86 156 83
 1 155 0 81 1 98 319 78 93 0 0 96 154 157 81 1 86 460 78 67 0 0 154 79 158 84 32
 156 b6da896f71b141170377a0db2dacd23281 1 79 461 78 75 0 0 86 74 159 84 32 158 8
4332bd0967396d21e3d433db553ca3684 32 159 baa3249dbda7a47c81efbbe59b50f31281 1 96
 316 78 38 0 0 88 98 160 84 32 157 54b9e2aca7fcadfcadf7cd5e0e4de59e84 32 160 153
61b465c4047928129c8c0aef3dd8650 255 153 255 0 15 140 135 0 +0 0 0 1 0 0 0 0 -1 1
3 21 254 0 0 0 0 0 0 8 15 50 140 430 0 55 0 153 0 +0 0 0 0 1 0 0 0 1 51 135 84 0
 71 153 117 0 +0 0 0 0 0 1 1 1 0 0 50 117 11 0 111 135 18 0 +0 0 0 0 0 -1 -1 0 0
 50 18 17 0 63 117 5 0 +0 0 .2 0 0 1 1 0 0 79 255 15 146 SDL/TYSA_COLOUR79 21 14
3 SDL/TYSA_TRANSLUCENCY83 1 137 0 83 1 131 0 83 1 126 0 15 34 362 0 57 17 0 17 5
7 0 34 36 35 48 29 69 0 62 -17 36 0 34 32 57 33 62 67 0 64 +17 35 0 34 57 32 51
 39 75 0 0 +17 29 0 27 25 50 51 57 69 0 30 +17 30 0 116 39 60 51 25 31 0 35 -15
 116 367 0 30 111 0 17 39 0 116 92 30 26 35 75 0 91 -17 60 0 116 30 92 10 47 76
 0 0 +17 92 0 116 60 39 45 91 93 0 72 +17 47 0 58 66 23 45 60 76 0 92 -83 1 121
 0 81 1 80 463 78 76 0 0 74 101 161 84 32 107 6b9870abbe5ff6aca63fac90cf62c31384
 32 161 d9cb40a2682673bfe74b5df74509bf1d79 15 106 UGS/ObjectState84 32 97 3c7793
12d4e42b82a7304c36a4e3a7b284 32 89 b6b07392d7081b794e3d34f6358699c084 32 81 4264
8296878b3cebae5355ab9289366e19 16 5 0 1 0 8 4 S0 74 4 CI16 index_map_offset0 0 1
 dCCZ20 14 6 0 0 132 162 12 136 139 2 0 0 0 0 0 0 0 0 0 0 0 0 0 0 81 2 162 459 1
63 1 0 12 0 0 164 165 81 1 12 473 105 1 162 2 0 0 166 80 1 105 167 168 9000 0 0
 0 0 3 5 0 0 0 FFTFFFFFFFFFFF1 82 255 1 166 9 79 7 168 body_id80 2 163 169 170 8
004 0 0 0 0 3 5 0 0 0 FFTFFFFFFFFFFF2 3 83 1 164 7830.64 84 8 165 Kg/Cu M 79 16
 170 SDL/TYSA_DENSITY80 1 11 171 172 9000 0 0 0 0 3 5 0 0 0 FFTFFFFFFFFFFF1 82 1
 13 129 79 24 172 UG2/BODY_COLOR_ATTRIBUTE1 0 
