**ABCDEFGHIJKLMNOPQRSTUVWXYZabcdefghijklmnopqrstuvwxyz**************************
**PARASOLID !"#$%&'()*+,-./:;<=>?@[\]^_`{|}~0123456789**************************
**PART1;
MC=Intel x86/Windows NT;
MC_MODEL=genuineintel family 6 model 7 stepping 6, intel(r) core(tm)2 duo cpu     p8600  @ 2.40ghz;
MC_ID=kai-vaio-laptop;
OS=windows nt;
OS_RELEASE=6.2 (workstation) (build 9200) ;
FRU=mdc_ugii_v7.0_djl_can_vrh;
APPL=unigraphics;
SITE=unknown;
USER=dennislu;
FORMAT=text;
GUISE=transmit;
KEY=2d-square;
FILE=C:\Users\dennislu\Dropbox\RPI\Research\CAD Model\Parasolid\NXModels\2d-square.xmt_txt;
DATE=17-oct-2014;
**PART2;
SCH=SCH_2500176_25001;
USFLD_SIZE=0;
**PART3;
**END_OF_HEADER*****************************************************************
T51 : TRANSMIT FILE created by modeller version 250017617 SCH_1700000_161000 12
 1 51 2 3 0 0 0 0 1e3 1e-8 0 0 0 1 0 3 1 4 5 6 7 8 9 10 81 1 2 51 11 1 12 0 0 0
 13 70 3 0 4 T1 0 0 5 20 1 14 14 13 4 3 0 1 0 15 0 0 8 15 124 5 17 0 15 0 0 0 +1
6 17 134 6 24 0 18 19 0 0 -20 21 29 7 25 0 22 23 0 -113686837721616e-30 1 0 19 8
 5 0 1 0 0 4 V16 9 6 24 ?25 0 26 27 0 0 1 18 10 15 0 28 0 29 23 ?1 17 28 0 30 31
 32 10 33 34 0 35 +18 29 13 0 32 10 36 37 ?1 29 23 23 0 10 37 7 0 0 0 29 37 21 0
 29 38 23 1 0 0 29 38 19 0 36 0 37 1 1 0 18 36 11 0 39 29 22 38 ?1 17 39 0 0 0 0
 36 32 26 0 25 -18 22 10 0 31 36 0 7 ?1 17 31 0 30 25 28 22 35 18 0 40 +15 30 7
 0 25 15 0 17 25 0 30 32 31 36 40 9 0 0 +17 35 0 0 0 0 10 31 18 0 0 -16 18 16 41
 ?31 34 0 6 0 0 1 17 40 0 0 0 0 22 25 9 0 0 -81 1 41 46 42 18 0 0 43 44 45 16 34
 14 43 ?28 26 18 19 0 0 1 81 1 43 45 42 34 0 0 46 41 47 16 26 12 46 ?32 9 34 48
 0 0 1 134 19 22 0 34 48 6 0 -49 50 134 48 20 0 26 27 19 0 +51 52 136 49 1 2 3 2
 5 FFF1 53 54 55 135 50 1 0 45 6 53 0 0 0 1 0 0 127 2 54 2 2 128 2 55 0 1 134 27
 18 0 9 0 48 0 +56 57 136 51 1 2 3 2 5 FFF1 58 59 60 135 52 1 0 45 6 58 1 1 0 1
 0 0 127 2 59 2 2 128 2 60 0 1 136 56 1 2 3 2 5 FFF1 61 62 63 135 57 1 0 45 6 61
 -113686837721616e-30 1 0 1 1 0 127 2 62 2 2 128 2 63 0 1 81 1 46 44 42 26 0 0 2
4 43 64 17 32 0 30 28 25 29 39 26 0 33 +17 33 0 0 0 0 29 28 34 0 0 -80 1 42 65 6
6 9000 1 1 1 1 1 1 1 1 0 FFFFTFTFFFFFFF3 81 1 24 43 42 9 0 0 0 46 67 84 32 64 86
468b428fbd22ed58a0ef1205e194a384 32 67 8300ae59f5393a7de9d913142ff8873779 15 66
 UGS/ObjectState84 32 47 6275895e874189a1f25c235e4a5d97a681 1 44 47 42 15 0 68 4
1 0 69 84 32 45 cab63c585795744e2927321efdea837f14 15 2 68 ?0 0 30 4 5 +0 0 0 0
 4 81 1 68 50 70 15 44 0 0 0 71 84 32 69 d17b4d02d8e2ee240a4d2546e177b44b80 1 70
 0 72 8001 0 0 0 0 3 5 0 0 0 FFFFTFTFFFFFFF2 83 3 71 .5019608 .6352941 .7058824
 79 15 72 SDL/TYSA_COLOUR136 20 1 2 3 2 5 FFF1 73 74 75 135 21 1 0 45 6 73 -1136
86837721616e-30 1 0 0 0 0 127 2 74 2 2 128 2 75 0 1 126 16 FF1 1 2 2 5 5 2 2 FFF
3 3 76 77 78 79 80 125 17 0 1 0 1 0 1 0 1 1 BBBB????????0 0 0 0 45 12 76 -113686
837721616e-30 1 0 0 0 0 1 1 0 1 0 0 127 2 77 2 2 127 2 78 2 2 128 2 79 0 1 128 2
 80 0 1 74 20 14 5 0 44 81 12 68 2 0 0 0 0 0 0 0 0 0 0 0 0 0 0 0 81 2 81 48 82 1
 0 12 0 0 83 84 81 1 12 49 85 1 81 2 0 0 86 80 1 85 87 88 9000 0 0 0 0 3 5 0 0 0
 FFTFFFFFFFFFFF1 82 1 86 8 79 7 88 body_id80 2 82 89 90 8004 0 0 0 0 3 5 0 0 0 F
FTFFFFFFFFFFF2 3 83 1 83 7830.64 84 8 84 Kg/Cu M 79 16 90 SDL/TYSA_DENSITY80 1 1
1 91 92 9000 0 0 0 0 3 5 0 0 0 FFTFFFFFFFFFFF1 82 1 13 171 79 24 92 UG2/BODY_COL
OR_ATTRIBUTE1 0 
