**ABCDEFGHIJKLMNOPQRSTUVWXYZabcdefghijklmnopqrstuvwxyz**************************
**PARASOLID !"#$%&'()*+,-./:;<=>?@[\]^_`{|}~0123456789**************************
**PART1;
MC=AMD64;
MC_MODEL=Intel64 Family 6 Model 42 Stepping 7, GenuineIntel;
MC_ID=unknown;
OS=Windows_NT;
OS_RELEASE=unknown;
FRU=Parasolid Version 22.1, build 256, 12- 1-2010;
APPL=SolidWorks 2011-2011006;
SITE=;
USER=unknown;
FORMAT=text;
GUISE=transmit;
KEY=unit_cube;
FILE=unit_cube.x_t;
DATE=Mon Sep 16 09:29:19 2013;
**PART2;
SCH=SCH_2201256_20000;
USFLD_SIZE=0;
**PART3;
**END_OF_HEADER*****************************************************************
T51 : TRANSMIT FILE created by modeller version 220125623 SCH_2201256_20000_1300
6186 0 12 27 CCCCCCCCCCCCCCCCCCCCCCCA16 index_map_offset0 0 1 dA9 index_map82 0
 A17 node_id_index_map82 0 A20 schema_embedding_map82 0 Z1 164 0 2 0 0 0 0 1e3 1
e-8 0 3 0 1 0 1 1 4 5 6 7 8 9 10 0 0 0 0 70 11 CI9 list_type0 0 1 uI10 notransmi
t0 0 1 lCCCDCCDI12 finger_index0 0 1 dI12 finger_block1012 0 CZ2 0 4 T1 0 0 2 20
 1 11 11 13 255 4 94 0 1 0 12 0 0 13 0 50 255 5 93 0 12 14 0 0 +0 0 1 1 0 0 0 0
 -1 30 255 6 89 0 9 15 0 0 +0 0 1 0 0 -1 29 255 7 70 0 16 17 0 0 1 0 19 255 8 28
 0 1 13 0 18 V16 255 9 77 0 ?19 0 20 6 0 0 1 18 255 10 25 0 21 0 22 23 ?1 17 255
 21 0 24 25 26 10 27 28 0 29 +18 22 22 0 26 10 30 31 ?1 29 23 27 0 10 31 32 0 1
 1 29 31 24 0 22 33 23 1 1 1 29 32 73 0 34 23 35 0 0 0 18 34 64 0 36 37 0 32 ?1
 29 35 72 0 37 32 17 1 0 0 18 37 63 0 38 39 34 35 ?1 29 17 71 0 39 35 7 1 1 0 18
 39 62 0 40 16 37 17 ?1 17 40 0 41 42 43 39 44 45 0 46 +18 16 61 0 47 48 39 7 ?1
 17 47 0 49 29 46 16 50 51 0 52 +18 48 16 0 53 30 16 54 ?1 17 53 0 55 19 56 48 5
7 58 0 25 -18 30 19 0 57 22 48 33 ?1 29 54 18 0 48 0 33 0 0 1 29 33 21 0 30 54 3
1 1 0 1 17 57 0 24 26 25 30 53 58 0 56 +15 255 24 3 0 25 59 0 17 26 0 24 21 57 2
2 60 61 0 42 +17 25 0 24 57 21 48 62 63 0 64 +16 58 7 0 ?57 61 63 65 0 0 1 17 56
 0 55 53 38 30 43 20 0 60 -15 55 82 0 38 66 0 17 38 0 55 56 19 37 36 67 0 43 +17
 43 0 41 40 60 37 56 20 0 44 +16 20 76 0 ?43 9 68 15 0 0 1 17 60 0 41 43 42 30 2
6 61 0 0 -15 41 80 0 40 69 0 17 42 0 41 60 40 22 46 68 0 27 -16 61 10 0 ?26 28 5
8 70 0 0 1 16 28 13 0 ?21 71 61 72 0 0 1 30 70 11 0 61 65 72 0 +1 0 1 0 1 0 30 6
5 8 0 58 73 70 0 +0 0 1 1 0 0 30 72 14 0 28 70 74 0 +0 1 1 -1 0 0 30 74 69 0 75
 72 76 0 +0 0 0 0 -1 0 16 75 57 0 ?77 67 0 74 0 0 1 30 76 68 0 67 74 78 0 +0 0 0
 1 0 0 16 67 53 0 ?38 45 75 76 0 0 1 30 78 67 0 45 76 79 0 +1 0 0 0 1 0 16 45 49
 0 ?40 51 67 78 0 0 1 30 79 66 0 51 78 80 0 +0 1 0 -1 0 0 16 51 45 0 ?47 63 45 7
9 0 0 1 30 80 86 0 71 79 81 0 +0 1 1 0 0 -1 16 71 74 0 ?52 68 28 80 0 0 1 30 81
 87 0 68 80 15 0 +1 1 1 0 0 -1 16 68 75 0 ?46 20 71 81 0 0 1 30 15 88 0 20 81 6
 0 +1 0 1 0 0 -1 17 46 0 49 47 27 39 42 68 0 50 +15 49 78 0 47 82 0 17 27 0 49 4
6 29 22 21 28 0 0 -17 50 0 83 44 84 39 47 51 0 0 -15 83 44 0 84 85 0 17 44 0 83
 36 50 37 40 45 0 0 -17 84 0 83 50 36 16 77 75 0 0 -17 36 0 83 84 44 34 38 67 0
 19 -17 77 0 86 64 52 34 84 75 0 0 +15 86 84 0 77 12 0 17 64 0 86 62 77 48 19 9
 0 0 -17 52 0 86 77 62 16 29 71 0 84 +17 62 0 86 52 64 10 25 63 0 0 -17 29 0 49
 27 47 10 52 71 0 62 -16 63 4 0 ?25 58 51 73 0 0 1 30 73 5 0 63 0 65 0 +0 0 1 0
 -1 0 17 19 0 55 38 53 34 64 9 0 77 +14 255 12 85 87 ?66 0 86 4 5 -0 0 66 0 18 8
1 255 1 87 159 88 12 89 0 0 90 91 14 66 83 90 ?69 12 55 4 14 -0 0 69 12 18 13 18
 29 0 0 0 0 0 0 8 12 81 1 90 160 88 66 92 0 87 93 94 14 69 81 93 ?82 66 41 4 95
 -0 0 82 66 18 50 14 92 0 66 95 5 0 +0 0 1 0 1 0 0 0 1 50 95 91 0 69 96 14 0 +1
 0 1 -1 0 0 0 0 1 50 96 90 0 82 97 95 0 +0 1 1 0 -1 0 0 0 -1 14 82 79 98 ?59 69
 49 4 96 -0 0 59 69 18 50 97 65 0 85 99 96 0 +0 1 0 0 0 -1 -1 0 0 14 85 43 100 ?
0 59 83 4 97 +0 0 0 59 18 50 99 2 0 59 0 97 0 +0 1 1 0 0 -1 -1 0 0 14 59 1 101 ?
85 82 24 4 99 -0 0 85 82 18 81 1 101 164 88 59 102 0 100 0 103 80 255 1 88 104 1
05 9000 1 1 1 1 1 1 1 1 0 FFFFTFTFFFFFFF1 81 1 102 143 106 59 0 101 107 108 109
 81 1 100 163 88 85 108 0 98 101 110 82 255 1 103 115736680 81 1 108 144 106 85
 0 100 102 0 111 81 1 98 162 88 82 107 0 93 100 112 82 1 110 119210088 81 1 107
 142 106 82 0 98 113 102 114 81 1 93 161 88 69 113 0 90 98 115 82 1 112 12229028
0 81 1 113 141 106 69 0 93 92 107 116 82 1 115 122552424 80 1 106 0 117 8001 0 0
 0 0 3 5 0 0 0 FFFFTFTFFFFFFF2 81 1 92 140 106 66 0 90 89 113 118 83 255 3 116 .
792156862745098 .819607843137255 .933333333333333 81 1 89 139 106 12 0 87 0 92 1
19 83 3 118 .792156862745098 .819607843137255 .933333333333333 83 3 119 .7921568
62745098 .819607843137255 .933333333333333 79 255 15 117 SDL/TYSA_COLOUR83 3 114
 .792156862745098 .819607843137255 .933333333333333 83 3 111 .792156862745098 .8
19607843137255 .933333333333333 83 3 109 .792156862745098 .819607843137255 .9333
33333333333 79 14 105 SWEntUnchanged82 1 94 122814568 82 1 91 123076712 19 13 95
 0 1 0 8 4 S74 4 CI16 index_map_offset0 0 1 dCCZ20 11 2 0 0 101 108 0 0 0 0 0 0
 0 0 0 0 0 0 0 0 0 0 0 0 1 0 
