2500 0 1 0           
7 SimAcis 15 ACIS 25.0 Linux 24 Sat Apr 23 00:58:00 2016 
1 9.9999999999999995e-07 1e-10 
T @52 789YP8V_3TRMC7HXPRC5Z_GHK8S3GMNE5CTKQZQUJCMCN8PW2BT4 
body $1 -1 -1 $-1 $2 $-1 $-1 T -15 -4 -4 15 4 4 #
string_attrib-name_attrib-gen-attrib $-1 -1 $3 $-1 $0 2 4 1 1 1 1 1 1 1 1 1 1 1 1 0 1 1 1 @11 SimCompName @74 /lore/granzb/albany/examples/PerformanceTests/NSVortexShedding/3DPumi/geom #
lump $4 -1 -1 $-1 $-1 $5 $0 T -15 -4 -4 15 4 4 #
integer_attrib-name_attrib-gen-attrib $-1 -1 $-1 $1 $0 2 1 1 1 1 1 1 1 1 1 1 1 1 1 0 1 1 1 @8 CUBIT_ID 1 #
cell_ptr-ct-attrib $-1 -1 $6 $-1 $2 1 1 1 1 1 1 1 1 1 1 1 1 0 1 0 1 1 1 $7 $-1 auto #
shell $-1 -1 -1 $-1 $-1 $-1 $8 $-1 $2 T -15 -4 -4 15 4 4 #
integer_attrib-name_attrib-gen-attrib $-1 -1 $-1 $4 $2 2 1 1 1 1 1 1 1 1 1 1 1 1 1 0 1 1 1 @8 CUBIT_ID 1 #
cell3d-cell $9 -1 $-1 $2 $-1 1 $10 #
face $11 -1 -1 $-1 $12 $13 $5 $-1 $14 reversed single F F #
integer_attrib-name_attrib-gen-attrib $-1 -1 $-1 $-1 $7 0 0 0 1 1 1 1 1 1 1 1 0 1 0 0 1 0 1 @6 GS_tag 1 #
cshell $-1 -1 $-1 $15 $7 #
integer_attrib-name_attrib-gen-attrib $-1 -1 $16 $-1 $8 0 0 0 1 1 1 1 1 1 1 1 0 1 0 0 1 0 1 @6 GS_tag 13 #
face $17 -1 -1 $-1 $18 $19 $5 $-1 $20 reversed single F F #
loop $-1 -1 -1 $-1 $21 $22 $8 T -9.6500000000000004 -0.55000000000000004 -4 -9.1500000000000004 -0.049999999999999989 -4 unknown #
cone-surface $-1 -1 -1 $-1 -9.4000000000000004 -0.29999999999999999 -0.5 0 0 1 0.25 0 0 1 I I 0 1 0.25 forward I I I I #
cface $-1 -1 $23 $10 $24 0 #
cface_ptr-ct-attrib $-1 -1 $25 $11 $8 1 1 1 1 1 1 1 1 1 1 1 1 0 1 0 1 1 1 $-1 $26 #
integer_attrib-name_attrib-gen-attrib $-1 -1 $27 $-1 $12 0 0 0 1 1 1 1 1 1 1 1 0 1 0 0 1 0 1 @6 GS_tag 10 #
face $28 -1 -1 $-1 $29 $30 $5 $-1 $31 reversed single F F #
loop $-1 -1 -1 $-1 $32 $33 $12 T -9.6500000000000004 0.049999999999999989 -4 -9.1500000000000004 0.55000000000000004 -4 unknown #
cone-surface $-1 -1 -1 $-1 -9.4000000000000004 0.29999999999999999 -0.5 0 0 1 0.25 0 0 1 I I 0 1 0.25 forward I I I I #
loop $-1 -1 -1 $-1 $-1 $34 $8 T -9.6500000000000004 -0.55000000000000004 4 -9.1500000000000004 -0.049999999999999989 4 unknown #
coedge $-1 -1 -1 $-1 $22 $22 $35 $36 reversed $13 $37 #
cface $-1 -1 $38 $10 $39 0 #
face $40 -1 -1 $-1 $41 $42 $5 $-1 $43 reversed single F F #
integer_attrib-name_attrib-gen-attrib $-1 -1 $-1 $16 $8 2 1 1 1 1 1 1 1 1 1 1 1 1 1 0 1 1 1 @8 CUBIT_ID 43 #
cface $-1 -1 $-1 $10 $8 0 #
cface_ptr-ct-attrib $-1 -1 $44 $17 $12 1 1 1 1 1 1 1 1 1 1 1 1 0 1 0 1 1 1 $-1 $45 #
integer_attrib-name_attrib-gen-attrib $-1 -1 $46 $-1 $18 0 0 0 1 1 1 1 1 1 1 1 0 1 0 0 1 0 1 @6 GS_tag 9 #
face $47 -1 -1 $-1 $48 $49 $5 $-1 $50 reversed single F F #
loop $-1 -1 -1 $-1 $51 $52 $18 T -10.85 -0.55000000000000004 -4 -10.35 -0.049999999999999989 -4 unknown #
cone-surface $-1 -1 -1 $-1 -10.6 -0.29999999999999999 -0.5 0 0 1 0.25 0 0 1 I I 0 1 0.25 forward I I I I #
loop $-1 -1 -1 $-1 $-1 $53 $12 T -9.6500000000000004 0.049999999999999989 4 -9.1500000000000004 0.55000000000000004 4 unknown #
coedge $-1 -1 -1 $-1 $33 $33 $54 $55 reversed $19 $56 #
coedge $-1 -1 -1 $-1 $34 $34 $57 $58 reversed $21 $59 #
coedge $-1 -1 -1 $-1 $35 $35 $22 $36 forward $60 $61 #
edge $62 -1 -1 $-1 $63 -3.1415926535897931 $63 3.1415926535897931 $35 $64 forward @7 unknown T -9.6500000000000004 -0.55000000000000004 -4 -9.1500000000000004 -0.049999999999999989 -4 #
pcurve $-1 -1 -1 $-1 0 forward { exppc 0 nubs 1 periodic 2 
	-3.1415926535897931 1 3.1415926535897931 1 
	-14 3.1415926535897931 
	-14 -3.1415926535897931 
	0 
	0 
	cone -9.4000000000000004 -0.29999999999999999 -0.5 0 0 1 0.25 0 0 1 I I -0 -1 0.25 forward I I I I 
	} 0 0 #
cface $-1 -1 $65 $10 $66 0 #
face $67 -1 -1 $-1 $24 $68 $5 $-1 $69 reversed single F F #
integer_attrib-name_attrib-gen-attrib $-1 -1 $70 $-1 $24 0 0 0 1 1 1 1 1 1 1 1 0 1 0 0 1 0 1 @6 GS_tag 1 #
face $71 -1 -1 $-1 $-1 $72 $5 $-1 $73 reversed single F F #
loop $-1 -1 -1 $-1 $-1 $74 $24 T -15 4 -4 15 4 4 unknown #
plane-surface $-1 -1 -1 $-1 0 4 0 0 -1 0 0 0 -1 forward_v I I I I #
integer_attrib-name_attrib-gen-attrib $-1 -1 $-1 $27 $12 2 1 1 1 1 1 1 1 1 1 1 1 1 1 0 1 1 1 @8 CUBIT_ID 37 #
cface $-1 -1 $75 $10 $12 0 #
cface_ptr-ct-attrib $-1 -1 $76 $28 $18 1 1 1 1 1 1 1 1 1 1 1 1 0 1 0 1 1 1 $-1 $77 #
integer_attrib-name_attrib-gen-attrib $-1 -1 $78 $-1 $29 0 0 0 1 1 1 1 1 1 1 1 0 1 0 0 1 0 1 @6 GS_tag 8 #
face $79 -1 -1 $-1 $80 $81 $5 $-1 $82 reversed single F F #
loop $-1 -1 -1 $-1 $83 $84 $29 T -10.85 0.049999999999999989 -4 -10.35 0.55000000000000004 -4 unknown #
cone-surface $-1 -1 -1 $-1 -10.6 0.29999999999999999 -0.5 0 0 1 0.25 0 0 1 I I 0 1 0.25 forward I I I I #
loop $-1 -1 -1 $-1 $-1 $85 $18 T -10.85 -0.55000000000000004 4 -10.35 -0.049999999999999989 4 unknown #
coedge $-1 -1 -1 $-1 $52 $52 $86 $87 reversed $30 $88 #
coedge $-1 -1 -1 $-1 $53 $53 $89 $90 reversed $32 $91 #
coedge $-1 -1 -1 $-1 $54 $54 $33 $55 forward $92 $93 #
edge $94 -1 -1 $-1 $95 -3.1415926535897931 $95 3.1415926535897931 $54 $96 forward @7 unknown T -9.6500000000000004 0.049999999999999989 -4 -9.1500000000000004 0.55000000000000004 -4 #
pcurve $-1 -1 -1 $-1 0 forward { exppc 1 nubs 1 periodic 2 
	-3.1415926535897931 1 3.1415926535897931 1 
	-14 3.1415926535897931 
	-14 -3.1415926535897931 
	0 
	0 
	cone -9.4000000000000004 0.29999999999999999 -0.5 0 0 1 0.25 0 0 1 I I -0 -1 0.25 forward I I I I 
	} 0 0 #
coedge $-1 -1 -1 $-1 $57 $57 $34 $58 forward $97 $98 #
edge $99 -1 -1 $-1 $100 -3.1415926535897931 $100 3.1415926535897931 $57 $101 forward @7 unknown T -9.6500000000000004 -0.55000000000000004 4 -9.1500000000000004 -0.049999999999999989 4 #
pcurve $-1 -1 -1 $-1 0 forward { exppc 2 nubs 1 periodic 2 
	-3.1415926535897931 1 3.1415926535897931 1 
	18 -3.1415926535897931 
	18 3.1415926535897931 
	0 
	0 
	cone -9.4000000000000004 -0.29999999999999999 -0.5 0 0 1 0.25 0 0 1 I I -0 -1 0.25 forward I I I I 
	} 0 0 #
loop $-1 -1 -1 $-1 $92 $35 $102 T -9.6500000000000004 -0.55000000000000004 -4 -9.1500000000000004 -0.049999999999999989 -4 unknown #
pcurve $-1 -1 -1 $-1 0 forward { exppc 3 nurbs 2 periodic 5 
	-3.1415926535897931 2 -1.5707963267948968 2 0 2 1.5707963267948966 2 3.1415926535897931 2 
	-9.6500000000000004 -0.30000000000000004 1 
	-9.6500000000000004 -0.55000000000000004 0.70710678118654258 
	-9.4000000000000004 -0.55000000000000004 1 
	-9.1500000000000004 -0.55000000000000004 0.70710678118654269 
	-9.1500000000000004 -0.29999999999999999 1 
	-9.1500000000000004 -0.05000000000000001 0.70710678118654358 
	-9.4000000000000004 -0.049999999999999989 1 
	-9.6500000000000004 -0.049999999999999968 0.70710678118654291 
	-9.6500000000000004 -0.29999999999999993 1 
	1e-08 
	-1 
	plane 0 0 -4 -0 -0 -1 1 0 0 reverse_v I I I I 
	} 0 0 #
integer_attrib-name_attrib-gen-attrib $-1 -1 $103 $-1 $36 0 0 0 1 1 1 1 1 1 1 1 0 1 0 0 1 0 1 @6 GS_tag 26 #
vertex $104 -1 -1 $-1 $36 $105 #
ellipse-curve $-1 -1 -1 $-1 -9.4000000000000004 -0.29999999999999999 -4 0 0 1 0.25 0 0 1 I I #
cface $-1 -1 $106 $10 $41 0 #
face $107 -1 -1 $-1 $39 $108 $5 $-1 $109 reversed single F F #
integer_attrib-name_attrib-gen-attrib $-1 -1 $110 $-1 $39 0 0 0 1 1 1 1 1 1 1 1 0 1 0 0 1 0 1 @6 GS_tag 2 #
loop $-1 -1 -1 $-1 $-1 $111 $39 T -15 -4 -4 -15 4 4 unknown #
plane-surface $-1 -1 -1 $-1 -15 0 0 1 0 0 0 0 -1 forward_v I I I I #
cface_ptr-ct-attrib $-1 -1 $112 $40 $24 1 1 1 1 1 1 1 1 1 1 1 1 0 1 0 1 1 1 $-1 $15 #
integer_attrib-name_attrib-gen-attrib $-1 -1 $113 $-1 $41 0 0 0 1 1 1 1 1 1 1 1 0 1 0 0 1 0 1 @6 GS_tag 4 #
loop $-1 -1 -1 $-1 $-1 $114 $41 T 15 -4 -4 15 4 4 unknown #
plane-surface $-1 -1 -1 $-1 15 0 0 -1 0 0 0 -0 1 forward_v I I I I #
coedge $-1 -1 -1 $-1 $115 $116 $117 $118 forward $42 $119 #
cface $-1 -1 $120 $10 $121 0 #
integer_attrib-name_attrib-gen-attrib $-1 -1 $-1 $46 $18 2 1 1 1 1 1 1 1 1 1 1 1 1 1 0 1 1 1 @8 CUBIT_ID 31 #
cface $-1 -1 $45 $10 $18 0 #
cface_ptr-ct-attrib $-1 -1 $122 $47 $29 1 1 1 1 1 1 1 1 1 1 1 1 0 1 0 1 1 1 $-1 $123 #
integer_attrib-name_attrib-gen-attrib $-1 -1 $124 $-1 $48 0 0 0 1 1 1 1 1 1 1 1 0 1 0 0 1 0 1 @6 GS_tag 7 #
face $125 -1 -1 $-1 $126 $127 $5 $-1 $128 reversed single F F #
loop $-1 -1 -1 $-1 $129 $130 $48 T -10.25 -0.84999999999999998 -4 -9.75 -0.34999999999999998 -4 unknown #
cone-surface $-1 -1 -1 $-1 -10 -0.59999999999999998 -0.5 0 0 1 0.25 0 0 1 I I 0 1 0.25 forward I I I I #
loop $-1 -1 -1 $-1 $-1 $131 $29 T -10.85 0.049999999999999989 4 -10.35 0.55000000000000004 4 unknown #
coedge $-1 -1 -1 $-1 $84 $84 $132 $133 reversed $49 $134 #
coedge $-1 -1 -1 $-1 $85 $85 $135 $136 reversed $51 $137 #
coedge $-1 -1 -1 $-1 $86 $86 $52 $87 forward $138 $139 #
edge $140 -1 -1 $-1 $141 -3.1415926535897931 $141 3.1415926535897931 $86 $142 forward @7 unknown T -10.85 -0.55000000000000004 -4 -10.35 -0.049999999999999989 -4 #
pcurve $-1 -1 -1 $-1 0 forward { exppc 4 nubs 1 periodic 2 
	-3.1415926535897931 1 3.1415926535897931 1 
	-14 3.1415926535897931 
	-14 -3.1415926535897931 
	0 
	0 
	cone -10.6 -0.29999999999999999 -0.5 0 0 1 0.25 0 0 1 I I -0 -1 0.25 forward I I I I 
	} 0 0 #
coedge $-1 -1 -1 $-1 $89 $89 $53 $90 forward $143 $144 #
edge $145 -1 -1 $-1 $146 -3.1415926535897931 $146 3.1415926535897931 $89 $147 forward @7 unknown T -9.6500000000000004 0.049999999999999989 4 -9.1500000000000004 0.55000000000000004 4 #
pcurve $-1 -1 -1 $-1 0 forward { exppc 5 nubs 1 periodic 2 
	-3.1415926535897931 1 3.1415926535897931 1 
	18 -3.1415926535897931 
	18 3.1415926535897931 
	0 
	0 
	cone -9.4000000000000004 0.29999999999999999 -0.5 0 0 1 0.25 0 0 1 I I -0 -1 0.25 forward I I I I 
	} 0 0 #
loop $-1 -1 -1 $-1 $138 $54 $102 T -9.6500000000000004 0.049999999999999989 -4 -9.1500000000000004 0.55000000000000004 -4 unknown #
pcurve $-1 -1 -1 $-1 0 forward { exppc 6 nurbs 2 periodic 5 
	-3.1415926535897931 2 -1.5707963267948968 2 0 2 1.5707963267948974 2 3.1415926535897931 2 
	-9.6500000000000004 0.29999999999999993 1 
	-9.6500000000000004 0.049999999999999968 0.70710678118654291 
	-9.4000000000000004 0.049999999999999989 1 
	-9.1500000000000004 0.05000000000000001 0.70710678118654358 
	-9.1500000000000004 0.29999999999999999 1 
	-9.1500000000000004 0.55000000000000004 0.70710678118654269 
	-9.4000000000000004 0.55000000000000004 1 
	-9.6500000000000004 0.55000000000000004 0.70710678118654258 
	-9.6500000000000004 0.30000000000000004 1 
	1e-08 
	-1 
	plane 0 0 -4 -0 -0 -1 1 0 0 reverse_v I I I I 
	} 0 0 #
integer_attrib-name_attrib-gen-attrib $-1 -1 $148 $-1 $55 0 0 0 1 1 1 1 1 1 1 1 0 1 0 0 1 0 1 @6 GS_tag 23 #
vertex $149 -1 -1 $-1 $55 $150 #
ellipse-curve $-1 -1 -1 $-1 -9.4000000000000004 0.29999999999999999 -4 0 0 1 0.25 0 0 1 I I #
loop $-1 -1 -1 $-1 $143 $57 $121 T -9.6500000000000004 -0.55000000000000004 4 -9.1500000000000004 -0.049999999999999989 4 unknown #
pcurve $-1 -1 -1 $-1 0 forward { exppc 7 nurbs 2 periodic 5 
	-3.1415926535897931 2 -1.5707963267948968 2 0 2 1.5707963267948974 2 3.1415926535897931 2 
	-9.6500000000000004 -0.29999999999999993 1 
	-9.6500000000000004 -0.049999999999999968 0.70710678118654291 
	-9.4000000000000004 -0.049999999999999989 1 
	-9.1500000000000004 -0.05000000000000001 0.70710678118654358 
	-9.1500000000000004 -0.29999999999999999 1 
	-9.1500000000000004 -0.55000000000000004 0.70710678118654269 
	-9.4000000000000004 -0.55000000000000004 1 
	-9.6500000000000004 -0.55000000000000004 0.70710678118654258 
	-9.6500000000000004 -0.30000000000000004 1 
	1e-08 
	-1 
	plane 0 0 4 0 0 1 1 0 0 forward_v I I I I 
	} 0 0 #
integer_attrib-name_attrib-gen-attrib $-1 -1 $151 $-1 $58 0 0 0 1 1 1 1 1 1 1 1 0 1 0 0 1 0 1 @6 GS_tag 25 #
vertex $152 -1 -1 $-1 $58 $153 #
ellipse-curve $-1 -1 -1 $-1 -9.4000000000000004 -0.29999999999999999 4 -0 -0 -1 0.25 0 0 1 I I #
face $154 -1 -1 $-1 $66 $60 $5 $-1 $155 reversed single F F #
integer_attrib-name_attrib-gen-attrib $-1 -1 $-1 $62 $36 2 1 1 1 1 1 1 1 1 1 1 1 1 1 0 1 1 1 @8 CUBIT_ID 37 #
integer_attrib-name_attrib-gen-attrib $-1 -1 $156 $-1 $63 0 0 0 1 1 1 1 1 1 1 1 0 1 0 0 1 0 1 @6 GS_tag 22 #
point $-1 -1 -1 $-1 -9.6500000000000004 -0.30000000000000004 -4 #
cface $-1 -1 $157 $10 $126 0 #
integer_attrib-name_attrib-gen-attrib $-1 -1 $158 $-1 $66 0 0 0 1 1 1 1 1 1 1 1 0 1 0 0 1 0 1 @6 GS_tag 3 #
loop $-1 -1 -1 $-1 $-1 $159 $66 T -15 -4 -4 15 -4 4 unknown #
plane-surface $-1 -1 -1 $-1 0 -4 0 0 1 -0 -0 0 1 forward_v I I I I #
cface_ptr-ct-attrib $-1 -1 $160 $67 $39 1 1 1 1 1 1 1 1 1 1 1 1 0 1 0 1 1 1 $-1 $23 #
coedge $-1 -1 -1 $-1 $161 $162 $163 $164 forward $68 $165 #
integer_attrib-name_attrib-gen-attrib $-1 -1 $-1 $70 $24 2 1 1 1 1 1 1 1 1 1 1 1 1 1 0 1 1 1 @8 CUBIT_ID 5 #
cface_ptr-ct-attrib $-1 -1 $166 $71 $41 1 1 1 1 1 1 1 1 1 1 1 1 0 1 0 1 1 1 $-1 $65 #
coedge $-1 -1 -1 $-1 $167 $168 $169 $170 forward $72 $171 #
coedge $-1 -1 -1 $-1 $163 $74 $172 $173 reversed $42 $174 #
coedge $-1 -1 -1 $-1 $74 $163 $175 $176 reversed $42 $177 #
coedge $-1 -1 -1 $-1 $168 $167 $74 $118 reversed $72 $178 #
edge $179 -1 -1 $-1 $180 -4 $181 4 $117 $182 forward @7 unknown T 15 4 -4 15 4 4 #
pcurve $-1 -1 -1 $-1 0 forward { exppc 8 nubs 1 open 2 
	-4 1 4 1 
	-4 15 
	4 15 
	0 
	0 
	plane 0 4 0 -0 1 -0 0 0 -1 reverse_v I I I I 
	} 0 0 #
cface $-1 -1 $26 $10 $102 0 #
face $183 -1 -1 $-1 $102 $97 $5 $-1 $184 forward single F F #
integer_attrib-name_attrib-gen-attrib $-1 -1 $-1 $78 $29 2 1 1 1 1 1 1 1 1 1 1 1 1 1 0 1 1 1 @8 CUBIT_ID 25 #
cface $-1 -1 $77 $10 $29 0 #
cface_ptr-ct-attrib $-1 -1 $185 $79 $48 1 1 1 1 1 1 1 1 1 1 1 1 0 1 0 1 1 1 $-1 $186 #
integer_attrib-name_attrib-gen-attrib $-1 -1 $187 $-1 $80 0 0 0 1 1 1 1 1 1 1 1 0 1 0 0 1 0 1 @6 GS_tag 6 #
face $188 -1 -1 $-1 $121 $189 $5 $-1 $190 reversed single F F #
loop $-1 -1 -1 $-1 $191 $192 $80 T -10.25 0.34999999999999998 -4 -9.75 0.84999999999999998 -4 unknown #
cone-surface $-1 -1 -1 $-1 -10 0.59999999999999998 -0.5 0 0 1 0.25 0 0 1 I I 0 1 0.25 forward I I I I #
loop $-1 -1 -1 $-1 $-1 $193 $48 T -10.25 -0.84999999999999998 4 -9.75 -0.34999999999999998 4 unknown #
coedge $-1 -1 -1 $-1 $130 $130 $194 $195 reversed $81 $196 #
coedge $-1 -1 -1 $-1 $131 $131 $197 $198 reversed $83 $199 #
coedge $-1 -1 -1 $-1 $132 $132 $84 $133 forward $200 $201 #
edge $202 -1 -1 $-1 $203 -3.1415926535897931 $203 3.1415926535897931 $132 $204 forward @7 unknown T -10.85 0.049999999999999989 -4 -10.35 0.55000000000000004 -4 #
pcurve $-1 -1 -1 $-1 0 forward { exppc 9 nubs 1 periodic 2 
	-3.1415926535897931 1 3.1415926535897931 1 
	-14 3.1415926535897931 
	-14 -3.1415926535897931 
	0 
	0 
	cone -10.6 0.29999999999999999 -0.5 0 0 1 0.25 0 0 1 I I -0 -1 0.25 forward I I I I 
	} 0 0 #
coedge $-1 -1 -1 $-1 $135 $135 $85 $136 forward $205 $206 #
edge $207 -1 -1 $-1 $208 -3.1415926535897931 $208 3.1415926535897931 $135 $209 forward @7 unknown T -10.85 -0.55000000000000004 4 -10.35 -0.049999999999999989 4 #
pcurve $-1 -1 -1 $-1 0 forward { exppc 10 nubs 1 periodic 2 
	-3.1415926535897931 1 3.1415926535897931 1 
	18 -3.1415926535897931 
	18 3.1415926535897931 
	0 
	0 
	cone -10.6 -0.29999999999999999 -0.5 0 0 1 0.25 0 0 1 I I -0 -1 0.25 forward I I I I 
	} 0 0 #
loop $-1 -1 -1 $-1 $200 $86 $102 T -10.85 -0.55000000000000004 -4 -10.35 -0.049999999999999989 -4 unknown #
pcurve $-1 -1 -1 $-1 0 forward { exppc 11 nurbs 2 periodic 5 
	-3.1415926535897931 2 -1.5707963267948968 2 0 2 1.5707963267948966 2 3.1415926535897931 2 
	-10.85 -0.30000000000000004 1 
	-10.85 -0.55000000000000004 0.70710678118654258 
	-10.6 -0.55000000000000004 1 
	-10.35 -0.55000000000000004 0.70710678118654269 
	-10.35 -0.29999999999999999 1 
	-10.35 -0.05000000000000001 0.70710678118654358 
	-10.6 -0.049999999999999989 1 
	-10.85 -0.049999999999999968 0.70710678118654291 
	-10.85 -0.29999999999999993 1 
	1e-08 
	-1 
	plane 0 0 -4 -0 -0 -1 1 0 0 reverse_v I I I I 
	} 0 0 #
integer_attrib-name_attrib-gen-attrib $-1 -1 $210 $-1 $87 0 0 0 1 1 1 1 1 1 1 1 0 1 0 0 1 0 1 @6 GS_tag 21 #
vertex $211 -1 -1 $-1 $87 $212 #
ellipse-curve $-1 -1 -1 $-1 -10.6 -0.29999999999999999 -4 0 0 1 0.25 0 0 1 I I #
loop $-1 -1 -1 $-1 $205 $89 $121 T -9.6500000000000004 0.049999999999999989 4 -9.1500000000000004 0.55000000000000004 4 unknown #
pcurve $-1 -1 -1 $-1 0 forward { exppc 12 nurbs 2 periodic 5 
	-3.1415926535897931 2 -1.5707963267948968 2 0 2 1.5707963267948966 2 3.1415926535897931 2 
	-9.6500000000000004 0.30000000000000004 1 
	-9.6500000000000004 0.55000000000000004 0.70710678118654258 
	-9.4000000000000004 0.55000000000000004 1 
	-9.1500000000000004 0.55000000000000004 0.70710678118654269 
	-9.1500000000000004 0.29999999999999999 1 
	-9.1500000000000004 0.05000000000000001 0.70710678118654358 
	-9.4000000000000004 0.049999999999999989 1 
	-9.6500000000000004 0.049999999999999968 0.70710678118654291 
	-9.6500000000000004 0.29999999999999993 1 
	1e-08 
	-1 
	plane 0 0 4 0 0 1 1 0 0 forward_v I I I I 
	} 0 0 #
integer_attrib-name_attrib-gen-attrib $-1 -1 $213 $-1 $90 0 0 0 1 1 1 1 1 1 1 1 0 1 0 0 1 0 1 @6 GS_tag 24 #
vertex $214 -1 -1 $-1 $90 $215 #
ellipse-curve $-1 -1 -1 $-1 -9.4000000000000004 0.29999999999999999 4 -0 -0 -1 0.25 0 0 1 I I #
integer_attrib-name_attrib-gen-attrib $-1 -1 $-1 $94 $55 2 1 1 1 1 1 1 1 1 1 1 1 1 1 0 1 1 1 @8 CUBIT_ID 33 #
integer_attrib-name_attrib-gen-attrib $-1 -1 $216 $-1 $95 0 0 0 1 1 1 1 1 1 1 1 0 1 0 0 1 0 1 @6 GS_tag 19 #
point $-1 -1 -1 $-1 -9.6500000000000004 0.29999999999999993 -4 #
integer_attrib-name_attrib-gen-attrib $-1 -1 $-1 $99 $58 2 1 1 1 1 1 1 1 1 1 1 1 1 1 0 1 1 1 @8 CUBIT_ID 38 #
integer_attrib-name_attrib-gen-attrib $-1 -1 $217 $-1 $100 0 0 0 1 1 1 1 1 1 1 1 0 1 0 0 1 0 1 @6 GS_tag 21 #
point $-1 -1 -1 $-1 -9.6500000000000004 -0.29999999999999993 4 #
integer_attrib-name_attrib-gen-attrib $-1 -1 $218 $-1 $102 0 0 0 1 1 1 1 1 1 1 1 0 1 0 0 1 0 1 @6 GS_tag 12 #
plane-surface $-1 -1 -1 $-1 0 0 -4 0 0 1 1 0 0 forward_v I I I I #
integer_attrib-name_attrib-gen-attrib $-1 -1 $-1 $104 $63 2 1 1 1 1 1 1 1 1 1 1 1 1 1 0 1 1 1 @8 CUBIT_ID 33 #
cface $-1 -1 $186 $10 $80 0 #
cface_ptr-ct-attrib $-1 -1 $219 $107 $66 1 1 1 1 1 1 1 1 1 1 1 1 0 1 0 1 1 1 $-1 $38 #
coedge $-1 -1 -1 $-1 $220 $221 $222 $223 forward $108 $224 #
integer_attrib-name_attrib-gen-attrib $-1 -1 $-1 $110 $39 2 1 1 1 1 1 1 1 1 1 1 1 1 1 0 1 1 1 @8 CUBIT_ID 4 #
coedge $-1 -1 -1 $-1 $222 $111 $225 $226 reversed $68 $227 #
coedge $-1 -1 -1 $-1 $111 $222 $228 $229 reversed $68 $230 #
coedge $-1 -1 -1 $-1 $116 $115 $111 $164 reversed $42 $231 #
edge $232 -1 -1 $-1 $233 -4 $234 4 $163 $235 forward @7 unknown T -15 4 -4 -15 4 4 #
pcurve $-1 -1 -1 $-1 0 forward { exppc 13 nubs 1 open 2 
	-4 1 4 1 
	-4 4 
	4 4 
	0 
	0 
	plane -15 0 0 -1 -0 -0 0 0 -1 reverse_v I I I I 
	} 0 0 #
integer_attrib-name_attrib-gen-attrib $-1 -1 $-1 $113 $41 2 1 1 1 1 1 1 1 1 1 1 1 1 1 0 1 1 1 @8 CUBIT_ID 6 #
coedge $-1 -1 -1 $-1 $117 $114 $236 $237 reversed $72 $238 #
coedge $-1 -1 -1 $-1 $114 $117 $239 $240 reversed $72 $241 #
coedge $-1 -1 -1 $-1 $221 $220 $114 $170 reversed $108 $242 #
edge $243 -1 -1 $-1 $244 -4 $245 4 $114 $246 forward @7 unknown T 15 -4 -4 15 -4 4 #
pcurve $-1 -1 -1 $-1 0 forward { exppc 14 nubs 1 open 2 
	-4 1 4 1 
	4 -4 
	-4 -4 
	0 
	0 
	plane 15 0 0 1 -0 -0 0 -0 1 reverse_v I I I I 
	} 0 0 #
coedge $-1 -1 -1 $-1 $236 $225 $115 $173 forward $247 $248 #
edge $249 -1 -1 $-1 $234 -15 $181 15 $115 $250 forward @7 unknown T -15 4 -4 15 4 -4 #
pcurve $-1 -1 -1 $-1 0 forward { exppc 15 nubs 1 open 2 
	-15 1 15 1 
	4 15 
	4 -15 
	0 
	0 
	plane 0 4 0 -0 1 -0 0 0 -1 reverse_v I I I I 
	} 0 0 #
coedge $-1 -1 -1 $-1 $228 $239 $116 $176 forward $251 $252 #
edge $253 -1 -1 $-1 $180 -15 $233 15 $116 $254 forward @7 unknown T -15 4 4 15 4 4 #
pcurve $-1 -1 -1 $-1 0 forward { exppc 16 nubs 1 open 2 
	-15 1 15 1 
	-4 -15 
	-4 15 
	0 
	0 
	plane 0 4 0 -0 1 -0 0 0 -1 reverse_v I I I I 
	} 0 0 #
pcurve $-1 -1 -1 $-1 0 forward { exppc 17 nubs 1 open 2 
	-4 1 4 1 
	-4 4 
	4 4 
	0 
	0 
	plane 15 0 0 1 -0 -0 0 -0 1 reverse_v I I I I 
	} 0 0 #
integer_attrib-name_attrib-gen-attrib $-1 -1 $255 $-1 $118 0 0 0 1 1 1 1 1 1 1 1 0 1 0 0 1 0 1 @6 GS_tag 1 #
vertex $256 -1 -1 $-1 $240 $257 #
vertex $258 -1 -1 $-1 $237 $259 #
straight-curve $-1 -1 -1 $-1 15 4 0 0 0 -1 I I #
integer_attrib-name_attrib-gen-attrib $-1 -1 $260 $-1 $121 0 0 0 1 1 1 1 1 1 1 1 0 1 0 0 1 0 1 @6 GS_tag 11 #
plane-surface $-1 -1 -1 $-1 0 0 4 0 0 1 1 0 0 forward_v I I I I #
integer_attrib-name_attrib-gen-attrib $-1 -1 $-1 $124 $48 2 1 1 1 1 1 1 1 1 1 1 1 1 1 0 1 1 1 @8 CUBIT_ID 19 #
cface $-1 -1 $123 $10 $48 0 #
cface_ptr-ct-attrib $-1 -1 $261 $125 $80 1 1 1 1 1 1 1 1 1 1 1 1 0 1 0 1 1 1 $-1 $157 #
integer_attrib-name_attrib-gen-attrib $-1 -1 $262 $-1 $126 0 0 0 1 1 1 1 1 1 1 1 0 1 0 0 1 0 1 @6 GS_tag 5 #
loop $-1 -1 -1 $-1 $263 $264 $126 T -10.25 -0.25 -4 -9.75 0.25 -4 unknown #
cone-surface $-1 -1 -1 $-1 -10 0 -0.5 0 0 1 0.25 0 0 1 I I 0 1 0.25 forward I I I I #
loop $-1 -1 -1 $-1 $-1 $265 $80 T -10.25 0.34999999999999998 4 -9.75 0.84999999999999998 4 unknown #
coedge $-1 -1 -1 $-1 $192 $192 $266 $267 reversed $127 $268 #
coedge $-1 -1 -1 $-1 $193 $193 $269 $270 reversed $129 $271 #
coedge $-1 -1 -1 $-1 $194 $194 $130 $195 forward $272 $273 #
edge $274 -1 -1 $-1 $275 -3.1415926535897931 $275 3.1415926535897931 $194 $276 forward @7 unknown T -10.25 -0.84999999999999998 -4 -9.75 -0.34999999999999998 -4 #
pcurve $-1 -1 -1 $-1 0 forward { exppc 18 nubs 1 periodic 2 
	-3.1415926535897931 1 3.1415926535897931 1 
	-14 3.1415926535897931 
	-14 -3.1415926535897931 
	0 
	0 
	cone -10 -0.59999999999999998 -0.5 0 0 1 0.25 0 0 1 I I -0 -1 0.25 forward I I I I 
	} 0 0 #
coedge $-1 -1 -1 $-1 $197 $197 $131 $198 forward $277 $278 #
edge $279 -1 -1 $-1 $280 -3.1415926535897931 $280 3.1415926535897931 $197 $281 forward @7 unknown T -10.85 0.049999999999999989 4 -10.35 0.55000000000000004 4 #
pcurve $-1 -1 -1 $-1 0 forward { exppc 19 nubs 1 periodic 2 
	-3.1415926535897931 1 3.1415926535897931 1 
	18 -3.1415926535897931 
	18 3.1415926535897931 
	0 
	0 
	cone -10.6 0.29999999999999999 -0.5 0 0 1 0.25 0 0 1 I I -0 -1 0.25 forward I I I I 
	} 0 0 #
loop $-1 -1 -1 $-1 $272 $132 $102 T -10.85 0.049999999999999989 -4 -10.35 0.55000000000000004 -4 unknown #
pcurve $-1 -1 -1 $-1 0 forward { exppc 20 nurbs 2 periodic 5 
	-3.1415926535897931 2 -1.5707963267948968 2 0 2 1.5707963267948974 2 3.1415926535897931 2 
	-10.85 0.29999999999999993 1 
	-10.85 0.049999999999999968 0.70710678118654291 
	-10.6 0.049999999999999989 1 
	-10.35 0.05000000000000001 0.70710678118654358 
	-10.35 0.29999999999999999 1 
	-10.35 0.55000000000000004 0.70710678118654269 
	-10.6 0.55000000000000004 1 
	-10.85 0.55000000000000004 0.70710678118654258 
	-10.85 0.30000000000000004 1 
	1e-08 
	-1 
	plane 0 0 -4 -0 -0 -1 1 0 0 reverse_v I I I I 
	} 0 0 #
integer_attrib-name_attrib-gen-attrib $-1 -1 $282 $-1 $133 0 0 0 1 1 1 1 1 1 1 1 0 1 0 0 1 0 1 @6 GS_tag 19 #
vertex $283 -1 -1 $-1 $133 $284 #
ellipse-curve $-1 -1 -1 $-1 -10.6 0.29999999999999999 -4 0 0 1 0.25 0 0 1 I I #
loop $-1 -1 -1 $-1 $277 $135 $121 T -10.85 -0.55000000000000004 4 -10.35 -0.049999999999999989 4 unknown #
pcurve $-1 -1 -1 $-1 0 forward { exppc 21 nurbs 2 periodic 5 
	-3.1415926535897931 2 -1.5707963267948968 2 0 2 1.5707963267948974 2 3.1415926535897931 2 
	-10.85 -0.29999999999999993 1 
	-10.85 -0.049999999999999968 0.70710678118654291 
	-10.6 -0.049999999999999989 1 
	-10.35 -0.05000000000000001 0.70710678118654358 
	-10.35 -0.29999999999999999 1 
	-10.35 -0.55000000000000004 0.70710678118654269 
	-10.6 -0.55000000000000004 1 
	-10.85 -0.55000000000000004 0.70710678118654258 
	-10.85 -0.30000000000000004 1 
	1e-08 
	-1 
	plane 0 0 4 0 0 1 1 0 0 forward_v I I I I 
	} 0 0 #
integer_attrib-name_attrib-gen-attrib $-1 -1 $285 $-1 $136 0 0 0 1 1 1 1 1 1 1 1 0 1 0 0 1 0 1 @6 GS_tag 22 #
vertex $286 -1 -1 $-1 $136 $287 #
ellipse-curve $-1 -1 -1 $-1 -10.6 -0.29999999999999999 4 -0 -0 -1 0.25 0 0 1 I I #
integer_attrib-name_attrib-gen-attrib $-1 -1 $-1 $140 $87 2 1 1 1 1 1 1 1 1 1 1 1 1 1 0 1 1 1 @8 CUBIT_ID 29 #
integer_attrib-name_attrib-gen-attrib $-1 -1 $288 $-1 $141 0 0 0 1 1 1 1 1 1 1 1 0 1 0 0 1 0 1 @6 GS_tag 17 #
point $-1 -1 -1 $-1 -10.85 -0.30000000000000004 -4 #
integer_attrib-name_attrib-gen-attrib $-1 -1 $-1 $145 $90 2 1 1 1 1 1 1 1 1 1 1 1 1 1 0 1 1 1 @8 CUBIT_ID 34 #
integer_attrib-name_attrib-gen-attrib $-1 -1 $289 $-1 $146 0 0 0 1 1 1 1 1 1 1 1 0 1 0 0 1 0 1 @6 GS_tag 20 #
point $-1 -1 -1 $-1 -9.6500000000000004 0.30000000000000004 4 #
integer_attrib-name_attrib-gen-attrib $-1 -1 $-1 $149 $95 2 1 1 1 1 1 1 1 1 1 1 1 1 1 0 1 1 1 @8 CUBIT_ID 29 #
integer_attrib-name_attrib-gen-attrib $-1 -1 $-1 $152 $100 2 1 1 1 1 1 1 1 1 1 1 1 1 1 0 1 1 1 @8 CUBIT_ID 34 #
cface_ptr-ct-attrib $-1 -1 $290 $154 $102 1 1 1 1 1 1 1 1 1 1 1 1 0 1 0 1 1 1 $-1 $120 #
integer_attrib-name_attrib-gen-attrib $-1 -1 $-1 $158 $66 2 1 1 1 1 1 1 1 1 1 1 1 1 1 0 1 1 1 @8 CUBIT_ID 3 #
coedge $-1 -1 -1 $-1 $169 $159 $291 $292 reversed $108 $293 #
coedge $-1 -1 -1 $-1 $159 $169 $294 $295 reversed $108 $296 #
coedge $-1 -1 -1 $-1 $162 $161 $159 $223 reversed $68 $297 #
edge $298 -1 -1 $-1 $299 -4 $300 4 $222 $301 forward @7 unknown T -15 -4 -4 -15 -4 4 #
pcurve $-1 -1 -1 $-1 0 forward { exppc 22 nubs 1 open 2 
	-4 1 4 1 
	4 -15 
	-4 -15 
	0 
	0 
	plane 0 -4 0 -0 -1 0 -0 0 1 reverse_v I I I I 
	} 0 0 #
coedge $-1 -1 -1 $-1 $172 $291 $161 $226 forward $247 $302 #
edge $303 -1 -1 $-1 $300 -4 $234 4 $161 $304 forward @7 unknown T -15 -4 -4 -15 4 -4 #
pcurve $-1 -1 -1 $-1 0 forward { exppc 23 nubs 1 open 2 
	-4 1 4 1 
	4 4 
	4 -4 
	0 
	0 
	plane -15 0 0 -1 -0 -0 0 0 -1 reverse_v I I I I 
	} 0 0 #
coedge $-1 -1 -1 $-1 $294 $175 $162 $229 forward $251 $305 #
edge $306 -1 -1 $-1 $233 -4 $299 4 $162 $307 forward @7 unknown T -15 -4 4 -15 4 4 #
pcurve $-1 -1 -1 $-1 0 forward { exppc 24 nubs 1 open 2 
	-4 1 4 1 
	-4 -4 
	-4 4 
	0 
	0 
	plane -15 0 0 -1 -0 -0 0 0 -1 reverse_v I I I I 
	} 0 0 #
pcurve $-1 -1 -1 $-1 0 forward { exppc 25 nubs 1 open 2 
	-4 1 4 1 
	4 -15 
	-4 -15 
	0 
	0 
	plane 0 4 0 -0 1 -0 0 0 -1 reverse_v I I I I 
	} 0 0 #
integer_attrib-name_attrib-gen-attrib $-1 -1 $308 $-1 $164 0 0 0 1 1 1 1 1 1 1 1 0 1 0 0 1 0 1 @6 GS_tag 3 #
vertex $309 -1 -1 $-1 $176 $310 #
vertex $311 -1 -1 $-1 $173 $312 #
straight-curve $-1 -1 -1 $-1 -15 4 0 0 0 -1 I I #
coedge $-1 -1 -1 $-1 $291 $172 $167 $237 forward $247 $313 #
edge $314 -1 -1 $-1 $181 -4 $245 4 $167 $315 forward @7 unknown T 15 -4 -4 15 4 -4 #
pcurve $-1 -1 -1 $-1 0 forward { exppc 26 nubs 1 open 2 
	-4 1 4 1 
	-4 -4 
	-4 4 
	0 
	0 
	plane 15 0 0 1 -0 -0 0 -0 1 reverse_v I I I I 
	} 0 0 #
coedge $-1 -1 -1 $-1 $175 $294 $168 $240 forward $251 $316 #
edge $317 -1 -1 $-1 $244 -4 $180 4 $168 $318 forward @7 unknown T 15 -4 4 15 4 4 #
pcurve $-1 -1 -1 $-1 0 forward { exppc 27 nubs 1 open 2 
	-4 1 4 1 
	4 4 
	4 -4 
	0 
	0 
	plane 15 0 0 1 -0 -0 0 -0 1 reverse_v I I I I 
	} 0 0 #
pcurve $-1 -1 -1 $-1 0 forward { exppc 28 nubs 1 open 2 
	-4 1 4 1 
	-4 15 
	4 15 
	0 
	0 
	plane 0 -4 0 -0 -1 0 -0 0 1 reverse_v I I I I 
	} 0 0 #
integer_attrib-name_attrib-gen-attrib $-1 -1 $319 $-1 $170 0 0 0 1 1 1 1 1 1 1 1 0 1 0 0 1 0 1 @6 GS_tag 9 #
vertex $320 -1 -1 $-1 $240 $321 #
vertex $322 -1 -1 $-1 $170 $323 #
straight-curve $-1 -1 -1 $-1 15 -4 0 0 0 -1 I I #
loop $-1 -1 -1 $-1 $-1 $236 $102 T -15 -4 -4 15 4 -4 unknown #
pcurve $-1 -1 -1 $-1 0 forward { exppc 29 nubs 1 open 2 
	-15 1 15 1 
	-15 4 
	15 4 
	0 
	0 
	plane 0 0 -4 -0 -0 -1 1 0 0 reverse_v I I I I 
	} 0 0 #
integer_attrib-name_attrib-gen-attrib $-1 -1 $324 $-1 $173 0 0 0 1 1 1 1 1 1 1 1 0 1 0 0 1 0 1 @6 GS_tag 2 #
straight-curve $-1 -1 -1 $-1 0 4 -4 1 0 0 I I #
loop $-1 -1 -1 $-1 $-1 $239 $121 T -15 -4 4 15 4 4 unknown #
pcurve $-1 -1 -1 $-1 0 forward { exppc 30 nubs 1 open 2 
	-15 1 15 1 
	15 4 
	-15 4 
	0 
	0 
	plane 0 0 4 0 0 1 1 0 0 forward_v I I I I 
	} 0 0 #
integer_attrib-name_attrib-gen-attrib $-1 -1 $325 $-1 $176 0 0 0 1 1 1 1 1 1 1 1 0 1 0 0 1 0 1 @6 GS_tag 4 #
straight-curve $-1 -1 -1 $-1 0 4 4 -1 0 0 I I #
integer_attrib-name_attrib-gen-attrib $-1 -1 $-1 $179 $118 2 1 1 1 1 1 1 1 1 1 1 1 1 1 0 1 1 1 @8 CUBIT_ID 12 #
integer_attrib-name_attrib-gen-attrib $-1 -1 $326 $-1 $180 0 0 0 1 1 1 1 1 1 1 1 0 1 0 0 1 0 1 @6 GS_tag 1 #
point $-1 -1 -1 $-1 15 4 4 #
integer_attrib-name_attrib-gen-attrib $-1 -1 $327 $-1 $181 0 0 0 1 1 1 1 1 1 1 1 0 1 0 0 1 0 1 @6 GS_tag 2 #
point $-1 -1 -1 $-1 15 4 -4 #
cface_ptr-ct-attrib $-1 -1 $328 $183 $121 1 1 1 1 1 1 1 1 1 1 1 1 0 1 0 1 1 1 $-1 $75 #
integer_attrib-name_attrib-gen-attrib $-1 -1 $-1 $187 $80 2 1 1 1 1 1 1 1 1 1 1 1 1 1 0 1 1 1 @8 CUBIT_ID 13 #
cface_ptr-ct-attrib $-1 -1 $329 $188 $126 1 1 1 1 1 1 1 1 1 1 1 1 0 1 0 1 1 1 $-1 $106 #
loop $-1 -1 -1 $-1 $-1 $330 $126 T -10.25 -0.25 4 -9.75 0.25 4 unknown #
coedge $-1 -1 -1 $-1 $264 $264 $331 $332 reversed $189 $333 #
coedge $-1 -1 -1 $-1 $265 $265 $334 $335 reversed $191 $336 #
coedge $-1 -1 -1 $-1 $266 $266 $192 $267 forward $337 $338 #
edge $339 -1 -1 $-1 $340 -3.1415926535897931 $340 3.1415926535897931 $266 $341 forward @7 unknown T -10.25 0.34999999999999998 -4 -9.75 0.84999999999999998 -4 #
pcurve $-1 -1 -1 $-1 0 forward { exppc 31 nubs 1 periodic 2 
	-3.1415926535897931 1 3.1415926535897931 1 
	-14 3.1415926535897931 
	-14 -3.1415926535897931 
	0 
	0 
	cone -10 0.59999999999999998 -0.5 0 0 1 0.25 0 0 1 I I -0 -1 0.25 forward I I I I 
	} 0 0 #
coedge $-1 -1 -1 $-1 $269 $269 $193 $270 forward $342 $343 #
edge $344 -1 -1 $-1 $345 -3.1415926535897931 $345 3.1415926535897931 $269 $346 forward @7 unknown T -10.25 -0.84999999999999998 4 -9.75 -0.34999999999999998 4 #
pcurve $-1 -1 -1 $-1 0 forward { exppc 32 nubs 1 periodic 2 
	-3.1415926535897931 1 3.1415926535897931 1 
	18 -3.1415926535897931 
	18 3.1415926535897931 
	0 
	0 
	cone -10 -0.59999999999999998 -0.5 0 0 1 0.25 0 0 1 I I -0 -1 0.25 forward I I I I 
	} 0 0 #
loop $-1 -1 -1 $-1 $337 $194 $102 T -10.25 -0.84999999999999998 -4 -9.75 -0.34999999999999998 -4 unknown #
pcurve $-1 -1 -1 $-1 0 forward { exppc 33 nurbs 2 periodic 5 
	-3.1415926535897931 2 -1.5707963267948968 2 -4.4408920985006262e-16 2 1.5707963267948966 2 3.1415926535897931 2 
	-10.25 -0.59999999999999998 1 
	-10.25 -0.84999999999999998 0.70710678118654324 
	-10 -0.84999999999999998 1 
	-9.75 -0.84999999999999998 0.70710678118654324 
	-9.75 -0.59999999999999998 1 
	-9.75 -0.34999999999999998 0.70710678118654324 
	-10 -0.34999999999999998 1 
	-10.25 -0.34999999999999998 0.70710678118654324 
	-10.25 -0.59999999999999998 1 
	1e-08 
	-1 
	plane 0 0 -4 -0 -0 -1 1 0 0 reverse_v I I I I 
	} 0 0 #
integer_attrib-name_attrib-gen-attrib $-1 -1 $347 $-1 $195 0 0 0 1 1 1 1 1 1 1 1 0 1 0 0 1 0 1 @6 GS_tag 17 #
vertex $348 -1 -1 $-1 $195 $349 #
ellipse-curve $-1 -1 -1 $-1 -10 -0.59999999999999998 -4 0 0 1 0.25 0 0 1 I I #
loop $-1 -1 -1 $-1 $342 $197 $121 T -10.85 0.049999999999999989 4 -10.35 0.55000000000000004 4 unknown #
pcurve $-1 -1 -1 $-1 0 forward { exppc 34 nurbs 2 periodic 5 
	-3.1415926535897931 2 -1.5707963267948968 2 0 2 1.5707963267948966 2 3.1415926535897931 2 
	-10.85 0.30000000000000004 1 
	-10.85 0.55000000000000004 0.70710678118654258 
	-10.6 0.55000000000000004 1 
	-10.35 0.55000000000000004 0.70710678118654269 
	-10.35 0.29999999999999999 1 
	-10.35 0.05000000000000001 0.70710678118654358 
	-10.6 0.049999999999999989 1 
	-10.85 0.049999999999999968 0.70710678118654291 
	-10.85 0.29999999999999993 1 
	1e-08 
	-1 
	plane 0 0 4 0 0 1 1 0 0 forward_v I I I I 
	} 0 0 #
integer_attrib-name_attrib-gen-attrib $-1 -1 $350 $-1 $198 0 0 0 1 1 1 1 1 1 1 1 0 1 0 0 1 0 1 @6 GS_tag 20 #
vertex $351 -1 -1 $-1 $198 $352 #
ellipse-curve $-1 -1 -1 $-1 -10.6 0.29999999999999999 4 -0 -0 -1 0.25 0 0 1 I I #
integer_attrib-name_attrib-gen-attrib $-1 -1 $-1 $202 $133 2 1 1 1 1 1 1 1 1 1 1 1 1 1 0 1 1 1 @8 CUBIT_ID 25 #
integer_attrib-name_attrib-gen-attrib $-1 -1 $353 $-1 $203 0 0 0 1 1 1 1 1 1 1 1 0 1 0 0 1 0 1 @6 GS_tag 15 #
point $-1 -1 -1 $-1 -10.85 0.29999999999999993 -4 #
integer_attrib-name_attrib-gen-attrib $-1 -1 $-1 $207 $136 2 1 1 1 1 1 1 1 1 1 1 1 1 1 0 1 1 1 @8 CUBIT_ID 30 #
integer_attrib-name_attrib-gen-attrib $-1 -1 $354 $-1 $208 0 0 0 1 1 1 1 1 1 1 1 0 1 0 0 1 0 1 @6 GS_tag 18 #
point $-1 -1 -1 $-1 -10.85 -0.29999999999999993 4 #
integer_attrib-name_attrib-gen-attrib $-1 -1 $-1 $211 $141 2 1 1 1 1 1 1 1 1 1 1 1 1 1 0 1 1 1 @8 CUBIT_ID 25 #
integer_attrib-name_attrib-gen-attrib $-1 -1 $-1 $214 $146 2 1 1 1 1 1 1 1 1 1 1 1 1 1 0 1 1 1 @8 CUBIT_ID 30 #
integer_attrib-name_attrib-gen-attrib $-1 -1 $-1 $218 $102 2 1 1 1 1 1 1 1 1 1 1 1 1 1 0 1 1 1 @8 CUBIT_ID 45 #
coedge $-1 -1 -1 $-1 $225 $236 $220 $292 forward $247 $355 #
edge $356 -1 -1 $-1 $245 -15 $300 15 $220 $357 forward @7 unknown T -15 -4 -4 15 -4 -4 #
pcurve $-1 -1 -1 $-1 0 forward { exppc 35 nubs 1 open 2 
	-15 1 15 1 
	-4 -15 
	-4 15 
	0 
	0 
	plane 0 -4 0 -0 -1 0 -0 0 1 reverse_v I I I I 
	} 0 0 #
coedge $-1 -1 -1 $-1 $239 $228 $221 $295 forward $251 $358 #
edge $359 -1 -1 $-1 $299 -15 $244 15 $221 $360 forward @7 unknown T -15 -4 4 15 -4 4 #
pcurve $-1 -1 -1 $-1 0 forward { exppc 36 nubs 1 open 2 
	-15 1 15 1 
	4 15 
	4 -15 
	0 
	0 
	plane 0 -4 0 -0 -1 0 -0 0 1 reverse_v I I I I 
	} 0 0 #
pcurve $-1 -1 -1 $-1 0 forward { exppc 37 nubs 1 open 2 
	-4 1 4 1 
	4 -4 
	-4 -4 
	0 
	0 
	plane -15 0 0 -1 -0 -0 0 0 -1 reverse_v I I I I 
	} 0 0 #
integer_attrib-name_attrib-gen-attrib $-1 -1 $361 $-1 $223 0 0 0 1 1 1 1 1 1 1 1 0 1 0 0 1 0 1 @6 GS_tag 6 #
vertex $362 -1 -1 $-1 $229 $363 #
vertex $364 -1 -1 $-1 $226 $365 #
straight-curve $-1 -1 -1 $-1 -15 -4 0 0 0 -1 I I #
pcurve $-1 -1 -1 $-1 0 forward { exppc 38 nubs 1 open 2 
	-4 1 4 1 
	-15 -4 
	-15 4 
	0 
	0 
	plane 0 0 -4 -0 -0 -1 1 0 0 reverse_v I I I I 
	} 0 0 #
integer_attrib-name_attrib-gen-attrib $-1 -1 $366 $-1 $226 0 0 0 1 1 1 1 1 1 1 1 0 1 0 0 1 0 1 @6 GS_tag 5 #
straight-curve $-1 -1 -1 $-1 -15 0 -4 0 1 0 I I #
pcurve $-1 -1 -1 $-1 0 forward { exppc 39 nubs 1 open 2 
	-4 1 4 1 
	-15 4 
	-15 -4 
	0 
	0 
	plane 0 0 4 0 0 1 1 0 0 forward_v I I I I 
	} 0 0 #
integer_attrib-name_attrib-gen-attrib $-1 -1 $367 $-1 $229 0 0 0 1 1 1 1 1 1 1 1 0 1 0 0 1 0 1 @6 GS_tag 7 #
straight-curve $-1 -1 -1 $-1 -15 0 4 0 -1 0 I I #
integer_attrib-name_attrib-gen-attrib $-1 -1 $-1 $232 $164 2 1 1 1 1 1 1 1 1 1 1 1 1 1 0 1 1 1 @8 CUBIT_ID 11 #
integer_attrib-name_attrib-gen-attrib $-1 -1 $368 $-1 $233 0 0 0 1 1 1 1 1 1 1 1 0 1 0 0 1 0 1 @6 GS_tag 4 #
point $-1 -1 -1 $-1 -15 4 4 #
integer_attrib-name_attrib-gen-attrib $-1 -1 $369 $-1 $234 0 0 0 1 1 1 1 1 1 1 1 0 1 0 0 1 0 1 @6 GS_tag 3 #
point $-1 -1 -1 $-1 -15 4 -4 #
pcurve $-1 -1 -1 $-1 0 forward { exppc 40 nubs 1 open 2 
	-4 1 4 1 
	15 4 
	15 -4 
	0 
	0 
	plane 0 0 -4 -0 -0 -1 1 0 0 reverse_v I I I I 
	} 0 0 #
integer_attrib-name_attrib-gen-attrib $-1 -1 $370 $-1 $237 0 0 0 1 1 1 1 1 1 1 1 0 1 0 0 1 0 1 @6 GS_tag 11 #
straight-curve $-1 -1 -1 $-1 15 0 -4 0 -1 0 I I #
pcurve $-1 -1 -1 $-1 0 forward { exppc 41 nubs 1 open 2 
	-4 1 4 1 
	15 -4 
	15 4 
	0 
	0 
	plane 0 0 4 0 0 1 1 0 0 forward_v I I I I 
	} 0 0 #
integer_attrib-name_attrib-gen-attrib $-1 -1 $371 $-1 $240 0 0 0 1 1 1 1 1 1 1 1 0 1 0 0 1 0 1 @6 GS_tag 12 #
straight-curve $-1 -1 -1 $-1 15 0 4 0 1 0 I I #
integer_attrib-name_attrib-gen-attrib $-1 -1 $-1 $243 $170 2 1 1 1 1 1 1 1 1 1 1 1 1 1 0 1 1 1 @8 CUBIT_ID 10 #
integer_attrib-name_attrib-gen-attrib $-1 -1 $372 $-1 $244 0 0 0 1 1 1 1 1 1 1 1 0 1 0 0 1 0 1 @6 GS_tag 8 #
point $-1 -1 -1 $-1 15 -4 4 #
integer_attrib-name_attrib-gen-attrib $-1 -1 $373 $-1 $245 0 0 0 1 1 1 1 1 1 1 1 0 1 0 0 1 0 1 @6 GS_tag 7 #
point $-1 -1 -1 $-1 15 -4 -4 #
integer_attrib-name_attrib-gen-attrib $-1 -1 $-1 $249 $173 2 1 1 1 1 1 1 1 1 1 1 1 1 1 0 1 1 1 @8 CUBIT_ID 8 #
integer_attrib-name_attrib-gen-attrib $-1 -1 $-1 $253 $176 2 1 1 1 1 1 1 1 1 1 1 1 1 1 0 1 1 1 @8 CUBIT_ID 2 #
integer_attrib-name_attrib-gen-attrib $-1 -1 $-1 $256 $180 2 1 1 1 1 1 1 1 1 1 1 1 1 1 0 1 1 1 @8 CUBIT_ID 2 #
integer_attrib-name_attrib-gen-attrib $-1 -1 $-1 $258 $181 2 1 1 1 1 1 1 1 1 1 1 1 1 1 0 1 1 1 @8 CUBIT_ID 5 #
integer_attrib-name_attrib-gen-attrib $-1 -1 $-1 $260 $121 2 1 1 1 1 1 1 1 1 1 1 1 1 1 0 1 1 1 @8 CUBIT_ID 44 #
integer_attrib-name_attrib-gen-attrib $-1 -1 $-1 $262 $126 2 1 1 1 1 1 1 1 1 1 1 1 1 1 0 1 1 1 @8 CUBIT_ID 7 #
coedge $-1 -1 -1 $-1 $330 $330 $374 $375 reversed $263 $376 #
coedge $-1 -1 -1 $-1 $331 $331 $264 $332 forward $377 $378 #
edge $379 -1 -1 $-1 $380 -3.1415926535897931 $380 3.1415926535897931 $331 $381 forward @7 unknown T -10.25 -0.25 -4 -9.75 0.25 -4 #
pcurve $-1 -1 -1 $-1 0 forward { exppc 42 nubs 1 periodic 2 
	-3.1415926535897931 1 3.1415926535897931 1 
	-14 3.1415926535897931 
	-14 -3.1415926535897931 
	0 
	0 
	cone -10 0 -0.5 0 0 1 0.25 0 0 1 I I -0 -1 0.25 forward I I I I 
	} 0 0 #
coedge $-1 -1 -1 $-1 $334 $334 $265 $335 forward $382 $383 #
edge $384 -1 -1 $-1 $385 -3.1415926535897931 $385 3.1415926535897931 $334 $386 forward @7 unknown T -10.25 0.34999999999999998 4 -9.75 0.84999999999999998 4 #
pcurve $-1 -1 -1 $-1 0 forward { exppc 43 nubs 1 periodic 2 
	-3.1415926535897931 1 3.1415926535897931 1 
	18 -3.1415926535897931 
	18 3.1415926535897931 
	0 
	0 
	cone -10 0.59999999999999998 -0.5 0 0 1 0.25 0 0 1 I I -0 -1 0.25 forward I I I I 
	} 0 0 #
loop $-1 -1 -1 $-1 $377 $266 $102 T -10.25 0.34999999999999998 -4 -9.75 0.84999999999999998 -4 unknown #
pcurve $-1 -1 -1 $-1 0 forward { exppc 44 nurbs 2 periodic 5 
	-3.1415926535897931 2 -1.5707963267948966 2 0 2 1.5707963267948966 2 3.1415926535897931 2 
	-10.25 0.59999999999999998 1 
	-10.25 0.34999999999999998 0.70710678118654324 
	-10 0.34999999999999998 1 
	-9.75 0.34999999999999998 0.70710678118654324 
	-9.75 0.59999999999999998 1 
	-9.75 0.84999999999999998 0.70710678118654324 
	-10 0.84999999999999998 1 
	-10.25 0.84999999999999998 0.70710678118654324 
	-10.25 0.59999999999999998 1 
	1e-08 
	-1 
	plane 0 0 -4 -0 -0 -1 1 0 0 reverse_v I I I I 
	} 0 0 #
integer_attrib-name_attrib-gen-attrib $-1 -1 $387 $-1 $267 0 0 0 1 1 1 1 1 1 1 1 0 1 0 0 1 0 1 @6 GS_tag 15 #
vertex $388 -1 -1 $-1 $267 $389 #
ellipse-curve $-1 -1 -1 $-1 -10 0.59999999999999998 -4 0 0 1 0.25 0 0 1 I I #
loop $-1 -1 -1 $-1 $382 $269 $121 T -10.25 -0.84999999999999998 4 -9.75 -0.34999999999999998 4 unknown #
pcurve $-1 -1 -1 $-1 0 forward { exppc 45 nurbs 2 periodic 5 
	-3.1415926535897931 2 -1.5707963267948966 2 0 2 1.5707963267948966 2 3.1415926535897931 2 
	-10.25 -0.59999999999999998 1 
	-10.25 -0.34999999999999998 0.70710678118654324 
	-10 -0.34999999999999998 1 
	-9.75 -0.34999999999999998 0.70710678118654324 
	-9.75 -0.59999999999999998 1 
	-9.75 -0.84999999999999998 0.70710678118654324 
	-10 -0.84999999999999998 1 
	-10.25 -0.84999999999999998 0.70710678118654324 
	-10.25 -0.59999999999999998 1 
	1e-08 
	-1 
	plane 0 0 4 0 0 1 1 0 0 forward_v I I I I 
	} 0 0 #
integer_attrib-name_attrib-gen-attrib $-1 -1 $390 $-1 $270 0 0 0 1 1 1 1 1 1 1 1 0 1 0 0 1 0 1 @6 GS_tag 18 #
vertex $391 -1 -1 $-1 $270 $392 #
ellipse-curve $-1 -1 -1 $-1 -10 -0.59999999999999998 4 -0 -0 -1 0.25 0 0 1 I I #
integer_attrib-name_attrib-gen-attrib $-1 -1 $-1 $274 $195 2 1 1 1 1 1 1 1 1 1 1 1 1 1 0 1 1 1 @8 CUBIT_ID 21 #
integer_attrib-name_attrib-gen-attrib $-1 -1 $393 $-1 $275 0 0 0 1 1 1 1 1 1 1 1 0 1 0 0 1 0 1 @6 GS_tag 13 #
point $-1 -1 -1 $-1 -10.25 -0.59999999999999998 -4 #
integer_attrib-name_attrib-gen-attrib $-1 -1 $-1 $279 $198 2 1 1 1 1 1 1 1 1 1 1 1 1 1 0 1 1 1 @8 CUBIT_ID 26 #
integer_attrib-name_attrib-gen-attrib $-1 -1 $394 $-1 $280 0 0 0 1 1 1 1 1 1 1 1 0 1 0 0 1 0 1 @6 GS_tag 16 #
point $-1 -1 -1 $-1 -10.85 0.30000000000000004 4 #
integer_attrib-name_attrib-gen-attrib $-1 -1 $-1 $283 $203 2 1 1 1 1 1 1 1 1 1 1 1 1 1 0 1 1 1 @8 CUBIT_ID 21 #
integer_attrib-name_attrib-gen-attrib $-1 -1 $-1 $286 $208 2 1 1 1 1 1 1 1 1 1 1 1 1 1 0 1 1 1 @8 CUBIT_ID 26 #
pcurve $-1 -1 -1 $-1 0 forward { exppc 46 nubs 1 open 2 
	-15 1 15 1 
	15 -4 
	-15 -4 
	0 
	0 
	plane 0 0 -4 -0 -0 -1 1 0 0 reverse_v I I I I 
	} 0 0 #
integer_attrib-name_attrib-gen-attrib $-1 -1 $395 $-1 $292 0 0 0 1 1 1 1 1 1 1 1 0 1 0 0 1 0 1 @6 GS_tag 8 #
straight-curve $-1 -1 -1 $-1 0 -4 -4 -1 0 0 I I #
pcurve $-1 -1 -1 $-1 0 forward { exppc 47 nubs 1 open 2 
	-15 1 15 1 
	-15 -4 
	15 -4 
	0 
	0 
	plane 0 0 4 0 0 1 1 0 0 forward_v I I I I 
	} 0 0 #
integer_attrib-name_attrib-gen-attrib $-1 -1 $396 $-1 $295 0 0 0 1 1 1 1 1 1 1 1 0 1 0 0 1 0 1 @6 GS_tag 10 #
straight-curve $-1 -1 -1 $-1 0 -4 4 1 0 0 I I #
integer_attrib-name_attrib-gen-attrib $-1 -1 $-1 $298 $223 2 1 1 1 1 1 1 1 1 1 1 1 1 1 0 1 1 1 @8 CUBIT_ID 9 #
integer_attrib-name_attrib-gen-attrib $-1 -1 $397 $-1 $299 0 0 0 1 1 1 1 1 1 1 1 0 1 0 0 1 0 1 @6 GS_tag 6 #
point $-1 -1 -1 $-1 -15 -4 4 #
integer_attrib-name_attrib-gen-attrib $-1 -1 $398 $-1 $300 0 0 0 1 1 1 1 1 1 1 1 0 1 0 0 1 0 1 @6 GS_tag 5 #
point $-1 -1 -1 $-1 -15 -4 -4 #
integer_attrib-name_attrib-gen-attrib $-1 -1 $-1 $303 $226 2 1 1 1 1 1 1 1 1 1 1 1 1 1 0 1 1 1 @8 CUBIT_ID 7 #
integer_attrib-name_attrib-gen-attrib $-1 -1 $-1 $306 $229 2 1 1 1 1 1 1 1 1 1 1 1 1 1 0 1 1 1 @8 CUBIT_ID 3 #
integer_attrib-name_attrib-gen-attrib $-1 -1 $-1 $309 $233 2 1 1 1 1 1 1 1 1 1 1 1 1 1 0 1 1 1 @8 CUBIT_ID 3 #
integer_attrib-name_attrib-gen-attrib $-1 -1 $-1 $311 $234 2 1 1 1 1 1 1 1 1 1 1 1 1 1 0 1 1 1 @8 CUBIT_ID 8 #
integer_attrib-name_attrib-gen-attrib $-1 -1 $-1 $314 $237 2 1 1 1 1 1 1 1 1 1 1 1 1 1 0 1 1 1 @8 CUBIT_ID 5 #
integer_attrib-name_attrib-gen-attrib $-1 -1 $-1 $317 $240 2 1 1 1 1 1 1 1 1 1 1 1 1 1 0 1 1 1 @8 CUBIT_ID 1 #
integer_attrib-name_attrib-gen-attrib $-1 -1 $-1 $320 $244 2 1 1 1 1 1 1 1 1 1 1 1 1 1 0 1 1 1 @8 CUBIT_ID 1 #
integer_attrib-name_attrib-gen-attrib $-1 -1 $-1 $322 $245 2 1 1 1 1 1 1 1 1 1 1 1 1 1 0 1 1 1 @8 CUBIT_ID 6 #
coedge $-1 -1 -1 $-1 $374 $374 $330 $375 forward $399 $400 #
edge $401 -1 -1 $-1 $402 -3.1415926535897931 $402 3.1415926535897931 $374 $403 forward @7 unknown T -10.25 -0.25 4 -9.75 0.25 4 #
pcurve $-1 -1 -1 $-1 0 forward { exppc 48 nubs 1 periodic 2 
	-3.1415926535897931 1 3.1415926535897931 1 
	18 -3.1415926535897931 
	18 3.1415926535897931 
	0 
	0 
	cone -10 0 -0.5 0 0 1 0.25 0 0 1 I I -0 -1 0.25 forward I I I I 
	} 0 0 #
loop $-1 -1 -1 $-1 $247 $331 $102 T -10.25 -0.25 -4 -9.75 0.25 -4 unknown #
pcurve $-1 -1 -1 $-1 0 forward { exppc 49 nurbs 2 periodic 5 
	-3.1415926535897931 2 -1.5707963267948966 2 0 2 1.5707963267948966 2 3.1415926535897931 2 
	-10.25 -3.0616169978683824e-17 1 
	-10.25 -0.25 0.70710678118654313 
	-10 -0.25 1 
	-9.75 -0.24999999999999997 0.70710678118654358 
	-9.75 0 1 
	-9.75 0.24999999999999997 0.70710678118654358 
	-10 0.25 1 
	-10.25 0.25 0.70710678118654313 
	-10.25 3.0616169978683824e-17 1 
	1e-08 
	-1 
	plane 0 0 -4 -0 -0 -1 1 0 0 reverse_v I I I I 
	} 0 0 #
integer_attrib-name_attrib-gen-attrib $-1 -1 $404 $-1 $332 0 0 0 1 1 1 1 1 1 1 1 0 1 0 0 1 0 1 @6 GS_tag 13 #
vertex $405 -1 -1 $-1 $332 $406 #
ellipse-curve $-1 -1 -1 $-1 -10 0 -4 0 0 1 0.25 0 0 1 I I #
loop $-1 -1 -1 $-1 $399 $334 $121 T -10.25 0.34999999999999998 4 -9.75 0.84999999999999998 4 unknown #
pcurve $-1 -1 -1 $-1 0 forward { exppc 50 nurbs 2 periodic 5 
	-3.1415926535897931 2 -1.5707963267948968 2 -4.4408920985006262e-16 2 1.5707963267948966 2 3.1415926535897931 2 
	-10.25 0.59999999999999998 1 
	-10.25 0.84999999999999998 0.70710678118654324 
	-10 0.84999999999999998 1 
	-9.75 0.84999999999999998 0.70710678118654324 
	-9.75 0.59999999999999998 1 
	-9.75 0.34999999999999998 0.70710678118654324 
	-10 0.34999999999999998 1 
	-10.25 0.34999999999999998 0.70710678118654324 
	-10.25 0.59999999999999998 1 
	1e-08 
	-1 
	plane 0 0 4 0 0 1 1 0 0 forward_v I I I I 
	} 0 0 #
integer_attrib-name_attrib-gen-attrib $-1 -1 $407 $-1 $335 0 0 0 1 1 1 1 1 1 1 1 0 1 0 0 1 0 1 @6 GS_tag 16 #
vertex $408 -1 -1 $-1 $335 $409 #
ellipse-curve $-1 -1 -1 $-1 -10 0.59999999999999998 4 -0 -0 -1 0.25 0 0 1 I I #
integer_attrib-name_attrib-gen-attrib $-1 -1 $-1 $339 $267 2 1 1 1 1 1 1 1 1 1 1 1 1 1 0 1 1 1 @8 CUBIT_ID 17 #
integer_attrib-name_attrib-gen-attrib $-1 -1 $410 $-1 $340 0 0 0 1 1 1 1 1 1 1 1 0 1 0 0 1 0 1 @6 GS_tag 11 #
point $-1 -1 -1 $-1 -10.25 0.59999999999999998 -4 #
integer_attrib-name_attrib-gen-attrib $-1 -1 $-1 $344 $270 2 1 1 1 1 1 1 1 1 1 1 1 1 1 0 1 1 1 @8 CUBIT_ID 22 #
integer_attrib-name_attrib-gen-attrib $-1 -1 $411 $-1 $345 0 0 0 1 1 1 1 1 1 1 1 0 1 0 0 1 0 1 @6 GS_tag 14 #
point $-1 -1 -1 $-1 -10.25 -0.59999999999999998 4 #
integer_attrib-name_attrib-gen-attrib $-1 -1 $-1 $348 $275 2 1 1 1 1 1 1 1 1 1 1 1 1 1 0 1 1 1 @8 CUBIT_ID 17 #
integer_attrib-name_attrib-gen-attrib $-1 -1 $-1 $351 $280 2 1 1 1 1 1 1 1 1 1 1 1 1 1 0 1 1 1 @8 CUBIT_ID 22 #
integer_attrib-name_attrib-gen-attrib $-1 -1 $-1 $356 $292 2 1 1 1 1 1 1 1 1 1 1 1 1 1 0 1 1 1 @8 CUBIT_ID 6 #
integer_attrib-name_attrib-gen-attrib $-1 -1 $-1 $359 $295 2 1 1 1 1 1 1 1 1 1 1 1 1 1 0 1 1 1 @8 CUBIT_ID 4 #
integer_attrib-name_attrib-gen-attrib $-1 -1 $-1 $362 $299 2 1 1 1 1 1 1 1 1 1 1 1 1 1 0 1 1 1 @8 CUBIT_ID 4 #
integer_attrib-name_attrib-gen-attrib $-1 -1 $-1 $364 $300 2 1 1 1 1 1 1 1 1 1 1 1 1 1 0 1 1 1 @8 CUBIT_ID 7 #
loop $-1 -1 -1 $-1 $251 $374 $121 T -10.25 -0.25 4 -9.75 0.25 4 unknown #
pcurve $-1 -1 -1 $-1 0 forward { exppc 51 nurbs 2 periodic 5 
	-3.1415926535897931 2 -1.5707963267948966 2 0 2 1.5707963267948966 2 3.1415926535897931 2 
	-10.25 3.0616169978683824e-17 1 
	-10.25 0.25 0.70710678118654313 
	-10 0.25 1 
	-9.75 0.24999999999999997 0.70710678118654358 
	-9.75 0 1 
	-9.75 -0.24999999999999997 0.70710678118654358 
	-10 -0.25 1 
	-10.25 -0.25 0.70710678118654313 
	-10.25 -3.0616169978683824e-17 1 
	1e-08 
	-1 
	plane 0 0 4 0 0 1 1 0 0 forward_v I I I I 
	} 0 0 #
integer_attrib-name_attrib-gen-attrib $-1 -1 $412 $-1 $375 0 0 0 1 1 1 1 1 1 1 1 0 1 0 0 1 0 1 @6 GS_tag 14 #
vertex $413 -1 -1 $-1 $375 $414 #
ellipse-curve $-1 -1 -1 $-1 -10 0 4 -0 -0 -1 0.25 0 0 1 I I #
integer_attrib-name_attrib-gen-attrib $-1 -1 $-1 $379 $332 2 1 1 1 1 1 1 1 1 1 1 1 1 1 0 1 1 1 @8 CUBIT_ID 13 #
integer_attrib-name_attrib-gen-attrib $-1 -1 $415 $-1 $380 0 0 0 1 1 1 1 1 1 1 1 0 1 0 0 1 0 1 @6 GS_tag 9 #
point $-1 -1 -1 $-1 -10.25 -3.0616169978683824e-17 -4 #
integer_attrib-name_attrib-gen-attrib $-1 -1 $-1 $384 $335 2 1 1 1 1 1 1 1 1 1 1 1 1 1 0 1 1 1 @8 CUBIT_ID 18 #
integer_attrib-name_attrib-gen-attrib $-1 -1 $416 $-1 $385 0 0 0 1 1 1 1 1 1 1 1 0 1 0 0 1 0 1 @6 GS_tag 12 #
point $-1 -1 -1 $-1 -10.25 0.59999999999999998 4 #
integer_attrib-name_attrib-gen-attrib $-1 -1 $-1 $388 $340 2 1 1 1 1 1 1 1 1 1 1 1 1 1 0 1 1 1 @8 CUBIT_ID 13 #
integer_attrib-name_attrib-gen-attrib $-1 -1 $-1 $391 $345 2 1 1 1 1 1 1 1 1 1 1 1 1 1 0 1 1 1 @8 CUBIT_ID 18 #
integer_attrib-name_attrib-gen-attrib $-1 -1 $-1 $401 $375 2 1 1 1 1 1 1 1 1 1 1 1 1 1 0 1 1 1 @8 CUBIT_ID 14 #
integer_attrib-name_attrib-gen-attrib $-1 -1 $417 $-1 $402 0 0 0 1 1 1 1 1 1 1 1 0 1 0 0 1 0 1 @6 GS_tag 10 #
point $-1 -1 -1 $-1 -10.25 3.0616169978683824e-17 4 #
integer_attrib-name_attrib-gen-attrib $-1 -1 $-1 $405 $380 2 1 1 1 1 1 1 1 1 1 1 1 1 1 0 1 1 1 @8 CUBIT_ID 9 #
integer_attrib-name_attrib-gen-attrib $-1 -1 $-1 $408 $385 2 1 1 1 1 1 1 1 1 1 1 1 1 1 0 1 1 1 @8 CUBIT_ID 14 #
integer_attrib-name_attrib-gen-attrib $-1 -1 $-1 $413 $402 2 1 1 1 1 1 1 1 1 1 1 1 1 1 0 1 1 1 @8 CUBIT_ID 10 #
End-of-ACIS-data 