**ABCDEFGHIJKLMNOPQRSTUVWXYZabcdefghijklmnopqrstuvwxyz**************************
**PARASOLID !"#$%&'()*+,-./:;<=>?@[\]^_`{|}~0123456789**************************
**PART1;
MC=unknown;
MC_MODEL=unknown;
MC_ID=unknown;
OS=unknown;
OS_RELEASE=unknown;
FRU=sdl_parasolid_customer_support;
APPL=parasolid_acceptance_tests;
SITE=unknown;
USER=unknown;
FORMAT=text;
GUISE=transmit;
KEY=geom.x_t;
FILE=geom.x_t;
DATE=unknown;
**PART2;
SCH=SCH_2600217_25001;
USFLD_SIZE=1;
**PART3;
**END_OF_HEADER*****************************************************************
T51 : TRANSMIT FILE created by modeller version 260021723 SCH_2600217_25001_1300
6189 1 12 29 CCCCCCCCCCCCCDI5 owner1040 0 CCCCCCCCCA16 index_map_offset0 0 1 dA9
 index_map82 0 A17 node_id_index_map82 0 A20 schema_embedding_map82 0 A5 child12
 0 A14 lowest_node_id0 0 1 dZ1 272 2 3 0 0 0 0 1e3 1e-8 0 0 0 1 0 6 1 0 4 5 6 7
 8 9 0 0 0 0 0 0 0 81 255 1 2 159 10 1 11 0 0 0 0 0 70 11 CI9 list_type0 0 1 uI1
0 notransmit0 0 1 lCCCDCCDI12 finger_index0 0 1 dI12 finger_block1012 0 CZ3 0 4
 T1 0 0 3 20 1 12 12 0 50 255 4 234 0 13 14 0 0 +-544949827450958e-32 .2 .1 1 27
2474913725479e-31 0 -272474913725479e-31 1 0 0 30 255 5 240 0 15 16 0 0 +-544949
827450958e-32 .2 .1 0 0 -1 0 29 255 6 252 0 17 18 0 .2 .2 0 0 19 8 CCCCCCCA5 own
er12 0 Z7 272 0 1 19 0 20 V0 0 16 255 8 73 0 ?21 0 22 23 0 0 1 0 18 255 9 15 0 2
4 0 25 26 ?1 0 17 255 24 0 27 28 29 9 30 31 0 32 +0 18 25 10 0 29 9 33 34 ?1 0 2
9 26 17 0 9 34 35 .2 .2 .2 0 29 34 12 0 25 36 26 .2 2149184150958275e-32 .2 0 29
 35 70 0 37 26 38 -612303176911189e-32 .2 .1 0 18 37 60 0 39 40 17 35 ?1 0 29 38
 69 0 40 35 41 0 0 .1 0 18 40 58 0 42 43 37 38 ?1 0 29 41 68 0 43 38 44 .2 21491
84150958275e-32 .1 0 18 43 56 0 45 46 40 41 ?1 0 29 44 67 0 46 41 47 .2 .2 .1 0
 18 46 54 0 48 49 43 44 ?1 0 29 47 255 0 50 44 51 -544949827450958e-32 .2 0 0 18
 50 232 0 52 53 0 47 ?1 0 29 51 254 0 53 47 18 770371977754894e-48 0 0 0 18 53 2
30 0 54 55 50 51 ?1 0 29 18 253 0 55 51 6 .2 1579742196430865e-32 0 0 18 55 228
 0 56 17 53 18 ?1 0 17 56 0 57 58 59 55 54 60 0 61 +0 18 17 226 0 62 37 55 6 ?1
 0 17 62 0 63 64 61 17 65 66 0 67 +0 15 255 63 178 0 62 68 0 0 17 64 0 63 45 62
 46 67 69 0 70 -0 17 61 0 63 62 45 55 58 71 0 65 +0 17 65 0 72 54 73 55 62 66 0
 0 -0 16 66 212 0 ?62 74 60 75 0 0 1 0 17 67 0 76 52 48 17 64 69 0 73 +0 15 76 1
83 0 52 77 0 0 17 52 0 76 78 67 50 73 74 0 79 +0 17 48 0 76 67 78 46 80 81 0 64
 -0 16 69 198 0 ?67 71 15 82 0 0 1 0 17 73 0 72 65 83 17 52 74 0 0 -0 15 72 190
 0 83 84 0 0 17 83 0 72 73 54 50 85 86 0 0 -0 16 74 210 0 ?52 15 66 87 0 0 1 0 1
6 15 200 0 ?79 69 74 5 0 0 1 0 30 87 244 0 74 75 82 0 +.2 .2 0 -1 -1387778780781
446e-31 0 0 30 75 245 0 66 88 87 0 +.2 28421709430404e-30 0 -1387778780781446e-3
1 1 0 0 30 82 243 0 69 87 89 0 +.2 .2 .1 0 0 -1 0 30 89 242 0 71 82 16 0 +.2 157
9742196430865e-32 .1 0 0 -1 0 16 71 196 0 ?61 90 69 89 0 0 1 0 30 16 241 0 90 89
 5 0 +770371977754894e-48 0 .1 0 0 -1 0 16 90 194 0 ?59 91 71 16 0 0 1 0 17 59 0
 57 56 42 53 92 90 0 85 +0 16 91 52 0 ?93 94 90 95 0 0 1 0 17 93 0 96 97 98 40 3
9 91 0 0 +0 16 94 50 0 ?99 100 91 101 0 0 1 0 30 95 66 0 91 102 101 0 +-61230317
6911189e-32 .2 .1 3061515884555945e-32 -1 0 0 30 102 22 0 103 104 95 0 +.2 .2 .2
 -1 -1387778780781446e-31 0 0 30 101 65 0 94 95 105 0 +0 0 .1 1 1074592075479136
e-31 0 0 30 105 64 0 100 101 106 0 +.2 28421709430404e-30 .1 -1387778780781446e-
31 1 0 0 16 100 48 0 ?70 81 94 105 0 0 1 0 30 106 63 0 81 105 107 0 +.2 .2 .1 -1
 -1387778780781446e-31 0 0 16 81 46 0 ?108 109 100 106 0 0 1 0 30 107 83 0 110 1
06 111 0 +.2 .2 .2 0 0 -1 0 16 110 71 0 ?112 22 113 107 0 0 1 0 30 111 84 0 22 1
07 23 0 +.2 2149184150958275e-32 .2 0 0 -1 0 16 22 72 0 ?114 8 110 111 0 0 1 0 3
0 23 85 0 8 111 115 0 +0 0 .2 0 0 -1 0 30 115 86 0 113 23 116 0 +-61230317691118
9e-32 .2 .2 0 0 -1 0 16 113 74 0 ?98 110 103 115 0 0 1 0 30 116 247 0 86 115 88
 0 +-544949827450958e-32 .2 0 272474913725479e-31 -1 0 0 16 86 216 0 ?85 60 0 11
6 0 0 1 0 30 88 246 0 60 116 75 0 +0 0 0 1 789871098215434e-31 0 0 16 60 214 0 ?
56 66 86 88 0 0 1 0 17 85 0 117 92 79 53 83 86 0 0 +0 15 117 168 0 85 13 0 0 17
 92 0 117 39 85 40 59 90 0 21 -0 17 79 0 117 85 39 50 78 15 0 83 +0 17 39 0 117
 79 92 37 118 91 0 78 -0 17 78 0 76 48 52 37 79 15 0 108 -0 17 108 0 119 120 112
 37 48 81 0 98 +0 15 119 75 0 108 121 0 0 17 120 0 119 122 108 49 98 113 0 123 -
0 17 112 0 119 108 122 46 32 110 0 0 +0 17 98 0 96 93 123 37 120 113 0 0 +0 15 9
6 81 0 93 124 0 0 17 123 0 96 98 97 49 125 109 0 0 -0 17 97 0 96 123 93 33 21 8
 0 0 -0 18 49 2 0 28 33 46 126 ?1 0 17 125 0 27 29 28 33 123 109 0 97 +0 16 109
 6 0 ?125 127 81 128 0 0 1 0 16 127 11 0 ?29 31 109 129 0 0 1 0 30 128 9 0 109 0
 129 0 +-612303176911189e-32 .2 .2 3061515884555945e-32 -1 0 0 30 129 14 0 127 1
28 104 0 +0 0 .2 1 1074592075479136e-31 0 0 30 104 19 0 31 129 102 0 +.2 2842170
9430404e-30 .2 -1387778780781446e-31 1 0 0 16 31 16 0 ?24 103 127 104 0 0 1 0 16
 103 20 0 ?28 113 31 102 0 0 1 0 17 28 0 27 125 24 49 122 103 0 120 +0 15 27 23
 0 125 130 0 0 17 122 0 119 112 120 9 28 103 0 0 -0 14 255 130 24 131 ?132 124 2
7 133 134 +0 0 132 124 20 0 81 1 131 117 135 130 0 0 136 137 138 0 14 132 78 139
 ?140 130 141 133 142 -0 0 140 130 20 0 14 124 82 143 ?130 121 96 133 144 -0 0 1
30 121 20 0 13 255 133 91 0 0 0 145 0 0 19 0 0 50 134 25 0 130 0 146 0 +0 0 .2 0
 0 1 1 0 0 0 13 20 261 0 0 0 0 0 0 7 121 0 14 121 76 136 ?124 145 119 133 147 -0
 0 124 0 20 0 81 1 136 116 135 121 0 0 139 131 148 0 14 145 42 137 ?121 0 149 13
3 146 -0 0 0 0 150 0 50 147 87 0 121 146 142 0 +.2 .2 .2 1387778780781446e-31 -1
 0 1 1387778780781446e-31 0 0 50 146 62 0 145 134 147 0 +0 0 .1 0 0 1 1 0 0 0 50
 142 88 0 132 147 151 0 +.2 28421709430404e-30 .2 -1 -1387778780781446e-31 0 138
7778780781446e-31 -1 0 0 50 151 89 0 140 142 144 0 +0 0 .2 -1074592075479136e-31
 1 0 -1 -1074592075479136e-31 0 0 14 140 80 152 ?0 132 153 133 151 -0 0 13 132 2
0 0 50 144 90 0 124 151 154 0 +-612303176911189e-32 .2 .2 1 3061515884555945e-32
 0 -3061515884555945e-32 1 0 0 50 154 238 0 84 144 155 0 +0 0 0 0 0 1 1 0 0 0 14
 84 186 156 ?157 68 72 150 154 -0 0 0 77 20 0 50 155 237 0 77 154 158 0 +.2 .2 .
1 1387778780781446e-31 -1 0 1 1387778780781446e-31 0 0 14 77 179 159 ?13 0 76 15
0 155 -0 0 84 68 20 0 50 158 236 0 68 155 14 0 +.2 28421709430404e-30 .1 -1 -138
7778780781446e-31 0 1387778780781446e-31 -1 0 0 14 68 174 160 ?84 13 63 150 158
 -0 0 77 157 20 0 50 14 235 0 157 158 4 0 +0 0 .1 -789871098215434e-31 1 0 -1 -7
89871098215434e-31 0 0 14 157 169 161 ?0 84 57 150 14 -0 0 68 13 20 0 81 1 161 1
72 135 157 0 0 162 160 163 0 15 57 173 0 56 157 0 0 13 150 262 0 0 0 77 0 0 164
 145 0 14 13 164 162 ?68 77 117 150 4 -0 0 157 140 20 0 81 1 162 167 135 13 0 0
 137 161 165 0 80 255 1 135 0 166 8001 0 0 0 0 3 5 0 0 0 FFFFTFTFFFFFFF2 0 81 1
 137 118 135 145 0 0 131 162 167 0 83 255 3 165 .5960784 .6666667 .6862745 0 83
 3 167 .5960784 .6666667 .6862745 0 79 255 15 166 SDL/TYSA_COLOUR0 19 164 192 0
 1 0 19 150 S0 0 19 19 92 0 1 164 7 133 S0 0 81 1 160 177 135 68 0 0 161 159 168
 0 83 3 163 .5960784 .6666667 .6862745 0 81 1 159 182 135 77 0 0 160 156 169 0 8
3 3 168 .5960784 .6666667 .6862745 0 81 1 156 189 135 84 0 0 159 0 170 0 83 3 16
9 .5960784 .6666667 .6862745 0 83 3 170 .5960784 .6666667 .6862745 0 81 1 152 11
4 135 140 0 0 143 139 171 0 15 153 79 0 99 140 0 0 17 99 0 153 172 21 43 42 94 0
 114 +0 17 172 0 153 173 99 25 114 22 0 30 -0 17 21 0 153 99 173 40 97 8 0 93 +0
 17 42 0 57 59 58 40 174 94 0 92 -0 17 114 0 141 70 30 43 172 22 0 0 +0 15 141 7
7 0 70 132 0 0 17 70 0 141 32 114 46 45 100 0 112 +0 17 30 0 141 114 32 25 24 31
 0 0 -0 17 32 0 141 30 70 9 112 110 0 122 -0 17 45 0 63 61 64 43 175 100 0 58 -0
 17 175 0 149 174 80 43 70 100 0 0 -0 17 58 0 57 42 56 43 61 71 0 99 -0 15 149 4
5 0 118 145 0 0 17 174 0 149 118 175 40 99 94 0 0 -0 17 80 0 149 175 118 46 108
 81 0 0 -0 17 118 0 149 80 174 37 93 91 0 0 -0 17 173 0 153 21 172 33 29 127 0 1
25 -0 18 33 5 0 173 25 49 36 ?1 0 17 29 0 27 24 125 25 173 127 0 172 +0 29 36 7
 0 33 126 34 0 0 .2 0 29 126 4 0 49 0 36 -612303176911189e-32 .2 .2 0 81 1 143 1
13 135 124 0 0 0 152 176 0 81 1 139 115 135 132 0 0 152 136 177 0 83 3 171 .5960
784 .6666667 .6862745 0 83 3 177 .5960784 .6666667 .6862745 0 83 3 176 .5960784
 .6666667 .6862745 0 83 3 148 .5960784 .6666667 .6862745 0 83 3 138 .5960784 .66
66667 .6862745 0 17 54 0 72 83 65 53 56 60 0 59 -0 74 4 CI16 index_map_offset0 0
 1 dCCZ20 12 3 0 0 11 156 2 0 0 0 0 0 0 0 0 0 0 0 0 0 0 0 0 0 0 81 2 11 110 178
 1 0 2 0 0 179 180 0 80 2 178 181 182 8004 0 0 0 0 3 5 0 0 0 FFTFFFFFFFFFFF2 3 0
 83 1 179 7830.64 0 84 255 8 180 Kg/Cu M 0 79 16 182 SDL/TYSA_DENSITY0 80 1 10 1
83 184 9000 0 0 0 0 3 6 0 0 0 FFTFTFTTFFFFTF9 0 79 23 184 Sim_NM_AssemblyModelAt
t0 1 0 
