**ABCDEFGHIJKLMNOPQRSTUVWXYZabcdefghijklmnopqrstuvwxyz**************************
**PARASOLID !"#$%&'()*+,-./:;<=>?@[\]^_`{|}~0123456789**************************
**PART1;
MC=unknown;
MC_MODEL=unknown;
MC_ID=unknown;
OS=unknown;
OS_RELEASE=unknown;
FRU=sdl_parasolid_customer_support;
APPL=parasolid_acceptance_tests;
SITE=unknown;
USER=unknown;
FORMAT=text;
GUISE=transmit;
KEY=test_non_man;
FILE=test_non_man.xmt_txt;
DATE=unknown;
**PART2;
SCH=SCH_2400133_20000;
USFLD_SIZE=1;
**PART3;
**END_OF_HEADER*****************************************************************
T51 : TRANSMIT FILE created by modeller version 240013323 SCH_2400133_20000_1300
6186 1 12 27 CCCCCCCCCCCCCCCCCCCCCCCA16 index_map_offset0 0 1 dA9 index_map82 0
 A17 node_id_index_map82 0 A20 schema_embedding_map82 0 Z1 278 2 3 0 0 0 0 1e3 1
e-8 0 0 0 1 0 6 1 0 4 5 6 7 8 9 0 0 0 0 0 81 255 1 2 165 10 1 11 0 0 0 0 0 70 11
 CI9 list_type0 0 1 uI10 notransmit0 0 1 lCCCDCCDI12 finger_index0 0 1 dI12 fing
er_block1012 0 CZ3 0 4 T1 0 0 3 20 1 12 12 0 50 255 4 240 0 13 14 0 0 +.05 .05 .
05 0 0 1 1 0 0 0 30 255 5 246 0 15 16 0 0 +.05 .05 .05 0 -1 0 0 29 255 6 258 0 1
7 18 0 .05 0 -.05 0 19 255 7 278 0 1 19 0 20 V0 16 255 8 80 0 ?21 0 22 23 0 0 1
 0 18 255 9 26 0 24 0 25 26 ?1 0 17 255 24 0 27 28 29 9 30 31 0 32 -0 18 25 23 0
 33 9 34 35 ?1 0 29 26 28 0 9 35 36 -.05 .1 .05 0 29 35 25 0 25 37 26 -.05 .1 -.
05 0 29 36 76 0 38 26 39 .05 .05 .05 0 18 38 66 0 40 41 17 36 ?1 0 29 39 75 0 41
 36 42 .05 .05 -.05 0 18 41 64 0 43 44 38 39 ?1 0 29 42 74 0 44 39 45 -.05 .05 -
.05 0 18 44 62 0 46 47 41 42 ?1 0 29 45 73 0 47 42 48 -.05 .05 .05 0 18 47 60 0
 49 50 44 45 ?1 0 29 48 261 0 51 45 52 .05 0 .05 0 18 51 238 0 53 54 0 48 ?1 0 2
9 52 260 0 54 48 18 -.05 0 .05 0 18 54 236 0 55 56 51 52 ?1 0 29 18 259 0 56 52
 6 -.05 0 -.05 0 18 56 234 0 57 17 54 18 ?1 0 17 57 0 58 59 46 56 60 61 0 62 +0
 18 17 232 0 63 38 56 6 ?1 0 17 63 0 64 62 43 17 65 66 0 67 +0 15 255 64 184 0 6
2 68 0 0 17 62 0 64 60 63 56 69 70 0 71 -0 17 43 0 64 63 60 41 72 73 0 65 +0 17
 65 0 74 40 67 41 63 66 0 75 -0 16 66 204 0 ?63 61 15 76 0 0 1 0 17 67 0 74 65 5
3 17 77 78 0 69 -0 15 74 189 0 67 79 0 0 17 53 0 74 67 40 51 80 15 0 77 +0 17 77
 0 81 82 69 51 67 78 0 83 +0 16 78 216 0 ?77 15 70 84 0 0 1 0 17 69 0 81 77 71 1
7 62 70 0 0 +0 15 81 196 0 82 85 0 0 17 71 0 81 69 82 56 59 86 0 0 +0 16 70 218
 0 ?69 78 86 87 0 0 1 0 16 86 220 0 ?71 70 88 89 0 0 1 0 30 87 251 0 70 89 84 0
 +-.05 0 -.05 1 0 -1387778780781444e-31 0 30 89 252 0 86 90 87 0 +-.05 0 .05 -69
3889390390723e-31 0 -1 0 30 84 250 0 78 87 76 0 +.05 0 -.05 0 0 1 0 30 76 249 0
 66 84 91 0 +.05 .05 -.05 0 -1 0 0 30 91 248 0 61 76 16 0 +-.05 .05 -.05 0 -1 0
 0 16 61 202 0 ?57 92 66 91 0 0 1 0 30 16 247 0 92 91 5 0 +-.05 .05 .05 0 -1 0 0
 16 92 200 0 ?55 93 61 16 0 0 1 0 17 55 0 94 83 49 54 95 92 0 59 +0 16 93 58 0 ?
49 96 92 97 0 0 1 0 17 49 0 94 55 80 47 98 93 0 95 +0 16 96 56 0 ?40 73 93 99 0
 0 1 0 30 97 72 0 93 100 99 0 +.05 .05 .05 -1 0 0 0 30 100 16 0 101 102 97 0 +-.
05 .1 .05 -693889390390723e-31 0 -1 0 30 99 71 0 96 97 103 0 +.05 .05 -.05 0 0 1
 0 30 103 70 0 73 99 104 0 +-.05 .05 -.05 1 0 -1387778780781444e-31 0 16 73 54 0
 ?43 105 96 103 0 0 1 0 30 104 69 0 105 103 106 0 +-.05 .05 .05 -693889390390723
e-31 0 -1 0 16 105 52 0 ?46 107 73 104 0 0 1 0 30 106 89 0 31 104 108 0 +-.05 .1
 .05 0 -1 0 0 16 31 77 0 ?30 109 101 106 0 0 1 0 30 108 90 0 109 106 110 0 +-.05
 .1 -.05 0 -1 0 0 16 109 78 0 ?111 22 31 108 0 0 1 0 30 110 91 0 22 108 23 0 +.0
5 .1 -.05 0 -1 0 0 16 22 79 0 ?75 8 109 110 0 0 1 0 30 23 92 0 8 110 90 0 +.05 .
1 .05 0 -1 0 0 30 90 253 0 88 23 89 0 +.05 0 .05 -1 0 0 0 16 88 222 0 ?82 86 0 9
0 0 0 1 0 17 82 0 81 71 77 54 83 88 0 0 +0 17 83 0 94 80 55 51 82 88 0 0 -0 15 9
4 174 0 83 13 0 0 17 80 0 94 49 83 38 53 15 0 21 -0 16 15 206 0 ?53 66 78 5 0 0
 1 0 17 21 0 112 113 114 38 115 8 0 98 +0 15 112 85 0 113 116 0 0 17 113 0 112 1
17 21 41 118 96 0 0 -0 17 114 0 112 21 117 50 119 120 0 0 +0 17 115 0 121 32 98
 50 21 8 0 122 -0 17 98 0 121 115 30 38 123 93 0 0 -0 15 121 87 0 98 124 0 0 17
 30 0 121 98 32 47 24 31 0 29 +0 17 123 0 125 126 118 47 49 93 0 0 +0 15 125 51
 0 123 127 0 0 17 126 0 125 128 123 44 46 105 0 0 +0 17 118 0 125 123 128 38 40
 96 0 0 +0 17 128 0 125 118 126 41 43 73 0 0 +0 17 40 0 74 53 65 38 113 96 0 80
 +0 17 46 0 58 57 95 44 29 105 0 60 +0 15 58 179 0 59 129 0 0 17 95 0 58 46 59 4
7 55 92 0 30 -0 17 29 0 27 24 111 47 126 105 0 0 -0 17 60 0 64 43 62 44 57 61 0
 111 -0 17 111 0 27 29 28 44 33 109 0 72 +0 15 27 81 0 29 130 0 0 17 28 0 27 111
 24 25 131 101 0 0 +0 17 33 0 132 133 72 25 111 109 0 134 -0 17 72 0 132 33 75 4
4 128 73 0 0 -0 15 132 83 0 72 135 0 0 17 75 0 132 72 133 41 117 22 0 113 +0 17
 133 0 132 75 33 34 134 136 0 0 +0 17 117 0 112 114 113 34 75 22 0 119 -0 18 34
 20 0 117 25 50 37 ?1 0 17 119 0 137 134 122 34 114 120 0 133 -0 15 137 8 0 122
 138 0 0 17 134 0 137 131 119 25 133 136 0 28 -0 17 122 0 137 119 131 50 32 107
 0 114 -0 16 120 11 0 ?114 136 107 139 0 0 1 0 16 136 13 0 ?133 101 120 102 0 0
 1 0 16 107 9 0 ?32 120 105 140 0 0 1 0 30 139 12 0 120 140 102 0 +.05 .1 -.05 0
 0 1 0 30 140 10 0 107 0 139 0 +.05 .1 .05 -1 0 0 0 30 102 14 0 136 139 100 0 +-
.05 .1 -.05 1 0 -1387778780781444e-31 0 17 32 0 121 30 115 9 122 107 0 131 +0 17
 131 0 137 122 134 9 28 101 0 0 -0 16 101 15 0 ?28 31 136 100 0 0 1 0 18 50 17 0
 115 34 47 141 ?1 0 29 141 19 0 50 0 37 .05 .1 .05 0 29 37 22 0 34 141 35 .05 .1
 -.05 0 14 255 138 1 142 ?127 130 137 143 144 -0 0 0 130 20 0 81 1 142 123 145 1
38 0 0 146 147 148 0 14 127 48 147 ?0 138 125 143 149 +0 0 0 0 150 0 14 130 82 1
46 ?138 135 27 143 151 +0 0 138 135 20 0 13 255 143 97 0 0 0 124 0 0 19 0 0 50 1
44 2 0 138 0 149 0 +0 .1 0 0 -1 0 0 0 -1 0 13 20 169 0 0 0 0 0 0 7 13 0 14 13 17
0 152 ?68 129 94 150 4 +0 0 129 0 20 0 81 1 152 173 145 13 0 0 147 153 154 0 14
 68 180 155 ?85 13 64 150 156 +0 0 79 129 20 0 14 129 175 153 ?13 0 58 150 14 +0
 0 68 13 20 0 13 150 267 0 0 0 129 0 0 157 127 0 19 157 198 0 1 0 19 150 S0 19 1
9 98 0 1 157 7 143 S0 81 1 153 178 145 129 0 0 152 155 158 0 50 14 241 0 129 156
 4 0 +-.05 .05 .05 -1 0 693889390390723e-31 693889390390723e-31 0 1 0 50 156 242
 0 68 159 14 0 +-.05 .05 -.05 -1387778780781444e-31 0 -1 -1 0 1387778780781444e-
31 0 50 159 243 0 79 160 156 0 +.05 .05 -.05 1 0 0 0 0 -1 0 14 79 185 161 ?0 85
 74 150 159 +0 0 85 68 20 0 50 160 244 0 85 162 159 0 +0 0 0 0 -1 0 0 0 -1 0 14
 85 192 163 ?79 68 81 150 160 +0 0 124 79 20 0 50 162 96 0 124 164 160 0 +.05 .1
 .05 0 0 1 1 0 0 0 14 124 88 165 ?116 0 121 143 162 +0 0 116 85 20 0 50 164 95 0
 116 166 162 0 +.05 .1 -.05 1 0 0 0 0 -1 0 14 116 86 167 ?135 124 112 143 164 +0
 0 135 124 20 0 50 166 94 0 135 151 164 0 +-.05 .1 -.05 -1387778780781444e-31 0
 -1 -1 0 1387778780781444e-31 0 14 135 84 168 ?130 116 132 143 166 +0 0 130 116
 20 0 50 151 93 0 130 149 166 0 +-.05 .1 .05 -1 0 693889390390723e-31 6938893903
90723e-31 0 1 0 50 149 68 0 127 144 151 0 +0 .05 0 0 -1 0 0 0 -1 0 81 1 168 121
 145 135 0 0 167 146 169 0 80 255 1 145 0 170 8001 0 0 0 0 3 5 0 0 0 FFFFTFTFFFF
FFF2 0 81 1 167 120 145 116 0 0 165 168 171 0 81 1 146 122 145 130 0 0 168 142 1
72 0 83 255 3 169 .5960784 .6666667 .6862745 0 83 3 172 .5960784 .6666667 .68627
45 0 81 1 165 119 145 124 0 0 0 167 173 0 83 3 171 .5960784 .6666667 .6862745 0
 83 3 173 .5960784 .6666667 .6862745 0 79 255 15 170 SDL/TYSA_COLOUR0 81 1 163 1
95 145 85 0 0 161 0 174 0 81 1 161 188 145 79 0 0 155 163 175 0 83 3 174 .596078
4 .6666667 .6862745 0 81 1 155 183 145 68 0 0 153 161 176 0 83 3 175 .5960784 .6
666667 .6862745 0 83 3 176 .5960784 .6666667 .6862745 0 83 3 158 .5960784 .66666
67 .6862745 0 81 1 147 124 145 127 0 0 142 152 177 0 83 3 154 .5960784 .6666667
 .6862745 0 83 3 177 .5960784 .6666667 .6862745 0 83 3 148 .5960784 .6666667 .68
62745 0 17 59 0 58 95 57 54 71 86 0 82 -0 74 4 CI16 index_map_offset0 0 1 dCCZ20
 12 3 0 0 11 163 2 0 0 0 0 0 0 0 0 0 0 0 0 0 0 0 0 0 0 81 2 11 117 178 1 0 2 0 0
 179 180 0 80 2 178 181 182 8004 0 0 0 0 3 5 0 0 0 FFTFFFFFFFFFFF2 3 0 83 1 179
 7830.64 0 84 255 8 180 Kg/Cu M 0 79 16 182 SDL/TYSA_DENSITY0 80 1 10 183 184 90
00 0 0 0 0 3 6 0 0 0 FFTFTFTTFFFFTF9 0 79 23 184 Sim_NM_AssemblyModelAtt0 1 0 
