**ABCDEFGHIJKLMNOPQRSTUVWXYZabcdefghijklmnopqrstuvwxyz**************************
**PARASOLID !"#$%&'()*+,-./:;<=>?@[\]^_`{|}~0123456789**************************
**PART1;
MC=unknown;
MC_MODEL=unknown;
MC_ID=unknown;
OS=unknown;
OS_RELEASE=unknown;
FRU=sdl_parasolid_customer_support;
APPL=parasolid_acceptance_tests;
SITE=unknown;
USER=unknown;
FORMAT=text;
GUISE=transmit;
KEY=two_bars_combined.x_t;
FILE=two_bars_combined.x_t;
DATE=unknown;
**PART2;
SCH=SCH_2600169_25001;
USFLD_SIZE=1;
**PART3;
**END_OF_HEADER*****************************************************************
T51 : TRANSMIT FILE created by modeller version 260016923 SCH_2600169_25001_1300
6189 1 12 29 CCCCCCCCCCCCCDI5 owner1040 0 CCCCCCCCCA16 index_map_offset0 0 1 dA9
 index_map82 0 A17 node_id_index_map82 0 A20 schema_embedding_map82 0 A5 child12
 0 A14 lowest_node_id0 0 1 dZ1 296 2 3 0 0 0 0 1e3 1e-8 0 0 0 1 0 6 1 0 4 5 6 7
 8 9 0 0 0 0 0 0 0 81 255 1 2 183 10 1 11 0 0 0 0 0 70 11 CI9 list_type0 0 1 uI1
0 notransmit0 0 1 lCCCDCCDI12 finger_index0 0 1 dI12 finger_block1012 0 CZ3 0 4
 T1 0 0 5 20 1 12 12 0 50 255 4 258 0 13 14 0 0 +0 25 10 -177635683940025e-30 1
 0 -1 -177635683940025e-30 0 0 30 255 5 264 0 15 16 0 0 +0 25 10 0 0 -1 0 29 255
 6 280 0 17 18 0 0 0 10 0 19 8 CCCCCCCA5 owner12 0 Z7 296 0 1 19 0 20 V0 0 16 25
5 8 73 0 ?21 0 22 23 0 0 1 0 18 255 9 15 0 24 0 25 26 ?1 0 17 255 24 0 27 28 29
 9 30 31 0 32 -0 18 25 10 0 33 9 34 35 ?1 0 29 26 17 0 9 35 36 0 0 0 0 29 35 12
 0 25 37 26 1e2 -177635683940025e-28 0 0 29 36 70 0 38 26 39 0 25 -10 0 18 38 60
 0 40 41 17 36 ?1 0 29 39 69 0 41 36 42 1e2 25 -10 0 18 41 58 0 21 43 38 39 ?1 0
 29 42 68 0 43 39 44 1e2 -177635683940025e-28 -10 0 18 43 56 0 45 46 41 42 ?1 0
 29 44 67 0 46 42 47 0 0 -10 0 18 46 54 0 48 49 43 44 ?1 0 29 47 283 0 50 44 51
 0 25 10 0 18 50 248 0 52 53 0 47 ?1 0 29 51 282 0 53 47 18 1e2 25 10 0 18 53 24
6 0 54 55 50 51 ?1 0 29 18 281 0 55 51 6 1e2 -177635683940025e-28 10 0 18 55 244
 0 56 17 53 18 ?1 0 17 56 0 57 58 33 55 59 60 0 61 -0 18 17 242 0 28 38 55 6 ?1
 0 17 28 0 27 62 24 17 32 63 0 58 -0 15 255 27 207 0 24 64 0 0 17 62 0 27 29 28
 50 65 66 0 67 +0 17 32 0 57 33 58 9 28 63 0 68 +0 16 63 222 0 ?32 60 15 69 0 0
 1 0 17 58 0 57 32 56 17 70 71 0 65 +0 15 57 202 0 33 72 0 0 17 70 0 73 74 65 55
 58 71 0 0 -0 16 71 228 0 ?58 66 75 76 0 0 1 0 17 65 0 73 70 67 17 62 66 0 0 -0
 15 73 212 0 67 77 0 0 17 67 0 73 65 74 50 78 79 0 0 -0 16 66 226 0 ?62 15 71 80
 0 0 1 0 16 15 224 0 ?29 63 66 5 0 0 1 0 30 80 272 0 66 76 69 0 +0 0 10 -2694133
978409235e-34 1 0 0 30 76 273 0 71 81 80 0 +1e2 -1836908392321285e-29 10 -1 1836
908392321285e-31 0 0 30 69 267 0 63 80 82 0 +0 0 10 0 0 -1 0 30 82 266 0 60 69 1
6 0 +1e2 -177635683940025e-28 10 0 0 -1 0 16 60 220 0 ?59 83 63 82 0 0 1 0 30 16
 265 0 83 82 5 0 +1e2 25 10 0 0 -1 0 16 83 218 0 ?84 85 60 16 0 0 1 0 17 84 0 86
 87 78 34 54 83 0 88 +0 16 85 52 0 ?89 90 83 91 0 0 1 0 17 89 0 92 93 94 41 95 8
5 0 0 +0 16 90 50 0 ?93 96 85 97 0 0 1 0 30 91 66 0 85 98 97 0 +0 25 -10 1 17763
5683940025e-30 0 0 30 98 22 0 31 99 91 0 +0 0 0 -2694133978409235e-34 1 0 0 30 9
7 65 0 90 91 100 0 +1e2 25 -10 0 -1 0 0 30 100 64 0 96 97 101 0 +1e2 -1836908392
321285e-29 -10 -1 1836908392321285e-31 0 0 16 96 48 0 ?102 103 90 100 0 0 1 0 30
 101 63 0 103 100 104 0 +0 0 -10 -2694133978409235e-34 1 0 0 16 103 46 0 ?94 105
 96 101 0 0 1 0 30 104 83 0 106 101 107 0 +0 0 0 0 0 -1 0 16 106 71 0 ?48 22 108
 104 0 0 1 0 30 107 84 0 22 104 23 0 +1e2 -177635683940025e-28 0 0 0 -1 0 16 22
 72 0 ?45 8 106 107 0 0 1 0 30 23 85 0 8 107 109 0 +1e2 25 0 0 0 -1 0 30 109 86
 0 108 23 110 0 +0 25 0 0 0 -1 0 16 108 74 0 ?40 106 31 109 0 0 1 0 30 110 275 0
 79 109 81 0 +0 25 10 1 177635683940025e-30 0 0 16 79 232 0 ?78 75 0 110 0 0 1 0
 30 81 274 0 75 110 76 0 +1e2 25 10 0 -1 0 0 16 75 230 0 ?61 71 79 81 0 0 1 0 17
 61 0 111 59 54 55 74 75 0 70 +0 15 111 197 0 112 113 0 0 17 59 0 111 112 61 25
 56 60 0 114 +0 17 54 0 111 61 112 53 84 83 0 74 -0 17 74 0 73 67 70 53 61 75 0
 78 -0 17 78 0 86 84 52 53 67 79 0 0 +0 15 86 192 0 87 13 0 0 17 52 0 86 78 87 5
0 29 15 0 62 -0 17 87 0 86 52 84 49 115 105 0 29 -0 17 29 0 27 24 62 49 52 15 0
 116 +0 18 49 2 0 87 34 46 117 ?1 0 17 116 0 118 119 95 49 40 108 0 120 -0 15 11
8 81 0 95 121 0 0 17 119 0 118 21 116 34 87 105 0 0 +0 17 95 0 118 116 21 38 89
 85 0 0 -0 17 40 0 122 123 120 38 116 108 0 94 +0 17 120 0 122 40 68 49 24 31 0
 0 +0 15 122 75 0 123 124 0 0 17 68 0 122 120 123 9 48 106 0 125 -0 16 31 20 0 ?
120 108 126 98 0 0 1 0 16 126 16 0 ?125 31 127 99 0 0 1 0 17 125 0 128 48 114 9
 33 126 0 0 +0 16 127 11 0 ?129 126 105 130 0 0 1 0 30 99 19 0 126 130 98 0 +1e2
 -1836908392321285e-29 0 -1 1836908392321285e-31 0 0 30 130 14 0 127 131 99 0 +1
e2 25 0 0 -1 0 0 30 131 9 0 105 0 130 0 +0 25 0 1 177635683940025e-30 0 0 16 105
 6 0 ?119 127 103 131 0 0 1 0 17 129 0 132 45 88 25 112 127 0 0 +0 15 132 79 0 1
33 134 0 0 17 45 0 132 133 129 43 114 22 0 135 +0 17 88 0 132 129 133 34 21 8 0
 119 -0 17 112 0 111 54 59 34 136 127 0 84 -0 18 34 5 0 112 25 49 37 ?1 0 17 136
 0 137 115 138 34 129 127 0 0 -0 15 137 23 0 115 139 0 0 17 115 0 137 30 136 49
 119 105 0 0 -0 17 138 0 137 136 30 25 125 126 0 0 -0 17 30 0 137 138 115 9 120
 31 0 0 -0 14 255 139 24 140 ?124 0 137 141 142 -0 0 0 0 143 0 81 1 140 141 144
 139 0 0 145 146 147 0 14 124 76 145 ?148 139 122 141 149 +0 0 148 0 20 0 13 255
 141 3 0 0 0 139 0 0 19 0 0 50 142 25 0 139 0 150 0 +0 0 0 0 0 -1 -1 0 0 0 13 14
3 286 0 0 0 64 0 0 151 139 0 14 64 203 152 ?72 0 27 143 153 +0 0 77 72 20 0 19 1
51 216 0 1 0 19 143 S0 0 19 19 92 0 1 151 7 141 S0 0 81 1 152 206 144 64 0 0 154
 155 156 0 14 72 198 154 ?77 64 57 143 157 +0 0 64 113 20 0 50 153 261 0 64 158
 157 0 +0 0 10 -1 -2694133978409235e-34 0 2694133978409235e-34 -1 0 0 14 77 208
 155 ?13 72 73 143 158 -0 0 0 64 20 0 13 20 285 0 0 0 0 0 0 7 124 0 81 1 155 211
 144 77 0 0 152 0 159 0 14 13 188 160 ?113 77 86 143 4 +0 0 113 134 20 0 50 158
 263 0 77 161 153 0 +0 0 10 0 0 -1 -1 0 0 0 50 161 90 0 121 162 158 0 +0 25 0 -1
77635683940025e-30 1 0 -1 -177635683940025e-30 0 0 14 121 82 163 ?164 148 118 14
1 161 +0 0 164 148 20 0 50 162 89 0 134 165 161 0 +1e2 25 0 1 0 0 0 0 -1 0 14 13
4 80 166 ?0 164 132 141 162 +0 0 13 164 20 0 50 165 88 0 148 149 162 0 +1e2 -183
6908392321285e-29 0 -1836908392321285e-31 -1 0 1 -1836908392321285e-31 0 0 14 14
8 78 167 ?121 124 128 141 165 +0 0 121 124 20 0 50 149 87 0 124 150 165 0 +0 0 0
 -1 -2694133978409235e-34 0 2694133978409235e-34 -1 0 0 50 150 62 0 164 142 149
 0 +0 0 -10 0 0 -1 -1 0 0 0 14 164 42 146 ?134 121 92 141 150 +0 0 134 121 20 0
 81 1 146 142 144 164 0 0 140 160 168 0 15 92 45 0 89 164 0 0 80 255 1 144 0 169
 8001 0 0 0 0 3 5 0 0 0 FFFFTFTFFFFFFF2 0 81 1 160 191 144 13 0 0 146 170 171 0
 83 255 3 168 .5960784 .6666667 .6862745 0 81 1 170 196 144 113 0 0 160 154 172
 0 83 3 171 .5960784 .6666667 .6862745 0 14 113 193 170 ?0 13 111 143 14 +0 0 72
 13 20 0 81 1 154 201 144 72 0 0 170 152 173 0 83 3 172 .5960784 .6666667 .68627
45 0 83 3 173 .5960784 .6666667 .6862745 0 50 14 259 0 113 157 4 0 +1e2 25 10 1
 0 0 0 0 -1 0 50 157 260 0 72 153 14 0 +1e2 -1836908392321285e-29 10 -1836908392
321285e-31 -1 0 1 -1836908392321285e-31 0 0 79 255 15 169 SDL/TYSA_COLOUR0 81 1
 167 139 144 148 0 0 166 145 174 0 15 128 77 0 135 148 0 0 17 135 0 128 114 48 4
3 102 96 0 93 -0 17 114 0 128 125 135 25 45 22 0 129 -0 17 48 0 128 135 125 46 6
8 106 0 123 +0 17 102 0 92 94 93 46 135 96 0 0 +0 17 93 0 92 102 89 43 133 90 0
 0 +0 17 133 0 132 88 45 41 93 90 0 89 -0 17 94 0 92 89 102 38 123 103 0 95 +0 1
7 123 0 122 68 40 46 94 103 0 102 -0 81 1 166 138 144 134 0 0 163 167 175 0 81 1
 145 140 144 124 0 0 167 140 176 0 83 3 174 .5960784 .6666667 .6862745 0 83 3 17
6 .5960784 .6666667 .6862745 0 81 1 163 137 144 121 0 0 0 166 177 0 83 3 175 .59
60784 .6666667 .6862745 0 83 3 177 .5960784 .6666667 .6862745 0 83 3 159 .596078
4 .6666667 .6862745 0 83 3 156 .5960784 .6666667 .6862745 0 83 3 147 .5960784 .6
666667 .6862745 0 29 37 7 0 34 117 35 1e2 25 0 0 29 117 4 0 49 0 37 0 25 0 0 17
 21 0 118 95 119 41 88 8 0 133 +0 17 33 0 57 56 32 25 138 126 0 59 -0 74 4 CI16
 index_map_offset0 0 1 dCCZ20 12 5 0 0 178 179 155 11 2 0 0 0 0 0 0 0 0 0 0 0 0
 0 0 0 0 81 2 178 110 180 1 0 179 0 0 181 182 0 81 1 179 129 183 1 178 11 0 0 18
4 0 81 1 11 136 185 1 179 2 0 0 186 0 80 1 185 183 187 9000 0 0 0 0 3 5 0 0 0 FF
TFFFFFFFFFFF1 0 82 255 1 186 129 0 79 24 187 UG2/BODY_COLOR_ATTRIBUTE0 80 1 183
 188 189 9000 0 0 0 0 3 5 0 0 0 FFTFFFFFFFFFFF1 0 82 1 184 8 0 79 7 189 body_id0
 80 2 180 190 191 8004 0 0 0 0 3 5 0 0 0 FFTFFFFFFFFFFF2 3 0 83 1 181 7830.64 0
 84 255 8 182 Kg/Cu M 0 79 16 191 SDL/TYSA_DENSITY0 80 1 10 185 192 9000 0 0 0 0
 3 6 0 0 0 FFTFTFTTFFFFTF9 0 79 23 192 Sim_NM_AssemblyModelAtt0 1 0 
